<svg width="24" height="24" viewBox="0 0 24 24" fill="none" xmlns="http://www.w3.org/2000/svg">
<g id="fi_9538412">
<g id="Layer 19">
<path id="Vector" d="M21.75 7.5H18.75C18.551 7.5 18.3603 7.57902 18.2196 7.71967C18.079 7.86032 18 8.05109 18 8.25C18 8.44891 18.079 8.63968 18.2196 8.78033C18.3603 8.92098 18.551 9 18.75 9H19.9425L13.5 15.4425L11.0325 12.9675C10.9627 12.8972 10.8798 12.8414 10.7884 12.8033C10.697 12.7653 10.599 12.7457 10.5 12.7457C10.4009 12.7457 10.3029 12.7653 10.2115 12.8033C10.1201 12.8414 10.0372 12.8972 9.96745 12.9675L3.21745 19.7175C3.14716 19.7872 3.09136 19.8702 3.05329 19.9616C3.01521 20.053 2.99561 20.151 2.99561 20.25C2.99561 20.349 3.01521 20.447 3.05329 20.5384C3.09136 20.6298 3.14716 20.7128 3.21745 20.7825C3.28718 20.8528 3.37013 20.9086 3.46152 20.9467C3.55292 20.9847 3.65095 21.0043 3.74995 21.0043C3.84896 21.0043 3.94699 20.9847 4.03839 20.9467C4.12978 20.9086 4.21273 20.8528 4.28245 20.7825L10.5 14.5575L12.9675 17.0325C13.0372 17.1028 13.1201 17.1586 13.2115 17.1967C13.3029 17.2347 13.4009 17.2543 13.5 17.2543C13.599 17.2543 13.697 17.2347 13.7884 17.1967C13.8798 17.1586 13.9627 17.1028 14.0325 17.0325L21 10.0575V11.25C21 11.4489 21.079 11.6397 21.2196 11.7803C21.3603 11.921 21.551 12 21.75 12C21.9489 12 22.1396 11.921 22.2803 11.7803C22.4209 11.6397 22.5 11.4489 22.5 11.25V8.25C22.5 8.05109 22.4209 7.86032 22.2803 7.71967C22.1396 7.57902 21.9489 7.5 21.75 7.5Z" fill="#00FF7F"/>
<path id="Vector_2" d="M4.91985 15.6149C5.03194 15.6784 5.15851 15.712 5.28735 15.7124C5.42025 15.7122 5.5507 15.6767 5.66535 15.6094C5.78 15.5422 5.87473 15.4458 5.93985 15.3299C6.03701 15.1568 6.06158 14.9522 6.00815 14.761C5.95473 14.5698 5.82768 14.4076 5.65485 14.3099C4.85232 13.8536 4.1843 13.1937 3.71818 12.3968C3.25206 11.6 3.0043 10.6943 2.99991 9.77108C2.99552 8.84789 3.23464 7.93987 3.69317 7.13859C4.15169 6.33731 4.81339 5.67111 5.61155 5.20717C6.4097 4.74324 7.31608 4.49797 8.23928 4.49611C9.16247 4.49425 10.0698 4.73586 10.8698 5.19658C11.6699 5.6573 12.3343 6.32083 12.796 7.12025C13.2577 7.91968 13.5005 8.82673 13.4999 9.74992C13.5009 10.658 13.2629 11.5504 12.8099 12.3374C12.7606 12.4231 12.7287 12.5177 12.716 12.6157C12.7033 12.7137 12.71 12.8132 12.7358 12.9086C12.7878 13.1013 12.9143 13.2655 13.0874 13.3649C13.2604 13.4644 13.4659 13.491 13.6586 13.439C13.8513 13.3869 14.0154 13.2605 14.1149 13.0874C14.7764 11.9271 15.0788 10.5967 14.9839 9.26444C14.889 7.9322 14.401 6.65806 13.5816 5.60329C12.7623 4.54852 11.6484 3.76052 10.3811 3.33905C9.11369 2.91757 7.74977 2.88155 6.46192 3.23555C5.17406 3.58955 4.02018 4.31766 3.14631 5.32772C2.27243 6.33778 1.71785 7.58438 1.55275 8.90976C1.38765 10.2351 1.61946 11.5797 2.21883 12.7733C2.81821 13.9669 3.7582 14.9558 4.91985 15.6149Z" fill="#00FF7F"/>
</g>
</g>
</svg>
