<svg width="24" height="24" viewBox="0 0 24 24" fill="none" xmlns="http://www.w3.org/2000/svg">
<g id="fi_9538412">
<g id="Layer 19">
<path id="Vector" d="M21.75 16.5H18.75C18.551 16.5 18.3603 16.421 18.2196 16.2803C18.079 16.1397 18 15.9489 18 15.75C18 15.5511 18.079 15.3603 18.2196 15.2197C18.3603 15.079 18.551 15 18.75 15H19.9425L13.5 8.5575L11.0325 11.0325C10.9627 11.1028 10.8798 11.1586 10.7884 11.1967C10.697 11.2347 10.599 11.2543 10.5 11.2543C10.4009 11.2543 10.3029 11.2347 10.2115 11.1967C10.1201 11.1586 10.0372 11.1028 9.96745 11.0325L3.21745 4.2825C3.14716 4.21278 3.09136 4.12983 3.05329 4.03843C3.01521 3.94704 2.99561 3.84901 2.99561 3.75C2.99561 3.65099 3.01521 3.55296 3.05329 3.46157C3.09136 3.37017 3.14716 3.28722 3.21745 3.2175C3.28718 3.1472 3.37013 3.09141 3.46152 3.05333C3.55292 3.01525 3.65095 2.99565 3.74995 2.99565C3.84896 2.99565 3.94699 3.01525 4.03839 3.05333C4.12978 3.09141 4.21273 3.1472 4.28245 3.2175L10.5 9.4425L12.9675 6.9675C13.0372 6.8972 13.1201 6.84141 13.2115 6.80333C13.3029 6.76525 13.4009 6.74565 13.5 6.74565C13.599 6.74565 13.697 6.76525 13.7884 6.80333C13.8798 6.84141 13.9627 6.8972 14.0325 6.9675L21 13.9425V12.75C21 12.5511 21.079 12.3603 21.2196 12.2197C21.3603 12.079 21.551 12 21.75 12C21.9489 12 22.1396 12.079 22.2803 12.2197C22.4209 12.3603 22.5 12.5511 22.5 12.75V15.75C22.5 15.9489 22.4209 16.1397 22.2803 16.2803C22.1396 16.421 21.9489 16.5 21.75 16.5Z" fill="#00FF7F"/>
<path id="Vector_2" d="M4.91985 8.38508C5.03194 8.32155 5.15851 8.28797 5.28735 8.28758C5.42025 8.28781 5.5507 8.32334 5.66535 8.39055C5.78 8.45776 5.87473 8.55423 5.93985 8.67008C6.03701 8.8432 6.06158 9.04778 6.00815 9.23898C5.95473 9.43018 5.82768 9.5924 5.65485 9.69008C4.85232 10.1464 4.1843 10.8063 3.71818 11.6032C3.25206 12.4 3.0043 13.3057 2.99991 14.2289C2.99552 15.1521 3.23464 16.0601 3.69317 16.8614C4.15169 17.6627 4.81339 18.3289 5.61155 18.7928C6.4097 19.2568 7.31608 19.502 8.23928 19.5039C9.16247 19.5057 10.0698 19.2641 10.8698 18.8034C11.6699 18.3427 12.3343 17.6792 12.796 16.8797C13.2577 16.0803 13.5005 15.1733 13.4999 14.2501C13.5009 13.342 13.2629 12.4496 12.8099 11.6626C12.7606 11.5769 12.7287 11.4823 12.716 11.3843C12.7033 11.2863 12.71 11.1868 12.7358 11.0914C12.7878 10.8987 12.9143 10.7345 13.0874 10.6351C13.2604 10.5356 13.4659 10.509 13.6586 10.561C13.8513 10.6131 14.0154 10.7395 14.1149 10.9126C14.7764 12.0729 15.0788 13.4033 14.9839 14.7356C14.889 16.0678 14.401 17.3419 13.5816 18.3967C12.7623 19.4515 11.6484 20.2395 10.3811 20.661C9.11369 21.0824 7.74977 21.1185 6.46192 20.7644C5.17406 20.4104 4.02018 19.6823 3.14631 18.6723C2.27243 17.6622 1.71785 16.4156 1.55275 15.0902C1.38765 13.7649 1.61946 12.4203 2.21883 11.2267C2.81821 10.0331 3.7582 9.04421 4.91985 8.38508Z" fill="#00FF7F"/>
</g>
</g>
</svg>
