<svg width="107" height="110" viewBox="0 0 107 110" fill="none" xmlns="http://www.w3.org/2000/svg">
<g style="mix-blend-mode:lighten">
<path fill-rule="evenodd" clip-rule="evenodd" d="M51.9382 0C72.5547 0 90.369 12.0164 98.7564 29.4244C90.7825 14.8469 75.3024 4.96156 57.5164 4.96156C31.5722 4.96156 10.5375 25.9939 10.5375 51.9428C10.5375 77.8918 31.5698 98.9217 57.5164 98.9217C75.3024 98.9217 90.7825 89.0364 98.7564 74.4612C90.369 91.8716 72.5547 103.883 51.9382 103.883C23.2509 103.883 -0.00463867 80.6301 -0.00463867 51.9428C-0.00463867 23.2556 23.2509 0 51.9382 0Z" fill="url(#paint0_radial_5929_4185)" style="mix-blend-mode:overlay"/>
</g>
<g style="mix-blend-mode:lighten">
<path fill-rule="evenodd" clip-rule="evenodd" d="M57.6204 7.06194C82.4117 7.06194 102.504 27.1539 102.504 51.9428C102.504 76.7317 82.4117 96.8237 57.6204 96.8237C39.9336 96.8237 24.6378 86.5863 17.3254 71.7158C24.2315 83.9331 37.3441 92.1858 52.3777 92.1858C74.6031 92.1858 92.6231 74.1683 92.6231 51.9428C92.6231 29.7174 74.6031 11.6998 52.3777 11.6998C37.3441 11.6998 24.2338 19.9478 17.3254 32.1651C24.6378 17.2946 39.936 7.05957 57.6204 7.05957" fill="url(#paint1_diamond_5929_4185)" style="mix-blend-mode:overlay"/>
</g>
<path d="M53.3357 93.0074C68.0646 93.0074 80.0047 88.6656 80.0047 83.3096C80.0047 77.9537 68.0646 73.6118 53.3357 73.6118C38.6069 73.6118 26.6667 77.9537 26.6667 83.3096C26.6667 88.6656 38.6069 93.0074 53.3357 93.0074Z" fill="url(#paint2_radial_5929_4185)" fill-opacity="0.6"/>
<path d="M53.3357 93.0074C68.0646 93.0074 80.0047 88.6656 80.0047 83.3096C80.0047 77.9537 68.0646 73.6118 53.3357 73.6118C38.6069 73.6118 26.6667 77.9537 26.6667 83.3096C26.6667 88.6656 38.6069 93.0074 53.3357 93.0074Z" fill="url(#paint3_radial_5929_4185)" fill-opacity="0.6"/>
<path d="M53.3357 93.0074C68.0646 93.0074 80.0047 88.6656 80.0047 83.3096C80.0047 77.9537 68.0646 73.6118 53.3357 73.6118C38.6069 73.6118 26.6667 77.9537 26.6667 83.3096C26.6667 88.6656 38.6069 93.0074 53.3357 93.0074Z" fill="url(#paint4_radial_5929_4185)" fill-opacity="0.6"/>
<path d="M53.3357 93.0074C68.0646 93.0074 80.0047 88.6656 80.0047 83.3096C80.0047 77.9537 68.0646 73.6118 53.3357 73.6118C38.6069 73.6118 26.6667 77.9537 26.6667 83.3096C26.6667 88.6656 38.6069 93.0074 53.3357 93.0074Z" fill="url(#paint5_radial_5929_4185)" fill-opacity="0.6"/>
<path d="M30.7197 77.0254C34.5464 74.0489 42.8388 71.98 52.485 71.98C62.1313 71.98 70.406 74.0489 74.2327 77.0254H76.5012V80.7093C76.5012 85.5282 65.7445 89.4386 52.485 89.4386C39.2255 89.4386 28.4512 85.5282 28.4512 80.7093V77.0254H30.7197Z" fill="url(#paint6_linear_5929_4185)"/>
<path d="M28.4512 77.0252C28.4512 81.8441 39.2071 85.7545 52.485 85.7545C65.7629 85.7545 76.5012 81.8441 76.5012 77.0252C76.5012 72.2063 65.7445 68.2959 52.485 68.2959C39.2255 68.2959 28.4512 72.2063 28.4512 77.0252Z" fill="url(#paint7_linear_5929_4185)"/>
<path d="M45.7166 70.5931C46.9054 69.6685 49.4819 70.5931 52.4792 70.5931C55.4765 70.5931 58.0476 69.6685 59.2364 70.5931H59.9414V73.3055C59.9414 74.803 56.5993 76.0179 52.48 76.0179C48.3607 76.0179 45.0124 74.803 45.0124 73.3055V70.5931H45.7174H45.7166Z" fill="url(#paint8_linear_5929_4185)"/>
<path d="M45.0124 70.5933C45.0124 72.0908 48.3545 73.3057 52.48 73.3057C56.6054 73.3057 59.9414 72.0908 59.9414 70.5933C59.9414 69.0958 56.5993 67.8809 52.48 67.8809C48.3607 67.8809 45.0124 69.0958 45.0124 70.5933Z" fill="url(#paint9_linear_5929_4185)"/>
<path d="M29.0908 24.8159V76.2273C29.0908 79.9312 35.4617 83.0974 44.4399 84.3646C47.1331 84.7501 50.0513 84.9566 53.1247 84.9566C57.0612 84.9566 60.7735 84.6126 64.0534 83.9929C66.7297 83.5113 69.1119 82.8363 71.0802 82.0238C72.8757 81.2943 74.3255 80.4403 75.3623 79.518C76.5188 78.4989 77.1409 77.3839 77.1409 76.2273V24.8159C77.1409 25.9725 76.5188 27.0875 75.3623 28.1066C74.3263 29.0289 72.8764 29.8829 71.0802 30.6124C69.1119 31.4249 66.729 32.0992 64.0534 32.5815C60.7735 33.2012 57.0612 33.5452 53.1247 33.5452C50.0513 33.5452 47.1331 33.3387 44.4399 32.9531C35.4617 31.6868 29.0908 28.5198 29.0908 24.8159Z" fill="url(#paint10_linear_5929_4185)"/>
<path d="M44.7489 73.917L51.8678 59.0189L42.6568 58.8767L53.958 41.0515L48.6616 56.5874L58.274 56.7358L44.7489 73.917Z" fill="url(#paint11_linear_5929_4185)"/>
<path d="M30.7197 22.1451C34.5464 19.1685 42.8388 17.0996 52.485 17.0996C62.1313 17.0996 70.406 19.1685 74.2327 22.1451H76.5012V25.8289C76.5012 30.6478 65.7445 34.5583 52.485 34.5583C39.2255 34.5583 28.4512 30.6478 28.4512 25.8289V22.1451H30.7197Z" fill="url(#paint12_linear_5929_4185)"/>
<path d="M28.4512 22.1449C28.4512 26.9638 39.2071 30.8742 52.485 30.8742C65.7629 30.8742 76.5012 26.9638 76.5012 22.1449C76.5012 17.3259 65.7445 13.4155 52.485 13.4155C39.2255 13.4155 28.4512 17.3259 28.4512 22.1449Z" fill="url(#paint13_linear_5929_4185)"/>
<path d="M44.701 16.1115C46.0645 15.051 49.0196 16.1115 52.4573 16.1115C55.8951 16.1115 58.844 15.051 60.2075 16.1115H61.0161V19.2225C61.0161 20.94 57.1829 22.3334 52.4582 22.3334C47.7336 22.3334 43.8933 20.94 43.8933 19.2225V16.1115H44.7019H44.701Z" fill="url(#paint14_linear_5929_4185)"/>
<path d="M43.8933 16.111C43.8933 17.8286 47.7266 19.222 52.4582 19.222C57.1899 19.222 61.0161 17.8286 61.0161 16.111C61.0161 14.3934 57.1829 13 52.4582 13C47.7336 13 43.8933 14.3934 43.8933 16.111Z" fill="url(#paint15_linear_5929_4185)"/>
<defs>
<radialGradient id="paint0_radial_5929_4185" cx="0" cy="0" r="1" gradientUnits="userSpaceOnUse" gradientTransform="translate(14.9998 41) rotate(52.6629) scale(98.1033 93.266)">
<stop stop-color="#200242"/>
<stop offset="1" stop-color="#871FFF"/>
</radialGradient>
<radialGradient id="paint1_diamond_5929_4185" cx="0" cy="0" r="1" gradientUnits="userSpaceOnUse" gradientTransform="translate(119 31.5) rotate(165.964) scale(140.186 143.353)">
<stop stop-color="#040404"/>
<stop offset="1" stop-color="#690DD3"/>
</radialGradient>
<radialGradient id="paint2_radial_5929_4185" cx="0" cy="0" r="1" gradientUnits="userSpaceOnUse" gradientTransform="translate(53.3357 83.3096) rotate(90) scale(9.69782 26.669)">
<stop stop-color="#47FCE4"/>
<stop offset="1" stop-color="#47FCE4" stop-opacity="0"/>
</radialGradient>
<radialGradient id="paint3_radial_5929_4185" cx="0" cy="0" r="1" gradientUnits="userSpaceOnUse" gradientTransform="translate(53.3357 83.3096) rotate(90) scale(9.69782 26.669)">
<stop stop-color="#47FCE4"/>
<stop offset="1" stop-color="#47FCE4" stop-opacity="0"/>
</radialGradient>
<radialGradient id="paint4_radial_5929_4185" cx="0" cy="0" r="1" gradientUnits="userSpaceOnUse" gradientTransform="translate(53.3357 83.3096) rotate(90) scale(9.69782 26.669)">
<stop stop-color="#47FCE4"/>
<stop offset="1" stop-color="#47FCE4" stop-opacity="0"/>
</radialGradient>
<radialGradient id="paint5_radial_5929_4185" cx="0" cy="0" r="1" gradientUnits="userSpaceOnUse" gradientTransform="translate(53.3357 83.3096) rotate(90) scale(9.69782 26.669)">
<stop stop-color="#47FCE4"/>
<stop offset="1" stop-color="#47FCE4" stop-opacity="0"/>
</radialGradient>
<linearGradient id="paint6_linear_5929_4185" x1="31.0875" y1="80.7093" x2="63.5382" y2="80.7093" gradientUnits="userSpaceOnUse">
<stop stop-color="#200242"/>
<stop offset="1" stop-color="#040404"/>
</linearGradient>
<linearGradient id="paint7_linear_5929_4185" x1="31.0875" y1="77.0252" x2="63.5382" y2="77.0252" gradientUnits="userSpaceOnUse">
<stop stop-color="#200242"/>
<stop offset="1" stop-color="#040404"/>
</linearGradient>
<linearGradient id="paint8_linear_5929_4185" x1="45.8315" y1="73.1" x2="55.9138" y2="73.1" gradientUnits="userSpaceOnUse">
<stop stop-color="#200242"/>
<stop offset="1" stop-color="#040404"/>
</linearGradient>
<linearGradient id="paint9_linear_5929_4185" x1="45.8315" y1="70.5933" x2="55.9138" y2="70.5933" gradientUnits="userSpaceOnUse">
<stop stop-color="#200242"/>
<stop offset="1" stop-color="#040404"/>
</linearGradient>
<linearGradient id="paint10_linear_5929_4185" x1="77.1409" y1="54.8863" x2="29.0908" y2="54.8863" gradientUnits="userSpaceOnUse">
<stop stop-color="#871FFF"/>
<stop offset="1" stop-color="#200242"/>
</linearGradient>
<linearGradient id="paint11_linear_5929_4185" x1="50.0511" y1="88.9737" x2="50.7935" y2="40.8797" gradientUnits="userSpaceOnUse">
<stop stop-color="#871FFF"/>
<stop offset="1" stop-color="white"/>
</linearGradient>
<linearGradient id="paint12_linear_5929_4185" x1="31.0875" y1="25.8289" x2="63.5382" y2="25.8289" gradientUnits="userSpaceOnUse">
<stop stop-color="#200242"/>
<stop offset="1" stop-color="#040404"/>
</linearGradient>
<linearGradient id="paint13_linear_5929_4185" x1="76.5012" y1="22.1449" x2="11.5133" y2="16.6367" gradientUnits="userSpaceOnUse">
<stop stop-color="#871FFF"/>
<stop offset="0.7" stop-color="#7F3ECB"/>
<stop offset="1" stop-color="#871FFF" stop-opacity="0.2"/>
</linearGradient>
<linearGradient id="paint14_linear_5929_4185" x1="40.9263" y1="20.6473" x2="61.7848" y2="20.0649" gradientUnits="userSpaceOnUse">
<stop stop-color="#871FFF"/>
<stop offset="1" stop-color="white"/>
</linearGradient>
<linearGradient id="paint15_linear_5929_4185" x1="61.0864" y1="15.7807" x2="42.3165" y2="16.4759" gradientUnits="userSpaceOnUse">
<stop stop-color="#871FFF"/>
<stop offset="1" stop-color="white"/>
</linearGradient>
</defs>
</svg>
