<svg xmlns="http://www.w3.org/2000/svg" width="153" height="42" viewBox="0 0 153 42" fill="none">
  <path d="M58.5148 7.04504C59.2017 7.04504 59.8943 7.04879 60.5944 7.0544C61.2944 7.06002 61.9795 7.07499 62.6534 7.1012C63.3291 7.12553 63.9599 7.16858 64.5476 7.23035L64.4185 9.2725H59.5424C59.2354 9.2725 59.0052 9.35298 58.8517 9.51209C58.6982 9.67119 58.6215 9.90517 58.6215 10.2121V16.6886C58.6215 16.9956 58.6982 17.2277 58.8517 17.3868C59.0052 17.5459 59.2354 17.6264 59.5424 17.6264H64.4185L64.5476 19.6685C63.9599 19.7172 63.3272 19.7584 62.6534 19.7883C61.9795 19.8183 61.2926 19.837 60.5944 19.8426C59.8943 19.8482 59.2017 19.852 58.5148 19.852C57.7062 19.852 57.0529 19.6161 56.555 19.1444C56.059 18.6727 55.81 18.0569 55.81 17.2951V9.60568C55.81 8.83262 56.059 8.21305 56.555 7.74697C57.0529 7.28089 57.7062 7.04692 58.5148 7.04692V7.04504ZM56.1413 12.1963H63.739V14.1823H56.1413V12.1963Z" fill="white"/>
  <path d="M68.5589 10.7063L68.8715 12.5088L69.0924 12.7484V19.7939H66.3689V10.7063H68.5589ZM72.6975 10.4667C74.4139 10.4667 75.2731 11.3071 75.2731 12.9861V19.7939H72.5496V13.8341C72.5496 13.4297 72.4766 13.1508 72.3287 12.9974C72.1827 12.8439 71.93 12.7671 71.5744 12.7671C71.1813 12.7671 70.777 12.8439 70.3614 12.9974C69.944 13.1508 69.4293 13.3867 68.8153 13.7049L68.6862 12.1775C69.3357 11.6253 70.0021 11.2023 70.6815 10.9084C71.3629 10.6146 72.0348 10.4667 72.6975 10.4667Z" fill="white"/>
  <path d="M81.7308 10.4686C83.2639 10.4686 84.3645 10.7288 85.0327 11.251C85.7028 11.7733 86.036 12.5482 86.036 13.5777C86.0472 14.4125 85.8395 15.034 85.4108 15.4458C84.9822 15.8576 84.2391 16.0616 83.1852 16.0616H78.1089V14.5342H82.4309C82.8483 14.5342 83.1141 14.4462 83.232 14.2665C83.3481 14.0887 83.4061 13.8398 83.4061 13.5215C83.3949 13.0929 83.2695 12.7953 83.0299 12.6287C82.7903 12.464 82.3897 12.3797 81.8263 12.3797C81.3228 12.3797 80.9297 12.4471 80.6471 12.5819C80.3663 12.7167 80.1698 12.975 80.0593 13.355C79.9489 13.7349 79.8927 14.2871 79.8927 15.0115C79.8927 15.7715 79.9601 16.3573 80.0949 16.7691C80.2297 17.1809 80.4599 17.4654 80.7856 17.6246C81.1113 17.7837 81.5624 17.8641 82.1389 17.8641C82.5544 17.8641 83.0729 17.8492 83.6925 17.8173C84.3102 17.7874 84.9335 17.735 85.5606 17.662L85.817 19.3354C85.4614 19.5076 85.057 19.6424 84.6041 19.7397C84.1492 19.837 83.6831 19.9082 83.2058 19.9512C82.7266 19.9943 82.2681 20.0149 81.8263 20.0149C80.6733 20.0149 79.743 19.8464 79.0392 19.5095C78.3335 19.1725 77.8244 18.654 77.5118 17.9559C77.1992 17.2558 77.0438 16.3611 77.0438 15.2698C77.0438 14.0812 77.2029 13.136 77.5211 12.4378C77.8393 11.7377 78.3429 11.2361 79.0298 10.9291C79.7168 10.6221 80.619 10.4686 81.7346 10.4686H81.7308Z" fill="white"/>
  <path d="M89.935 10.7063L90.2663 12.5089L90.5246 12.7485V19.7939H87.8011V10.7063H89.935ZM94.3693 10.4667L94.1129 12.9862H93.3585C92.928 12.9862 92.4807 13.0479 92.0146 13.1696C91.5485 13.2931 90.9589 13.4766 90.2476 13.7218L90.0641 12.1944C90.7024 11.631 91.3463 11.2005 91.9959 10.9066C92.6454 10.6127 93.278 10.4648 93.8901 10.4648H94.3674L94.3693 10.4667Z" fill="white"/>
  <path d="M96.9093 15.674L98.2702 15.9136C98.0979 16.011 97.9782 16.1645 97.9108 16.3741C97.8434 16.5837 97.8584 16.7784 97.9576 16.9619C98.0549 17.1453 98.2702 17.2557 98.6015 17.2932L101.948 17.6788C102.905 17.778 103.579 18.0438 103.972 18.4799C104.365 18.916 104.561 19.5506 104.561 20.3835C104.561 21.1678 104.4 21.7724 104.082 22.1954C103.764 22.6185 103.255 22.9105 102.557 23.0696C101.857 23.2287 100.926 23.3092 99.7601 23.3092C98.8036 23.3092 98.0156 23.2642 97.396 23.1706C96.7765 23.0789 96.286 22.9292 95.9248 22.7195C95.5635 22.5118 95.3108 22.2385 95.1704 21.9016C95.0282 21.5646 94.9589 21.1435 94.9589 20.6418C94.9589 20.2619 95.0263 19.9343 95.1611 19.6573C95.2977 19.3802 95.5261 19.1332 95.8518 18.9123C96.1775 18.6914 96.6342 18.4893 97.2238 18.3058L98.5659 17.8266L99.5411 18.2122L98.8055 18.6914C98.4985 18.9123 98.2496 19.0995 98.0605 19.2529C97.8715 19.4064 97.7348 19.5562 97.6562 19.7041C97.5757 19.8519 97.5383 20.0466 97.5383 20.2918C97.5383 20.5744 97.5982 20.7916 97.7217 20.9451C97.8434 21.0986 98.068 21.2034 98.3937 21.2577C98.7194 21.3119 99.163 21.34 99.7283 21.34C100.294 21.34 100.777 21.3119 101.108 21.2577C101.439 21.2034 101.669 21.1004 101.799 20.9544C101.928 20.8065 101.993 20.5988 101.993 20.3292C101.993 20.0953 101.946 19.9249 101.855 19.8145C101.763 19.7041 101.609 19.6217 101.394 19.5655C101.179 19.5094 100.883 19.4588 100.503 19.4083L97.6525 19.0957C97.1733 19.047 96.8008 18.9179 96.5294 18.7101C96.2598 18.5024 96.0727 18.2478 95.9678 17.9464C95.863 17.6469 95.8368 17.3418 95.8855 17.0367C95.9341 16.7297 96.0483 16.4546 96.2261 16.2094C96.404 15.9642 96.6342 15.7864 96.9168 15.6759L96.9093 15.674ZM99.6684 10.4667C100.724 10.4667 101.559 10.5659 102.178 10.7606C102.798 10.9571 103.245 11.2641 103.522 11.6796C103.798 12.097 103.936 12.6548 103.936 13.353C103.936 14.0512 103.801 14.5772 103.532 15.0002C103.262 15.4232 102.811 15.7339 102.18 15.9286C101.55 16.1252 100.705 16.2225 99.6516 16.2225C98.5977 16.2225 97.7535 16.1252 97.1209 15.9286C96.4901 15.7321 96.0352 15.427 95.7601 15.0096C95.4849 14.5921 95.3464 14.04 95.3464 13.353C95.3464 12.6661 95.4849 12.112 95.7601 11.689C96.0371 11.2659 96.4938 10.9552 97.1321 10.7606C97.7704 10.564 98.6164 10.4667 99.6703 10.4667H99.6684ZM99.6497 12.1419C98.974 12.1419 98.5079 12.2318 98.2514 12.4096C97.995 12.5874 97.8658 12.9038 97.8658 13.3567C97.8658 13.8097 97.995 14.1298 98.2514 14.3132C98.5098 14.4967 98.9758 14.5903 99.6497 14.5903C100.324 14.5903 100.784 14.4985 101.029 14.3132C101.274 14.1298 101.396 13.8116 101.396 13.3567C101.396 12.9019 101.274 12.5874 101.029 12.4096C100.784 12.2318 100.324 12.1419 99.6497 12.1419ZM104.984 10.7063L104.838 11.8649L102.411 12.1775L101.748 10.7063H104.986H104.984Z" fill="white"/>
  <path d="M108.239 10.7063L109.969 16.5931C110.018 16.8271 110.066 17.0592 110.115 17.2932C110.164 17.5271 110.207 17.7592 110.244 17.9913H110.742L109.877 19.7939H109.215C109.005 19.7939 108.822 19.7321 108.662 19.6105C108.503 19.4888 108.393 19.3278 108.331 19.1313L105.333 10.7063H108.239ZM115.452 10.7063L112.196 19.9043C112.049 20.3573 111.845 20.814 111.579 21.2745C111.315 21.735 110.985 22.1486 110.587 22.5155C110.188 22.8824 109.711 23.1613 109.151 23.3522C108.593 23.5431 107.934 23.588 107.174 23.4907L106.972 21.9446C107.721 21.7481 108.303 21.4841 108.72 21.1528C109.138 20.8215 109.462 20.3854 109.696 19.8463L110.265 18.5772C110.375 18.3077 110.484 17.9801 110.587 17.5926C110.691 17.2071 110.779 16.872 110.854 16.5894L112.546 10.7025H115.453L115.452 10.7063Z" fill="white"/>
  <path d="M123.289 7.1012V19.7939H120.474V7.1012H123.289ZM127.998 11.9754V14.0905H123.143V11.9754H127.998ZM130.611 7.1012V19.7939H127.796V7.1012H130.611Z" fill="white"/>
  <path d="M135.669 10.7063V16.6849C135.669 17.0649 135.751 17.3344 135.918 17.4935C136.083 17.6526 136.35 17.7331 136.719 17.7331C137.088 17.7331 137.475 17.662 137.85 17.5216C138.224 17.3812 138.686 17.1566 139.238 16.8496L139.459 18.3396C138.797 18.9161 138.147 19.3447 137.509 19.6274C136.871 19.91 136.215 20.0504 135.542 20.0504C133.812 20.0504 132.947 19.2044 132.947 17.5122V10.7045H135.671L135.669 10.7063ZM141.683 10.7063V19.794H139.53L139.218 18.0101L138.961 17.7518V10.7063H141.683Z" fill="white"/>
  <path d="M146.615 6.91772L146.634 9.86208C146.634 10.2795 146.612 10.6801 146.57 11.0675C146.527 11.4531 146.451 11.8312 146.34 12.1981L146.597 12.4377L146.615 19.4289L143.892 19.2997V6.91959H146.615V6.91772ZM149.633 10.4685C150.834 10.4685 151.695 10.8336 152.218 11.5636C152.74 12.2936 153 13.499 153 15.178C153 15.8762 152.936 16.522 152.805 17.1097C152.676 17.6975 152.45 18.2104 152.126 18.6465C151.802 19.0826 151.349 19.4195 150.774 19.6591C150.198 19.8987 149.449 20.0185 148.53 20.0185C148.212 20.0185 147.843 20.0035 147.426 19.9736C147.008 19.9418 146.583 19.9006 146.147 19.8444C145.711 19.7902 145.298 19.7153 144.906 19.6236C144.513 19.5318 144.176 19.4252 143.894 19.3016L146.063 17.7387C146.295 17.8117 146.553 17.8772 146.836 17.9314C147.117 17.9857 147.405 18.0232 147.701 18.0419C147.995 18.0606 148.253 18.0625 148.474 18.0512C148.891 18.04 149.226 17.9502 149.477 17.7836C149.728 17.6189 149.91 17.3306 150.02 16.9188C150.131 16.5089 150.185 15.9342 150.185 15.1986C150.185 14.5248 150.138 14.0006 150.046 13.6263C149.955 13.2519 149.79 12.988 149.55 12.8364C149.311 12.6829 148.977 12.6061 148.547 12.6061C148.143 12.6061 147.774 12.6923 147.443 12.8645C147.111 13.0367 146.744 13.2632 146.34 13.5458L146.138 12.258C146.456 11.9155 146.801 11.6085 147.169 11.3389C147.536 11.0694 147.929 10.8579 148.347 10.7044C148.764 10.5509 149.193 10.4742 149.634 10.4742L149.633 10.4685Z" fill="white"/>
  <path d="M63.0315 26.1506C63.2636 26.1506 63.4695 26.218 63.6473 26.3528C63.8251 26.4876 63.9449 26.6654 64.0067 26.8863L67.6867 38.8434H64.8172L62.2229 29.5161C62.1742 29.3084 62.1255 29.0969 62.0769 28.8816C62.0263 28.6663 61.9851 28.4623 61.9477 28.2658H61.4498C61.4142 28.4623 61.3731 28.6682 61.33 28.8816C61.287 29.0969 61.2346 29.3084 61.1728 29.5161L58.5803 38.8434H55.6921L59.3908 26.8863C59.4507 26.6654 59.5724 26.4876 59.7483 26.3528C59.9262 26.218 60.1321 26.1506 60.366 26.1506H63.0334H63.0315ZM64.9819 33.3796V35.4947H58.3969V33.3796H64.9819Z" fill="white"/>
  <path d="M71.5482 25.9653L71.5295 35.9365C71.5295 36.2434 71.6212 36.4737 71.8065 36.6271C71.99 36.7806 72.2595 36.8574 72.617 36.8574H73.3526L73.6652 38.6974C73.5192 38.7704 73.3096 38.8359 73.04 38.8902C72.7705 38.9445 72.4935 38.9875 72.2127 39.0193C71.9301 39.0493 71.6905 39.0642 71.4958 39.0642C70.6741 39.0642 70.0246 38.849 69.5454 38.4203C69.0662 37.9917 68.8285 37.3909 68.8285 36.6178V25.9672H71.5501L71.5482 25.9653Z" fill="white"/>
  <path d="M77.5829 25.9653L77.5642 35.9365C77.5642 36.2434 77.6559 36.4737 77.8394 36.6271C78.0228 36.7806 78.2942 36.8574 78.6499 36.8574H79.3855L79.6981 38.6974C79.5521 38.7704 79.3424 38.8359 79.0729 38.8902C78.8034 38.9445 78.5282 38.9875 78.2455 39.0193C77.9629 39.0493 77.7233 39.0642 77.5286 39.0642C76.7069 39.0642 76.0574 38.849 75.5782 38.4203C75.1009 37.9917 74.8613 37.3909 74.8613 36.6178V25.9672H77.5848L77.5829 25.9653Z" fill="white"/>
  <path d="M82.8989 25.7444C83.4379 25.7444 83.7075 26.0214 83.7075 26.5717V27.5469C83.7075 28.0991 83.4379 28.3743 82.8989 28.3743H81.7215C81.1805 28.3743 80.911 28.0991 80.911 27.5469V26.5717C80.911 26.0195 81.1805 25.7444 81.7215 25.7444H82.8989ZM83.6532 29.7557V38.8433H80.9484V29.7557H83.6532Z" fill="white"/>
  <path d="M93.1826 33.2504L93.1639 34.7778L89.1152 34.7965C88.7838 34.7965 88.548 34.877 88.4076 35.0361C88.2672 35.1952 88.1961 35.4105 88.1961 35.68V36.1218C88.1961 36.4288 88.2803 36.6646 88.4525 36.8293C88.6247 36.994 88.8999 37.0783 89.2799 37.0783C89.5981 37.0783 89.9462 37.0109 90.3187 36.8761C90.6931 36.7413 91.0637 36.5504 91.4325 36.3052C91.8012 36.06 92.1269 35.7717 92.4077 35.4404V36.6178C92.2972 36.8012 92.1344 37.0315 91.921 37.3085C91.7057 37.5855 91.4343 37.8551 91.103 38.119C90.7717 38.3829 90.3861 38.6057 89.9444 38.791C89.5026 38.9744 88.9991 39.0661 88.4357 39.0661C87.8723 39.0661 87.3875 38.9688 86.9457 38.7723C86.504 38.5757 86.1558 38.2875 85.8975 37.9075C85.6411 37.5275 85.51 37.0558 85.51 36.4905V35.5527C85.51 34.8284 85.7553 34.2649 86.2457 33.8606C86.7361 33.4563 87.4099 33.2542 88.2691 33.2542H93.1826V33.2504ZM90.7548 29.5162C91.5148 29.5162 92.1587 29.6172 92.6866 29.8194C93.2144 30.0215 93.615 30.366 93.892 30.8489C94.169 31.3337 94.3057 31.9982 94.3057 32.8442V38.8415H92.1362L91.7488 36.8724L91.5653 36.5953V32.8236C91.5653 32.395 91.4643 32.0824 91.2602 31.8859C91.0581 31.6893 90.6744 31.592 90.1109 31.592C89.6449 31.592 89.0627 31.607 88.3627 31.6388C87.6645 31.6687 86.9457 31.7099 86.2101 31.7586L85.9537 29.956C86.3954 29.8699 86.9027 29.7969 87.4792 29.7352C88.0557 29.6734 88.6322 29.621 89.2087 29.5779C89.7853 29.5349 90.3019 29.5143 90.7548 29.5143V29.5162Z" fill="white"/>
  <path d="M98.6277 29.7557L98.9403 31.5583L99.1612 31.7978V38.8433H96.4377V29.7557H98.6277ZM102.766 29.5161C104.483 29.5161 105.342 30.3566 105.342 32.0356V38.8433H102.618V32.8835C102.618 32.4792 102.545 32.2003 102.398 32.0468C102.252 31.8933 101.999 31.8166 101.643 31.8166C101.25 31.8166 100.846 31.8933 100.43 32.0468C100.013 32.2003 99.4981 32.4361 98.8841 32.7543L98.755 31.2269C99.4045 30.6748 100.071 30.2517 100.75 29.9579C101.432 29.664 102.104 29.5161 102.766 29.5161Z" fill="white"/>
  <path d="M111.727 29.5162C112.058 29.5162 112.419 29.5311 112.812 29.563C113.205 29.5948 113.6 29.6491 113.999 29.7277C114.398 29.8082 114.763 29.9205 115.094 30.0683L114.8 31.7792C114.31 31.7679 113.84 31.7548 113.392 31.7417C112.945 31.7305 112.545 31.723 112.187 31.723C111.635 31.723 111.201 31.796 110.881 31.9439C110.562 32.0918 110.332 32.352 110.19 32.7263C110.049 33.1007 109.978 33.6192 109.978 34.2818C109.978 34.9444 110.049 35.4835 110.19 35.8635C110.33 36.2434 110.56 36.5074 110.881 36.6534C111.199 36.8012 111.635 36.8742 112.187 36.8742C112.384 36.8742 112.634 36.8686 112.941 36.8555C113.248 36.8443 113.58 36.8274 113.935 36.8087C114.291 36.79 114.639 36.7563 114.984 36.7076L115.24 38.4372C114.75 38.6581 114.192 38.8172 113.565 38.9164C112.94 39.0137 112.32 39.0643 111.708 39.0643C110.579 39.0643 109.681 38.907 109.012 38.5944C108.342 38.2818 107.863 37.7765 107.569 37.0764C107.275 36.3782 107.128 35.446 107.128 34.2799C107.128 33.1138 107.277 32.1835 107.577 31.4834C107.878 30.7834 108.365 30.2817 109.041 29.9748C109.714 29.6678 110.609 29.5143 111.727 29.5143V29.5162Z" fill="white"/>
  <path d="M121.054 29.5161C122.587 29.5161 123.687 29.7763 124.356 30.2985C125.024 30.8208 125.359 31.5957 125.359 32.6252C125.37 33.46 125.162 34.0815 124.734 34.4933C124.305 34.9051 123.562 35.1091 122.508 35.1091H117.43V33.5817H121.754C122.171 33.5817 122.437 33.4937 122.555 33.314C122.671 33.1362 122.729 32.8872 122.729 32.569C122.718 32.1404 122.591 31.8428 122.353 31.6762C122.113 31.5115 121.711 31.4272 121.147 31.4272C120.644 31.4272 120.253 31.4946 119.97 31.6294C119.687 31.7642 119.491 32.0225 119.38 32.4024C119.27 32.7824 119.216 33.3346 119.216 34.059C119.216 34.819 119.283 35.4048 119.418 35.8166C119.553 36.2284 119.783 36.5129 120.109 36.672C120.434 36.8312 120.883 36.9116 121.46 36.9116C121.877 36.9116 122.394 36.8967 123.014 36.8648C123.633 36.8349 124.255 36.7825 124.882 36.7095L125.14 38.3829C124.784 38.5551 124.378 38.6899 123.925 38.7872C123.472 38.8845 123.006 38.9557 122.527 38.9987C122.05 39.0418 121.589 39.0623 121.147 39.0623C119.994 39.0623 119.066 38.8939 118.36 38.557C117.656 38.22 117.147 37.7015 116.835 37.0034C116.522 36.3033 116.365 35.4086 116.365 34.3173C116.365 33.1287 116.524 32.1834 116.844 31.4853C117.162 30.7852 117.666 30.2836 118.353 29.9766C119.04 29.6696 119.942 29.5161 121.056 29.5161H121.054Z" fill="white"/>
  <path d="M20.2176 23.1781C20.2494 23.0059 20.0903 22.8637 19.9218 22.9142C17.6813 23.5974 15.306 23.968 12.8427 23.968C8.48322 23.968 4.37647 22.8955 0.840622 20.8833L0.101257 24.1215C-0.172027 25.3195 0.114359 26.5755 0.881801 27.5376L10.9634 40.1798C11.7289 41.14 12.8913 41.6997 14.1192 41.6997H14.8811L16.1127 38.8283C17.2583 36.1573 18.6322 31.6331 19.1675 28.7749L20.2195 23.1781H20.2176Z" fill="#871FFF"/>
  <path d="M22.2934 9.84338C23.585 7.3988 24.8728 4.72585 25.9996 1.9537C26.0764 1.76652 25.9921 1.54939 25.8087 1.46329L23.6561 0.433792C22.4488 -0.144597 21.0468 -0.144597 19.8414 0.433792C16.401 2.08847 9.17392 5.56255 5.58379 7.28836C4.3746 7.87049 3.50047 8.96924 3.20098 10.2776L1.08771 19.5393C4.64789 21.2258 8.60677 22.2011 12.7884 22.2797L22.2953 9.84525L22.2934 9.84338Z" fill="#871FFF"/>
  <path d="M43.8454 24.2169C43.8005 24.0204 43.7574 23.8276 43.7144 23.6423C43.7144 23.6423 43.7163 23.6423 43.7181 23.6423L43.6002 23.1013L43.0499 22.8543C39.6526 21.2445 35.8884 20.2918 31.9145 20.1401L22.1418 31.9906C20.7492 34.5849 19.3509 37.4506 18.1361 40.4399C18.0949 40.5429 17.8198 41.1774 17.7992 41.7914C18.9934 41.7914 21.8311 41.7914 24.6444 41.7914H29.8293C31.0572 41.7914 32.2196 41.2317 32.9852 40.2714L36.2047 36.234L41.5131 29.5759L43.0649 27.6292C43.8304 26.669 44.1168 25.4111 43.8435 24.2132L43.8454 24.2169Z" fill="#871FFF"/>
  <path d="M24.0735 19.369C24.0623 19.4252 24.0772 19.4738 24.1016 19.5169C24.1502 19.6086 24.2569 19.6666 24.3711 19.6329C25.1535 19.3952 25.9584 19.2099 26.7708 19.0489C28.2869 18.7513 29.848 18.5791 31.4503 18.5791C35.6375 18.5791 39.5665 19.6535 43.005 21.5197C43.0349 21.5029 43.0574 21.4748 43.048 21.4336L42.6662 19.7658L40.8468 11.7901L40.4612 10.0979C40.1916 8.91497 39.398 7.91916 38.3049 7.39318L36.74 6.63884L28.6295 2.73238L28.6108 2.72302L28.5658 2.8241L28.2327 3.6009L28.1821 3.71695C28.0867 3.9397 27.9893 4.17742 27.892 4.42262C26.8138 7.133 25.6177 11.1499 25.1273 13.7686L24.0754 19.3653L24.0735 19.369Z" fill="#871FFF"/>
</svg>