<svg width="155" height="93" viewBox="0 0 155 93" fill="none" xmlns="http://www.w3.org/2000/svg">
<path d="M2.74702 79.9315C2.88564 79.7871 3.09259 79.7148 3.36983 79.7148H7.76858L7.88377 77.8718C7.35272 77.8171 6.78262 77.778 6.17347 77.7566C5.56628 77.7351 4.94542 77.7214 4.31479 77.7156C3.68417 77.7097 3.0594 77.7078 2.43854 77.7078C1.70835 77.7078 1.11872 77.9186 0.671624 78.3384C0.224526 78.7582 0 79.3185 0 80.0155V86.9524C0 87.6377 0.224526 88.1941 0.671624 88.6197C1.12068 89.0453 1.7103 89.2581 2.43854 89.2581C3.0594 89.2581 3.68417 89.2562 4.31479 89.2503C4.94542 89.2445 5.56432 89.2288 6.17347 89.2015C6.78262 89.1742 7.35272 89.1371 7.88377 89.0941L7.76858 87.2511H3.36983C3.09259 87.2511 2.88564 87.1788 2.74702 87.0344C2.6084 86.8899 2.54007 86.681 2.54007 86.4037V84.1468H7.15553V82.3545H2.54007V80.5622C2.54007 80.2849 2.6084 80.076 2.74702 79.9315Z" fill="white"/>
<path d="M15.2347 80.7944C14.6372 80.7944 14.032 80.9272 13.417 81.1927C12.8391 81.4426 12.2709 81.7999 11.7165 82.2587L11.4997 81.0112H9.52393V89.2093H11.98V83.5903C12.4232 83.3677 12.8079 83.1939 13.1261 83.0768C13.5029 82.9382 13.8661 82.8698 14.2214 82.8698C14.5416 82.8698 14.77 82.9382 14.9008 83.0768C15.0336 83.2154 15.1 83.4673 15.1 83.8324V89.2093H17.5561V83.069C17.5561 81.5539 16.781 80.7944 15.2327 80.7944H15.2347Z" fill="white"/>
<path d="M26.7027 85.283C27.0893 84.912 27.2787 84.3517 27.267 83.5981C27.267 82.6687 26.9663 81.9698 26.363 81.4993C25.7597 81.0287 24.7679 80.7944 23.3856 80.7944C22.3782 80.7944 21.566 80.9331 20.9451 81.2103C20.3262 81.4875 19.8713 81.9405 19.5843 82.5711C19.2973 83.2017 19.1528 84.053 19.1528 85.1268C19.1528 86.1108 19.2934 86.9191 19.5745 87.5497C19.8576 88.1804 20.3165 88.647 20.9529 88.9515C21.5875 89.2561 22.427 89.4084 23.4676 89.4084C23.8659 89.4084 24.2798 89.3889 24.7133 89.3498C25.1447 89.3108 25.5645 89.2464 25.9745 89.1585C26.3845 89.0706 26.7496 88.9476 27.0698 88.7934L26.8375 87.2823C26.2732 87.3486 25.7109 87.3955 25.1525 87.4228C24.5942 87.4502 24.1256 87.4638 23.7507 87.4638C23.2294 87.4638 22.8233 87.3916 22.5305 87.2471C22.2376 87.1026 22.0287 86.8469 21.9077 86.4759C21.8491 86.3002 21.8061 86.0854 21.7768 85.8375H24.6957C25.6465 85.8375 26.3162 85.652 26.7047 85.281L26.7027 85.283ZM24.0143 84.461H21.7319C21.7495 84.0159 21.7964 83.6606 21.8725 83.3989C21.9721 83.0573 22.1498 82.823 22.4036 82.7019C22.6593 82.5809 23.0127 82.5204 23.4676 82.5204C23.9752 82.5204 24.3384 82.5946 24.5532 82.7449C24.7699 82.8933 24.8831 83.1627 24.8929 83.5493C24.8929 83.8363 24.8402 84.0608 24.7347 84.2209C24.6293 84.381 24.3892 84.461 24.0123 84.461H24.0143Z" fill="white"/>
<path d="M32.6441 81.1927C32.0955 81.4407 31.5527 81.7999 31.0138 82.2607L30.7835 81.0112H28.8584V89.2093H31.3145V83.6488C31.8436 83.4712 32.2946 83.3306 32.6597 83.2349C33.0795 83.1236 33.4836 83.069 33.8722 83.069H34.5516L34.7839 80.7944H34.3524C33.7999 80.7944 33.2298 80.9272 32.6421 81.1927H32.6441Z" fill="white"/>
<path d="M39.5653 80.7944C38.6145 80.7944 37.8511 80.8842 37.2751 81.06C36.6992 81.2376 36.2872 81.5168 36.0373 81.8975C35.7894 82.2783 35.6644 82.78 35.6644 83.3989C35.6644 84.0178 35.7894 84.5177 36.0373 84.8925C36.2306 85.1834 36.5215 85.4138 36.9061 85.5856C36.7304 85.6832 36.5742 85.8043 36.4532 85.9722C36.2931 86.1928 36.1896 86.4427 36.1467 86.718C36.1037 86.9952 36.1271 87.2686 36.2209 87.54C36.3009 87.7703 36.4454 87.9636 36.6328 88.1335C36.4337 88.2213 36.2638 88.3151 36.1213 88.4107C35.8284 88.6099 35.6215 88.8344 35.4985 89.0823C35.3774 89.3303 35.3149 89.6271 35.3149 89.9707C35.3149 90.4236 35.3774 90.8024 35.5063 91.107C35.6332 91.4116 35.8616 91.6576 36.1857 91.845C36.5118 92.0324 36.955 92.1691 37.5133 92.2511C38.0717 92.335 38.7824 92.376 39.6454 92.376C40.6957 92.376 41.5372 92.3038 42.1678 92.1593C42.7985 92.0148 43.2573 91.7532 43.5443 91.3706C43.8313 90.9898 43.9758 90.4432 43.9758 89.7364C43.9758 88.9847 43.7981 88.4107 43.4447 88.0183C43.0894 87.6259 42.4822 87.3857 41.6192 87.2959L38.5989 86.9484C38.3002 86.9152 38.1069 86.8156 38.019 86.6497C37.9312 86.4837 37.9155 86.308 37.978 86.1186C38.0053 86.0327 38.0463 85.9585 38.0932 85.8941C38.5169 85.9527 38.9952 85.9858 39.5458 85.9858C40.4966 85.9858 41.258 85.898 41.8281 85.7203C42.3982 85.5446 42.8043 85.2635 43.0484 84.8827C43.2924 84.5001 43.4135 84.0061 43.4135 83.397C43.4135 82.9206 43.3412 82.5164 43.1987 82.1845L44.2257 82.0518L44.3584 81.0053H41.6309C41.094 80.8647 40.4107 80.7886 39.5614 80.7886L39.5653 80.7944ZM41.1155 89.0003C41.3088 89.0492 41.4474 89.1253 41.5314 89.2249C41.6153 89.3244 41.6563 89.4787 41.6563 89.6895C41.6563 89.9336 41.5978 90.121 41.4806 90.2538C41.3654 90.3865 41.1565 90.4783 40.8578 90.5271C40.5591 90.5759 40.1452 90.6013 39.6122 90.6013C39.0792 90.6013 38.7023 90.5759 38.4095 90.5271C38.1166 90.4783 37.9136 90.3826 37.8042 90.244C37.6949 90.1054 37.6383 89.9102 37.6383 89.6544C37.6383 89.4338 37.6734 89.2561 37.7457 89.1233C37.8179 88.9906 37.939 88.8559 38.1108 88.7172C38.144 88.6899 38.1869 88.6587 38.224 88.6294L40.3111 88.8578C40.6528 88.9027 40.9222 88.9496 41.1155 88.9984V89.0003ZM40.7934 84.2619C40.5708 84.4278 40.1569 84.5118 39.5477 84.5118C38.9386 84.5118 38.5188 84.4278 38.2865 84.2619C38.0542 84.0959 37.939 83.8089 37.939 83.3989C37.939 82.9889 38.0542 82.7058 38.2865 82.5438C38.5188 82.3837 38.9386 82.3036 39.5477 82.3036C40.1569 82.3036 40.5708 82.3837 40.7934 82.5438C41.014 82.7039 41.1253 82.9889 41.1253 83.3989C41.1253 83.8089 41.014 84.0959 40.7934 84.2619Z" fill="white"/>
<path d="M49.6554 86.3217C49.589 86.5775 49.5089 86.8782 49.4152 87.2257C49.3801 87.3546 49.3449 87.4678 49.3098 87.583H49.1087C49.0755 87.3721 49.0365 87.1632 48.9935 86.9524C48.9486 86.7415 48.9056 86.5326 48.8607 86.3217L47.3008 81.0112H44.6787L47.3828 88.6119C47.4394 88.7896 47.539 88.9321 47.6815 89.0434C47.826 89.1547 47.9919 89.2093 48.1794 89.2093H48.6323L48.6108 89.2581C48.4 89.7443 48.1071 90.1387 47.7323 90.4354C47.3554 90.7342 46.8302 90.9724 46.1547 91.15L46.3382 92.544C47.0235 92.6319 47.619 92.5909 48.1227 92.4191C48.6265 92.2473 49.0579 91.9954 49.4172 91.6635C49.7764 91.3316 50.0751 90.9587 50.3133 90.5428C50.5515 90.127 50.737 89.715 50.8698 89.307L53.8062 81.0093H51.1841L49.6573 86.3198L49.6554 86.3217Z" fill="white"/>
<path d="M64.9384 82.1553H60.8736V77.7585H58.3335V89.2093H60.8736V84.0648H64.9384V89.2093H67.4785V77.7585H64.9384V82.1553Z" fill="white"/>
<path d="M75.0131 86.6829C74.6285 86.8879 74.2849 87.0539 74.0096 87.1593C73.6718 87.2862 73.3321 87.3507 72.9885 87.3507C72.6449 87.3507 72.4145 87.2784 72.2661 87.1339C72.1158 86.9895 72.0416 86.7474 72.0416 86.4037V81.0093H69.5854V87.1496C69.5854 88.6763 70.3645 89.4397 71.9264 89.4397C72.5336 89.4397 73.1271 89.3128 73.7011 89.057C74.2302 88.8228 74.7691 88.4713 75.3177 88.0125L75.5266 89.2074H77.4673V81.0093H75.0112V86.6829H75.0131Z" fill="white"/>
<path d="M84.6382 80.7945C84.2399 80.7945 83.8533 80.8647 83.4765 81.0014C83.0997 81.14 82.7463 81.3314 82.4144 81.5735C82.1665 81.755 81.9341 81.962 81.7096 82.1826C81.7838 81.9054 81.8424 81.6223 81.8736 81.3333C81.9127 80.9838 81.9322 80.6226 81.9322 80.2458L81.9166 77.5906H79.4604V88.7602C79.7162 88.8715 80.0188 88.9672 80.3742 89.0511C80.7276 89.1351 81.1024 89.2015 81.4948 89.2503C81.8873 89.2991 82.2719 89.3381 82.6468 89.3674C83.0236 89.3948 83.3555 89.4084 83.6425 89.4084C84.4723 89.4084 85.1458 89.301 85.6671 89.0843C86.1865 88.8676 86.5945 88.565 86.8874 88.1726C87.1802 87.7801 87.3852 87.3174 87.5004 86.7864C87.6176 86.2553 87.6761 85.6735 87.6761 85.0429C87.6761 83.5278 87.4418 82.4403 86.9713 81.7824C86.5008 81.1244 85.7237 80.7945 84.6402 80.7945H84.6382ZM84.9877 86.6106C84.8881 86.9816 84.7241 87.2413 84.4976 87.3916C84.2712 87.5419 83.9685 87.622 83.5937 87.6317C83.3945 87.6435 83.1622 87.6396 82.8967 87.6239C82.6311 87.6064 82.3715 87.5751 82.1177 87.5244C82.0474 87.5107 81.9829 87.4951 81.9146 87.4795L81.9029 83.4126C82.1743 83.233 82.432 83.0729 82.6643 82.9538C82.963 82.7996 83.2949 82.7215 83.66 82.7215C84.0466 82.7215 84.3492 82.7898 84.564 82.9284C84.7788 83.067 84.9291 83.3052 85.0111 83.641C85.0951 83.9788 85.1361 84.4513 85.1361 85.0604C85.1361 85.7243 85.0872 86.2416 84.9877 86.6126V86.6106Z" fill="white"/>
<path d="M98.719 77.9401C98.5589 77.8191 98.3734 77.7585 98.1626 77.7585H95.7572C95.5464 77.7585 95.3609 77.8191 95.2008 77.9401C95.0407 78.0612 94.9333 78.2232 94.8786 78.4204L91.542 89.2074H94.1465L94.986 86.187H98.9318L99.7713 89.2074H102.36L99.0411 78.4204C98.9845 78.2213 98.8791 78.0612 98.717 77.9401H98.719ZM95.5171 84.2795L96.4855 80.7945C96.5421 80.6071 96.5889 80.4158 96.626 80.2225C96.6651 80.0292 96.7022 79.8437 96.7334 79.666H97.1825C97.2157 79.8437 97.2528 80.0292 97.2977 80.2225C97.3406 80.4158 97.3855 80.6071 97.4304 80.7945L98.4008 84.2795H95.5151H95.5171Z" fill="white"/>
<path d="M106.812 87.417C106.49 87.417 106.247 87.3486 106.082 87.21C105.916 87.0714 105.832 86.8645 105.832 86.5872L105.847 77.5925H103.391V87.2022C103.391 87.8992 103.606 88.442 104.039 88.8286C104.471 89.2151 105.057 89.4084 105.798 89.4084C105.976 89.4084 106.191 89.3948 106.447 89.3674C106.7 89.3401 106.95 89.301 107.194 89.2503C107.436 89.2015 107.626 89.1429 107.759 89.0765L107.476 87.417H106.814H106.812Z" fill="white"/>
<path d="M112.253 87.417C111.933 87.417 111.689 87.3486 111.523 87.21C111.357 87.0714 111.275 86.8645 111.275 86.5872L111.291 77.5925H108.834V87.2022C108.834 87.8992 109.051 88.442 109.483 88.8286C109.914 89.2151 110.502 89.4084 111.242 89.4084C111.419 89.4084 111.634 89.3948 111.89 89.3674C112.146 89.3401 112.394 89.301 112.638 89.2503C112.88 89.2015 113.069 89.1429 113.202 89.0765L112.919 87.417H112.255H112.253Z" fill="white"/>
<path d="M116.087 77.3914H115.025C114.537 77.3914 114.295 77.6413 114.295 78.1372V79.0177C114.295 79.5156 114.537 79.7635 115.025 79.7635H116.087C116.574 79.7635 116.818 79.5156 116.818 79.0177V78.1372C116.818 77.6393 116.576 77.3914 116.087 77.3914Z" fill="white"/>
<path d="M116.769 81.0093H114.328V89.2074H116.769V81.0093Z" fill="white"/>
<path d="M124.916 81.0678C124.44 80.8842 123.86 80.7944 123.175 80.7944C122.765 80.7944 122.3 80.814 121.781 80.853C121.261 80.8921 120.74 80.9389 120.221 80.9936C119.699 81.0482 119.243 81.1146 118.844 81.1927L119.077 82.8191C119.74 82.7742 120.389 82.739 121.017 82.7117C121.648 82.6844 122.173 82.6707 122.595 82.6707C123.103 82.6707 123.45 82.7585 123.632 82.9362C123.815 83.1139 123.907 83.395 123.907 83.7816V84.1643H120.935C120.16 84.1643 119.553 84.3478 119.11 84.7129C118.669 85.078 118.446 85.5876 118.446 86.2397V87.0851C118.446 87.5946 118.563 88.0203 118.796 88.3639C119.028 88.7075 119.344 88.9672 119.742 89.1429C120.141 89.3205 120.59 89.4084 121.088 89.4084C121.585 89.4084 122.05 89.3264 122.448 89.1605C122.847 88.9945 123.196 88.7934 123.495 88.5552C123.764 88.3404 123.983 88.1218 124.167 87.8992L124.424 89.2112H126.383V83.8011C126.383 83.0377 126.26 82.4383 126.01 82.001C125.76 81.5637 125.399 81.2552 124.922 81.0717L124.916 81.0678ZM123.788 86.9172C123.456 87.1378 123.122 87.3096 122.784 87.4326C122.446 87.5536 122.134 87.6141 121.847 87.6141C121.503 87.6141 121.256 87.54 121.099 87.3896C120.943 87.2393 120.867 87.0265 120.867 86.7512V86.3529C120.867 86.1089 120.929 85.9156 121.056 85.7711C121.183 85.6266 121.396 85.5544 121.695 85.5544L123.903 85.5446V86.8254C123.862 86.8547 123.827 86.8879 123.786 86.9152L123.788 86.9172Z" fill="white"/>
<path d="M134.011 80.7944C133.413 80.7944 132.808 80.9272 132.193 81.1927C131.615 81.4426 131.047 81.7999 130.492 82.2587L130.276 81.0112H128.3V89.2093H130.756V83.5903C131.199 83.3677 131.584 83.1939 131.902 83.0768C132.279 82.9382 132.642 82.8698 132.997 82.8698C133.317 82.8698 133.546 82.9382 133.677 83.0768C133.809 83.2154 133.876 83.4673 133.876 83.8324V89.2093H136.332V83.069C136.332 81.5539 135.557 80.7944 134.009 80.7944H134.011Z" fill="white"/>
<path d="M144.085 87.374C143.763 87.3916 143.464 87.4052 143.189 87.415C142.911 87.4267 142.685 87.4326 142.509 87.4326C142.011 87.4326 141.619 87.3662 141.332 87.2334C141.045 87.1007 140.836 86.8625 140.709 86.5208C140.582 86.1791 140.52 85.7028 140.52 85.0936C140.52 84.4845 140.582 84.0296 140.709 83.6918C140.836 83.354 141.043 83.1197 141.332 82.987C141.621 82.8542 142.011 82.7878 142.509 82.7878C142.831 82.7878 143.193 82.7937 143.597 82.8035C144.001 82.8152 144.425 82.8249 144.866 82.8366L145.131 81.2923C144.833 81.1595 144.503 81.058 144.143 80.9858C143.784 80.9135 143.427 80.8647 143.074 80.8374C142.718 80.8101 142.394 80.7964 142.095 80.7964C141.088 80.7964 140.282 80.935 139.672 81.2122C139.063 81.4895 138.624 81.9424 138.353 82.5731C138.081 83.2037 137.947 84.0452 137.947 85.0956C137.947 86.146 138.079 86.9874 138.345 87.6181C138.61 88.2487 139.044 88.7055 139.647 88.9867C140.25 89.2678 141.061 89.4104 142.078 89.4104C142.63 89.4104 143.189 89.3654 143.753 89.2776C144.317 89.1897 144.821 89.0453 145.264 88.8461L145.032 87.2861C144.721 87.3311 144.407 87.3603 144.085 87.3779V87.374Z" fill="white"/>
<path d="M152.275 87.4248C151.717 87.4521 151.25 87.4658 150.873 87.4658C150.352 87.4658 149.946 87.3935 149.653 87.2491C149.36 87.1046 149.151 86.8488 149.03 86.4779C148.972 86.3021 148.929 86.0874 148.897 85.8394H151.816C152.767 85.8394 153.437 85.654 153.825 85.283C154.212 84.912 154.401 84.3517 154.39 83.5981C154.39 82.6687 154.087 81.9698 153.486 81.4993C152.882 81.0287 151.89 80.7944 150.506 80.7944C149.501 80.7944 148.687 80.9331 148.068 81.2103C147.447 81.4875 146.994 81.9405 146.707 82.5711C146.418 83.2017 146.275 84.053 146.275 85.1268C146.275 86.1108 146.416 86.9191 146.699 87.5497C146.982 88.1804 147.441 88.647 148.075 88.9515C148.712 89.2561 149.55 89.4084 150.59 89.4084C150.988 89.4084 151.404 89.3889 151.836 89.3498C152.267 89.3108 152.687 89.2464 153.097 89.1585C153.507 89.0706 153.872 88.9476 154.192 88.7934L153.96 87.2823C153.396 87.3486 152.835 87.3955 152.275 87.4228V87.4248ZM149.528 82.7039C149.784 82.5828 150.135 82.5223 150.59 82.5223C151.098 82.5223 151.461 82.5965 151.678 82.7468C151.894 82.8972 152.008 83.1646 152.017 83.5512C152.017 83.8382 151.965 84.0627 151.859 84.2228C151.754 84.3829 151.514 84.463 151.137 84.463H148.855C148.872 84.0178 148.919 83.6625 148.995 83.4009C149.095 83.0592 149.272 82.8249 149.526 82.7039H149.528Z" fill="white"/>
<path d="M74.806 32.5452C74.8509 32.309 74.6322 32.1157 74.4019 32.186C71.3522 33.1153 68.119 33.621 64.7668 33.621C58.8335 33.621 53.2457 32.1625 48.433 29.4233L47.4276 33.8299C47.0547 35.4601 47.4471 37.1704 48.4877 38.4785L62.2091 55.685C63.2517 56.9931 64.8332 57.7545 66.5044 57.7545H67.5411L69.2163 53.8458C70.7743 50.2085 72.6447 44.0526 73.3729 40.1635L74.806 32.5472V32.5452Z" fill="#871FFF"/>
<path d="M77.6313 14.3976C79.3904 11.0707 81.1417 7.43339 82.6763 3.65941C82.7798 3.40364 82.6665 3.11079 82.4166 2.99169L79.4861 1.58987C77.8422 0.803051 75.9347 0.803053 74.2927 1.59182C69.6089 3.84293 59.7727 8.57163 54.8898 10.9204C53.2439 11.713 52.053 13.2086 51.6469 14.9892L48.769 27.5958C53.6129 29.8918 59.0015 31.2175 64.6928 31.3248L77.6313 14.4015V14.3976Z" fill="#871FFF"/>
<path d="M92.1842 55.8137L96.5673 50.3177L103.793 41.2567L105.906 38.6073C106.948 37.2992 107.339 35.5889 106.966 33.9586C106.905 33.6911 106.845 33.4295 106.786 33.1757C106.786 33.1757 106.79 33.1757 106.79 33.1777L106.628 32.4416L105.88 32.1058C101.255 29.9152 96.1319 28.6188 90.7257 28.4119L77.426 44.5406C75.5302 48.0725 73.6267 51.9734 71.973 56.0402C71.9164 56.1808 71.5415 57.0437 71.5142 57.8794C73.1386 57.8794 77.0023 57.8794 80.831 57.8794H87.8889C89.5602 57.8794 91.1416 57.1179 92.1842 55.8098V55.8137Z" fill="#871FFF"/>
<path d="M80.0542 27.3616C80.0406 27.4378 80.0601 27.5042 80.0913 27.5627C80.1577 27.6877 80.3022 27.7677 80.4584 27.7189C81.5224 27.3948 82.6177 27.141 83.7247 26.9243C85.7884 26.5182 87.9126 26.2839 90.0934 26.2839C95.7905 26.2839 101.14 27.7463 105.818 30.2863C105.859 30.2649 105.89 30.2239 105.879 30.1692L105.357 27.9005L102.88 17.0452L102.354 14.7414C101.987 13.1306 100.906 11.7757 99.4181 11.0591L97.288 10.0341L86.2492 4.71777L86.2238 4.70605L86.1633 4.84467L85.7103 5.90092L85.642 6.05906C85.5131 6.36168 85.3804 6.68578 85.2476 7.01964C83.7794 10.7077 82.1531 16.1744 81.4853 19.7414L80.0523 27.3597L80.0542 27.3616Z" fill="#871FFF"/>
</svg>
