<svg width="49" height="48" viewBox="0 0 49 48" fill="none" xmlns="http://www.w3.org/2000/svg">
<g clip-path="url(#clip0_572_8620)">
<path d="M6.5 24C6.5 26.3638 6.96558 28.7044 7.87017 30.8883C8.77475 33.0722 10.1006 35.0565 11.7721 36.7279C13.4435 38.3994 15.4278 39.7252 17.6117 40.6298C19.7956 41.5344 22.1362 42 24.5 42C26.8638 42 29.2044 41.5344 31.3883 40.6298C33.5722 39.7252 35.5565 38.3994 37.2279 36.7279C38.8994 35.0565 40.2252 33.0722 41.1298 30.8883C42.0344 28.7044 42.5 26.3638 42.5 24C42.5 21.6362 42.0344 19.2956 41.1298 17.1117C40.2252 14.9278 38.8994 12.9435 37.2279 11.2721C35.5565 9.60062 33.5722 8.27475 31.3883 7.37017C29.2044 6.46558 26.8638 6 24.5 6C22.1362 6 19.7956 6.46558 17.6117 7.37017C15.4278 8.27475 13.4435 9.60062 11.7721 11.2721C10.1006 12.9435 8.77475 14.9278 7.87017 17.1117C6.96558 19.2956 6.5 21.6362 6.5 24Z" stroke="#00FF7F" stroke-width="2" stroke-linecap="round" stroke-linejoin="round"/>
<path d="M18.5 24L22.5 28L30.5 20" stroke="#00FF7F" stroke-width="2" stroke-linecap="round" stroke-linejoin="round"/>
</g>
<defs>
<clipPath id="clip0_572_8620">
<rect width="48" height="48" fill="white" transform="translate(0.5)"/>
</clipPath>
</defs>
</svg>
