<svg width="49" height="48" viewBox="0 0 49 48" fill="none" xmlns="http://www.w3.org/2000/svg">
<path d="M24.5 30H34.5V32H24.5C19.44 32 15.208 35.708 15.166 35.746L13.834 34.254C14.028 34.08 18.662 30 24.5 30ZM48.5 24C48.5 37.234 37.734 48 24.5 48C11.266 48 0.5 37.234 0.5 24C0.5 10.766 11.266 0 24.5 0C37.734 0 48.5 10.766 48.5 24ZM46.5 24C46.5 11.87 36.63 2 24.5 2C12.37 2 2.5 11.87 2.5 24C2.5 36.13 12.37 46 24.5 46C36.63 46 46.5 36.13 46.5 24ZM16.5 22C17.604 22 18.5 21.104 18.5 20C18.5 18.896 17.604 18 16.5 18C15.396 18 14.5 18.896 14.5 20C14.5 21.104 15.396 22 16.5 22ZM32.5 18C31.396 18 30.5 18.896 30.5 20C30.5 21.104 31.396 22 32.5 22C33.604 22 34.5 21.104 34.5 20C34.5 18.896 33.604 18 32.5 18Z" fill="#00FF7F"/>
</svg>
