<svg xmlns="http://www.w3.org/2000/svg" width="42" height="42" viewBox="0 0 42 42" fill="none">
<circle cx="20" cy="20.3956" r="20" fill="#871FFF"/>
<g clip-path="url(#clip0_715_4935)">
<path d="M16 15.3956C16 16.4565 16.4214 17.4739 17.1716 18.2241C17.9217 18.9742 18.9391 19.3956 20 19.3956C21.0609 19.3956 22.0783 18.9742 22.8284 18.2241C23.5786 17.4739 24 16.4565 24 15.3956C24 14.3348 23.5786 13.3173 22.8284 12.5672C22.0783 11.8171 21.0609 11.3956 20 11.3956C18.9391 11.3956 17.9217 11.8171 17.1716 12.5672C16.4214 13.3173 16 14.3348 16 15.3956Z" stroke="white" stroke-linecap="round" stroke-linejoin="round"/>
<path d="M14 29.3956V27.3956C14 26.3348 14.4214 25.3173 15.1716 24.5672C15.9217 23.8171 16.9391 23.3956 18 23.3956H22C23.0609 23.3956 24.0783 23.8171 24.8284 24.5672C25.5786 25.3173 26 26.3348 26 27.3956V29.3956" stroke="white" stroke-linecap="round" stroke-linejoin="round"/>
</g>
<defs>
<clipPath id="clip0_715_4935">
<rect width="24" height="24" fill="white" transform="translate(8 8.39563)"/>
</clipPath>
</defs>
</svg>