<svg width="57" height="55" viewBox="0 0 57 55" fill="none" xmlns="http://www.w3.org/2000/svg">
<path d="M26.2239 30.064C26.2651 29.8406 26.0588 29.6561 25.8402 29.7217C22.9341 30.6078 19.8531 31.0886 16.658 31.0886C11.0034 31.0886 5.67664 29.6974 1.09036 27.0874L0.131338 31.2876C-0.223133 32.8415 0.148333 34.4706 1.14377 35.7185L14.2204 52.1165C15.2134 53.362 16.7211 54.088 18.3138 54.088H19.3019L20.8995 50.3636C22.3854 46.899 24.1674 41.0308 24.8618 37.3234L26.2263 30.064H26.2239Z" fill="#871FFF"/>
<path d="M28.9164 12.7677C30.5917 9.59684 32.2621 6.12981 33.7236 2.53411C33.8232 2.29132 33.7139 2.00968 33.476 1.898L30.6839 0.562663C29.1179 -0.187554 27.2995 -0.187554 25.7359 0.562663C21.2734 2.70892 11.8994 7.21508 7.24267 9.45359C5.67426 10.2087 4.54044 11.6338 4.15197 13.3309L1.41089 25.3441C6.02873 27.5316 11.1637 28.7966 16.5876 28.8986L28.9189 12.7701L28.9164 12.7677Z" fill="#871FFF"/>
<path d="M56.871 31.4115C56.8127 31.1565 56.7569 30.9065 56.701 30.6661C56.701 30.6661 56.7035 30.6661 56.7059 30.6661L56.5529 29.9645L55.8391 29.644C51.4325 27.556 46.55 26.3202 41.3956 26.1235L28.7196 41.4945C26.9133 44.8596 25.0996 48.5766 23.5239 52.454C23.4705 52.5875 23.1136 53.4106 23.0869 54.2069C24.6359 54.2069 28.3166 54.2069 31.9657 54.2069H38.691C40.2836 54.2069 41.7914 53.481 42.7844 52.2355L46.9603 46.9985L53.8458 38.3625L55.8586 35.8375C56.8516 34.592 57.223 32.9605 56.8686 31.4066L56.871 31.4115Z" fill="#871FFF"/>
<path d="M31.2254 25.1232C31.2108 25.196 31.2302 25.2592 31.2618 25.315C31.3249 25.434 31.4633 25.5092 31.6114 25.4655C32.6263 25.1572 33.6703 24.9168 34.724 24.708C36.6906 24.322 38.7154 24.0986 40.7937 24.0986C46.2249 24.0986 51.321 25.4922 55.781 27.9128C55.8199 27.891 55.849 27.8546 55.8369 27.8011L55.3416 25.6379L52.9817 15.2927L52.4815 13.0979C52.1319 11.5634 51.1025 10.2718 49.6846 9.58956L47.6549 8.61112L37.1349 3.54412L37.1106 3.53198L37.0523 3.66309L36.6201 4.67066L36.5546 4.82119C36.4308 5.11011 36.3045 5.41845 36.1783 5.7365C34.7798 9.25208 33.2284 14.4623 32.5923 17.859L31.2278 25.1183L31.2254 25.1232Z" fill="#871FFF"/>
</svg>
