<svg xmlns="http://www.w3.org/2000/svg" width="65" height="65" viewBox="0 0 65 65" fill="none">
  <path fill-rule="evenodd" clip-rule="evenodd" d="M52.124 21.6692H51.7537V43.0986C51.7537 46.765 48.7706 49.7481 45.1043 49.7481H39.3131L39.2257 49.9946C38.0349 53.3537 34.8258 55.765 31.0648 55.765H17.0254C12.2539 55.765 8.37027 51.8814 8.37027 47.1099V17.0254C8.37027 12.2539 12.2539 8.37027 17.0254 8.37027H31.0648C35.8363 8.37027 39.7199 12.2539 39.7199 17.0254V47.1099C39.7199 47.4343 39.7007 47.7557 39.6659 48.0723L39.6209 48.483H45.1043C48.0724 48.483 50.4886 46.069 50.4886 43.0986V21.6692H50.1183C48.1106 21.6692 46.4773 20.0359 46.4773 18.0282V11.0085C46.4773 10.6594 46.7608 10.3759 47.1099 10.3759C47.459 10.3759 47.7424 10.6594 47.7424 11.0085V14.3872H54.4999V11.0085C54.4999 10.6594 54.7834 10.3759 55.1324 10.3759C55.4815 10.3759 55.765 10.6594 55.765 11.0085V18.0282C55.765 20.0359 54.1317 21.6692 52.124 21.6692ZM38.4548 47.1099V27.6861H33.0704C32.7214 27.6861 32.4379 27.4026 32.4379 27.0535C32.4379 26.7045 32.7214 26.421 33.0704 26.421H38.4548V17.0254C38.4548 12.95 35.1402 9.63536 31.0648 9.63536H17.0254C12.95 9.63536 9.63536 12.95 9.63536 17.0254V26.421H15.0197C15.3688 26.421 15.6523 26.7045 15.6523 27.0535C15.6523 27.4026 15.3688 27.6861 15.0197 27.6861H9.63536V47.1099C9.63536 51.1853 12.95 54.4999 17.0254 54.4999H31.0648C35.1402 54.4999 38.4548 51.1853 38.4548 47.1099ZM54.4999 18.0282V15.6523H47.7424V18.0282C47.7424 19.34 48.809 20.4041 50.1183 20.4041H52.124C53.4333 20.4041 54.4999 19.34 54.4999 18.0282Z" fill="#00FF7F"/>
  <path fill-rule="evenodd" clip-rule="evenodd" d="M24.7979 30.9268L26.1261 22.8991L21.3104 28.8741C21.0755 28.7671 20.8393 28.6649 20.6018 28.5673L26.4356 21.329C26.542 21.1973 26.7243 21.1537 26.8775 21.2233C27.0315 21.2926 27.1206 21.4569 27.0926 21.6235L25.4711 31.4246C25.2485 31.2556 25.0241 31.0897 24.7979 30.9268ZM21.9192 35.7379L20.6432 44.8735L29.3126 34.5738C29.5032 34.733 29.6944 34.8912 29.8862 35.0484L20.3801 46.3426C20.3069 46.4293 20.2005 46.4754 20.0931 46.4751C20.0428 46.4745 19.9926 46.4643 19.9436 46.4426C19.7921 46.3761 19.7033 46.216 19.7266 46.0516L21.1231 36.0561L15.3655 36.0291C15.2226 36.0286 15.0928 35.9459 15.0312 35.8168C14.9704 35.6875 14.9882 35.5349 15.0782 35.423L20.6027 28.568C20.8403 28.6655 21.0765 28.7678 21.3114 28.8747L16.1428 35.2876L21.5525 35.3136C21.6598 35.3139 21.7623 35.3614 21.8328 35.4423C21.9026 35.5234 21.9343 35.631 21.9192 35.7379ZM24.6551 32.5901C24.5857 32.5072 24.555 32.3969 24.5726 32.2894L24.5717 32.2896L24.797 30.927C25.023 31.0897 25.2472 31.2555 25.4697 31.4243L25.3781 31.98L26.1916 31.984C26.3276 32.0919 26.4632 32.2006 26.5983 32.3099C26.4638 32.201 26.3289 32.0927 26.1934 31.9852L31.6463 32.0111C31.791 32.0119 31.9221 32.096 31.9825 32.2272C32.0429 32.3583 32.022 32.5126 31.9292 32.6235L29.888 35.0492C29.6962 34.8921 29.5049 34.7339 29.3143 34.5746L30.848 32.752L27.1178 32.7344L26.9624 32.6067L27.1153 32.7326L24.9379 32.7224C24.8288 32.7217 24.7254 32.6736 24.6551 32.5901Z" fill="#00FF7F"/>
  <path d="M26.1261 22.8991L26.2741 22.9236L26.3671 22.3609L26.0093 22.805L26.1261 22.8991ZM24.7979 30.9268L24.6499 30.9023L24.6348 30.9942L24.7103 31.0486L24.7979 30.9268ZM21.3104 28.8741L21.2482 29.0106L21.3542 29.0588L21.4272 28.9682L21.3104 28.8741ZM20.6018 28.5673L20.485 28.4732L20.3588 28.6297L20.5448 28.706L20.6018 28.5673ZM26.4356 21.329L26.3189 21.2348L26.3189 21.2349L26.4356 21.329ZM26.8775 21.2233L26.8155 21.3599L26.8159 21.3601L26.8775 21.2233ZM27.0926 21.6235L26.9446 21.5986L26.9446 21.599L27.0926 21.6235ZM25.4711 31.4246L25.3804 31.544L25.5785 31.6944L25.6191 31.449L25.4711 31.4246ZM20.6432 44.8735L20.4946 44.8527L20.4226 45.3685L20.7579 44.9701L20.6432 44.8735ZM21.9192 35.7379L21.7707 35.7169L21.7706 35.7172L21.9192 35.7379ZM29.3126 34.5738L29.4087 34.4587L29.294 34.3629L29.1978 34.4772L29.3126 34.5738ZM29.8862 35.0484L30.001 35.145L30.0989 35.0287L29.9813 34.9323L29.8862 35.0484ZM20.3801 46.3426L20.4947 46.4393L20.4948 46.4392L20.3801 46.3426ZM20.0931 46.4751L20.0913 46.6251L20.0927 46.6251L20.0931 46.4751ZM19.9436 46.4426L20.0045 46.3055L20.0039 46.3053L19.9436 46.4426ZM19.7266 46.0516L19.8752 46.0727L19.8752 46.0723L19.7266 46.0516ZM21.1231 36.0561L21.2717 36.0769L21.2954 35.907L21.1239 35.9061L21.1231 36.0561ZM15.3655 36.0291L15.3662 35.8791H15.366L15.3655 36.0291ZM15.0312 35.8168L14.8954 35.8806L14.8958 35.8814L15.0312 35.8168ZM15.0782 35.423L14.9614 35.3289L14.9613 35.329L15.0782 35.423ZM20.6027 28.568L20.6597 28.4292L20.5562 28.3867L20.486 28.4738L20.6027 28.568ZM21.3114 28.8747L21.4282 28.9689L21.5495 28.8183L21.3735 28.7382L21.3114 28.8747ZM16.1428 35.2876L16.0261 35.1935L15.8305 35.4361L16.1421 35.4376L16.1428 35.2876ZM21.5525 35.3136L21.5518 35.4636L21.552 35.4636L21.5525 35.3136ZM21.8328 35.4423L21.9466 35.3445L21.9459 35.3437L21.8328 35.4423ZM24.5726 32.2894L24.7206 32.3136L24.7578 32.0856L24.5344 32.1444L24.5726 32.2894ZM24.6551 32.5901L24.54 32.6864L24.5404 32.6868L24.6551 32.5901ZM24.5717 32.2896L24.4238 32.2652L24.386 32.4936L24.6099 32.4347L24.5717 32.2896ZM24.797 30.927L24.8846 30.8052L24.6884 30.664L24.649 30.9025L24.797 30.927ZM25.4697 31.4243L25.6177 31.4487L25.6324 31.3595L25.5604 31.3049L25.4697 31.4243ZM25.3781 31.98L25.2301 31.9556L25.2014 32.1292L25.3773 32.13L25.3781 31.98ZM26.1916 31.984L26.2848 31.8665L26.2442 31.8342L26.1923 31.834L26.1916 31.984ZM26.5983 32.3099L26.5039 32.4265L26.6927 32.1933L26.5983 32.3099ZM26.1934 31.9852L26.1941 31.8352L25.7604 31.8331L26.1002 32.1027L26.1934 31.9852ZM31.6463 32.0111L31.6472 31.8611L31.647 31.8611L31.6463 32.0111ZM31.9825 32.2272L31.8463 32.2899V32.2899L31.9825 32.2272ZM31.9292 32.6235L32.044 32.7201L32.0442 32.7198L31.9292 32.6235ZM29.888 35.0492L29.7929 35.1653L29.9074 35.2591L30.0028 35.1458L29.888 35.0492ZM29.3143 34.5746L29.1995 34.4781L29.1026 34.5933L29.2181 34.6898L29.3143 34.5746ZM30.848 32.752L30.9628 32.8486L31.169 32.6035L30.8487 32.602L30.848 32.752ZM27.1178 32.7344L27.0226 32.8503L27.0638 32.8841L27.1171 32.8844L27.1178 32.7344ZM26.9624 32.6067L27.0576 32.4908L26.8671 32.7225L26.9624 32.6067ZM27.1153 32.7326L27.1146 32.8826L27.5359 32.8846L27.2106 32.6168L27.1153 32.7326ZM24.9379 32.7224L24.9369 32.8724L24.9372 32.8724L24.9379 32.7224ZM25.9781 22.8746L24.6499 30.9023L24.9459 30.9513L26.2741 22.9236L25.9781 22.8746ZM21.4272 28.9682L26.2429 22.9932L26.0093 22.805L21.1936 28.7799L21.4272 28.9682ZM20.5448 28.706C20.7806 28.8029 21.0151 28.9044 21.2482 29.0106L21.3726 28.7375C21.136 28.6298 20.8981 28.5268 20.6588 28.4285L20.5448 28.706ZM26.3189 21.2349L20.485 28.4732L20.7186 28.6614L26.5524 21.4232L26.3189 21.2349ZM26.9395 21.0867C26.7235 20.9886 26.4679 21.0503 26.3189 21.2348L26.5524 21.4233C26.6161 21.3443 26.725 21.3188 26.8155 21.3599L26.9395 21.0867ZM27.2405 21.6484C27.28 21.4137 27.1545 21.1835 26.9391 21.0865L26.8159 21.3601C26.9086 21.4018 26.9612 21.5002 26.9446 21.5986L27.2405 21.6484ZM25.6191 31.449L27.2405 21.648L26.9446 21.599L25.3231 31.4001L25.6191 31.449ZM24.7103 31.0486C24.9354 31.2107 25.1588 31.3758 25.3804 31.544L25.5618 31.3051C25.3382 31.1353 25.1128 30.9687 24.8856 30.8051L24.7103 31.0486ZM20.7917 44.8942L22.0677 35.7587L21.7706 35.7172L20.4946 44.8527L20.7917 44.8942ZM29.1978 34.4772L20.5284 44.7769L20.7579 44.9701L29.4273 34.6704L29.1978 34.4772ZM29.9813 34.9323C29.7898 34.7755 29.599 34.6176 29.4087 34.4587L29.2164 34.6889C29.4074 34.8484 29.599 35.0069 29.7912 35.1644L29.9813 34.9323ZM20.4948 46.4392L30.001 35.145L29.7715 34.9518L20.2653 46.246L20.4948 46.4392ZM20.0927 46.6251C20.2428 46.6256 20.3919 46.5611 20.4947 46.4393L20.2655 46.2458C20.2218 46.2975 20.1581 46.3253 20.0936 46.3251L20.0927 46.6251ZM19.8828 46.5797C19.9512 46.6101 20.0216 46.6242 20.0913 46.6251L20.095 46.3251C20.064 46.3247 20.034 46.3186 20.0045 46.3055L19.8828 46.5797ZM19.5781 46.0305C19.5453 46.2612 19.6698 46.4862 19.8833 46.5799L20.0039 46.3053C19.9143 46.2659 19.8612 46.1708 19.8752 46.0727L19.5781 46.0305ZM20.9746 36.0354L19.5781 46.0308L19.8752 46.0723L21.2717 36.0769L20.9746 36.0354ZM15.3648 36.1791L21.1224 36.2061L21.1239 35.9061L15.3662 35.8791L15.3648 36.1791ZM14.8958 35.8814C14.9821 36.0622 15.1642 36.1784 15.365 36.1791L15.366 35.8791C15.2811 35.8788 15.2035 35.8296 15.1666 35.7522L14.8958 35.8814ZM14.9613 35.329C14.8353 35.4857 14.8103 35.6996 14.8954 35.8806L15.1669 35.753C15.1304 35.6754 15.1411 35.5841 15.1951 35.517L14.9613 35.329ZM20.486 28.4738L14.9614 35.3289L15.195 35.5171L20.7195 28.6621L20.486 28.4738ZM21.3735 28.7382C21.137 28.6305 20.8991 28.5275 20.6597 28.4292L20.5458 28.7067C20.7816 28.8036 21.0161 28.9051 21.2492 29.0113L21.3735 28.7382ZM16.2596 35.3817L21.4282 28.9689L21.1946 28.7806L16.0261 35.1935L16.2596 35.3817ZM21.5532 35.1636L16.1436 35.1376L16.1421 35.4376L21.5518 35.4636L21.5532 35.1636ZM21.9459 35.3437C21.8474 35.2307 21.7041 35.164 21.5529 35.1636L21.552 35.4636C21.6155 35.4638 21.6772 35.492 21.7198 35.5409L21.9459 35.3437ZM22.0677 35.7589C22.0889 35.6092 22.0445 35.4584 21.9466 35.3445L21.7191 35.5401C21.7607 35.5885 21.7798 35.6527 21.7707 35.7169L22.0677 35.7589ZM24.4245 32.2652C24.3999 32.4161 24.4429 32.5703 24.54 32.6864L24.7701 32.4939C24.7285 32.4442 24.7101 32.3777 24.7206 32.3136L24.4245 32.2652ZM24.6099 32.4347L24.6107 32.4345L24.5344 32.1444L24.5336 32.1446L24.6099 32.4347ZM24.649 30.9025L24.4238 32.2652L24.7197 32.3141L24.945 30.9514L24.649 30.9025ZM25.5604 31.3049C25.3369 31.1352 25.1117 30.9687 24.8846 30.8052L24.7093 31.0487C24.9343 31.2107 25.1576 31.3757 25.379 31.5438L25.5604 31.3049ZM25.5261 32.0044L25.6177 31.4487L25.3217 31.3999L25.2301 31.9556L25.5261 32.0044ZM26.1923 31.834L25.3788 31.83L25.3773 32.13L26.1909 32.134L26.1923 31.834ZM26.6926 32.1933C26.5572 32.0837 26.4212 31.9747 26.2848 31.8665L26.0984 32.1015C26.234 32.2091 26.3691 32.3175 26.5039 32.4265L26.6926 32.1933ZM26.1002 32.1027C26.2352 32.2098 26.3697 32.3178 26.5039 32.4265L26.6927 32.1933C26.5579 32.0842 26.4226 31.9755 26.2867 31.8677L26.1002 32.1027ZM31.647 31.8611L26.1941 31.8352L26.1927 32.1352L31.6456 32.1611L31.647 31.8611ZM32.1187 32.1644C32.0338 31.98 31.8497 31.8623 31.6472 31.8611L31.6454 32.1611C31.7322 32.1616 31.8103 32.212 31.8463 32.2899L32.1187 32.1644ZM32.0442 32.7198C32.1741 32.5646 32.2035 32.3485 32.1187 32.1644L31.8463 32.2899C31.8823 32.3682 31.87 32.4605 31.8142 32.5272L32.0442 32.7198ZM30.0028 35.1458L32.044 32.7201L31.8144 32.5269L29.7732 34.9527L30.0028 35.1458ZM29.2181 34.6898C29.4091 34.8493 29.6007 35.0078 29.7929 35.1653L29.9831 34.9332C29.7916 34.7763 29.6007 34.6184 29.4105 34.4595L29.2181 34.6898ZM30.7333 32.6554L29.1995 34.4781L29.4291 34.6712L30.9628 32.8486L30.7333 32.6554ZM27.1171 32.8844L30.8473 32.902L30.8487 32.602L27.1185 32.5844L27.1171 32.8844ZM26.8672 32.7226L27.0226 32.8503L27.213 32.6184L27.0576 32.4908L26.8672 32.7226ZM27.2106 32.6168L27.0577 32.4909L26.8671 32.7225L27.02 32.8484L27.2106 32.6168ZM24.9372 32.8724L27.1146 32.8826L27.116 32.5826L24.9386 32.5724L24.9372 32.8724ZM24.5404 32.6868C24.6392 32.8042 24.7843 32.8714 24.9369 32.8724L24.9389 32.5724C24.8733 32.572 24.8116 32.5431 24.7698 32.4935L24.5404 32.6868Z" fill="#00FF7F"/>
</svg>