<svg xmlns="http://www.w3.org/2000/svg" width="65" height="65" viewBox="0 0 65 65" fill="none">
<path d="M47.7135 52.8315C49.4639 52.8315 50.8884 51.4069 50.8884 49.6566C50.8884 47.9062 49.4639 46.4817 47.7135 46.4817C45.9632 46.4817 44.5386 47.9062 44.5386 49.6566C44.5386 51.4069 45.9632 52.8315 47.7135 52.8315Z" fill="#00FF7F"/>
<path d="M16.7697 54.8112C16.8018 54.2476 16.8898 53.6935 17.0361 53.1643C14.9825 52.0977 13.1073 50.7303 11.4723 49.1214L16.8696 43.6801C16.9766 43.5719 17.0325 43.4221 17.0218 43.2699C16.5295 36.3743 11.6768 31.3504 10.6732 30.3801V25.846H11.7315C11.9087 25.846 12.074 25.758 12.1715 25.6106L13.0728 24.2586H17.023C17.3155 24.2586 17.5522 24.022 17.5522 23.7294V23.2003H21.2562C21.5487 23.2003 21.7853 22.9637 21.7853 22.6712V19.1859L22.6891 18.2822C22.7878 18.1835 22.8436 18.0479 22.8436 17.9076V15.011C23.2182 14.7791 23.5583 14.7054 23.8627 14.7886C24.4608 14.9539 24.8853 15.7114 25.0161 16.0277C25.399 16.7946 26.4668 17.1882 27.499 16.9456C28.5442 16.6983 29.1934 15.8505 29.1934 14.7327C29.1934 13.2452 30.0365 10.9514 30.4622 9.88598C34.7358 10.4223 38.8001 12.1512 42.1569 14.8945V16.8624L38.7193 16.8493H38.7169C38.5469 16.8493 38.3875 16.9302 38.2888 17.0681C38.1889 17.2061 38.1616 17.3844 38.2151 17.545C38.2198 17.5604 38.7169 19.0741 38.7169 20.5534C38.7169 21.4119 36.366 22.9886 34.7762 23.7841C34.5967 23.8733 34.4837 24.0576 34.4837 24.2574V27.9947C34.825 27.6095 35.1781 27.2361 35.542 26.8734V24.5796C36.6895 23.9768 39.7752 22.2015 39.7752 20.5522C39.7752 19.5438 39.5766 18.5486 39.4173 17.9088L42.1569 17.9195V22.3216C42.6778 22.1004 43.2081 21.9066 43.7444 21.7341V10.4984C43.7444 8.89309 45.05 7.58746 46.6553 7.58746H48.7719C50.3772 7.58746 51.6828 8.89309 51.6828 10.4984V20.8233C52.2131 20.8566 52.7423 20.9077 53.2702 20.9755V10.4984C53.2702 8.01791 51.2523 6.00002 48.7719 6.00002H46.6553C44.1748 6.00002 42.1569 8.01791 42.1569 10.4984V12.8932C37.9523 9.80632 32.8475 8.11661 27.6048 8.11661C14.0372 8.11661 3 19.155 3 32.7214C3 42.4018 8.62086 50.7945 16.7697 54.8077V54.8112ZM27.606 9.70643C28.1958 9.70643 28.7832 9.73259 29.367 9.77778C28.8938 10.993 28.1351 13.1822 28.1351 14.7339C28.1351 15.5401 27.6571 15.8231 27.2564 15.9171C26.6856 16.0503 26.1041 15.8362 25.9805 15.5948C25.9567 15.5342 25.3752 14.1144 24.1516 13.7708C23.4572 13.5758 22.7331 13.7577 21.997 14.3094C21.8638 14.4093 21.7853 14.5663 21.7853 14.7327V17.6888L20.8816 18.5926C20.7829 18.6912 20.727 18.8268 20.727 18.9671V22.142H17.023C16.7305 22.142 16.4939 22.3786 16.4939 22.6712V23.2003H12.7898C12.6127 23.2003 12.4474 23.2883 12.3499 23.4357L11.4485 24.7877H10.1441C9.85157 24.7877 9.61494 25.0244 9.61494 25.3169V30.6084C9.61494 30.757 9.67797 30.8997 9.78855 30.9996C9.84444 31.0507 15.3333 36.1151 15.9481 43.107L10.7363 48.3616C6.92521 44.2533 4.58863 38.7572 4.58863 32.7238C4.58863 20.0314 14.9147 9.70643 27.606 9.70643Z" fill="#00FF7F"/>
<path d="M57.2384 11.029H61.4716C61.7641 11.029 62.0007 10.7924 62.0007 10.4998C62.0007 10.2073 61.7641 9.97069 61.4716 9.97069H57.2384C56.9459 9.97069 56.7093 10.2073 56.7093 10.4998C56.7093 10.7924 56.9459 11.029 57.2384 11.029Z" fill="#00FF7F"/>
<path d="M57.2384 18.4368H59.355C59.6475 18.4368 59.8841 18.2002 59.8841 17.9076C59.8841 17.6151 59.6475 17.3785 59.355 17.3785H57.2384C56.9459 17.3785 56.7093 17.6151 56.7093 17.9076C56.7093 18.2002 56.9459 18.4368 57.2384 18.4368Z" fill="#00FF7F"/>
<path d="M57.2384 25.8446H61.4716C61.7641 25.8446 62.0007 25.608 62.0007 25.3155C62.0007 25.023 61.7641 24.7863 61.4716 24.7863H57.2384C56.9459 24.7863 56.7093 25.023 56.7093 25.3155C56.7093 25.608 56.9459 25.8446 57.2384 25.8446Z" fill="#00FF7F"/>
<path d="M51.6817 42.0356C51.6817 42.3091 51.822 42.5635 52.0539 42.7086C54.4713 44.2223 55.9149 46.8193 55.9149 49.6577C55.9149 54.1798 52.2358 57.8601 47.7125 57.8601C44.4948 57.8601 41.5601 55.9587 40.2366 53.0169C39.755 51.9491 39.5113 50.8183 39.5113 49.6589C39.5113 46.8217 40.9548 44.2235 43.3723 42.7098C43.6041 42.5647 43.7445 42.3103 43.7445 42.0368V21.7377C43.2082 21.9089 42.6778 22.1039 42.157 22.3251V33.7167C40.3068 33.2969 39.7622 32.0567 39.7384 32.0008C39.6754 31.8427 39.5398 31.7249 39.3757 31.6845C38.019 31.3456 37.1878 31.914 36.7288 32.4491C36.4874 32.7297 36.3293 33.027 36.2294 33.2565H32.3684V33.0734C33.963 32.2362 35.3268 29.581 35.4874 29.2599C35.5242 29.1862 35.5433 29.1053 35.5433 29.0233V26.877C35.1794 27.2385 34.8262 27.613 34.485 27.9983V28.8961C34.0165 29.7962 32.7548 31.864 31.6716 32.2255C31.4552 32.2981 31.3101 32.5002 31.3101 32.7273V33.7856C31.3101 34.0781 31.5467 34.3148 31.8392 34.3148H36.6016C36.8441 34.3148 37.0558 34.1495 37.1152 33.9141C37.1152 33.9105 37.2258 33.4955 37.5326 33.1376C37.8786 32.7345 38.3257 32.5799 38.8929 32.6655C39.2081 33.2125 40.1225 34.4182 42.1582 34.7952V36.4611H39.7776C39.5767 36.4611 39.3936 36.5741 39.3044 36.7536L38.9215 37.5194H36.6027C36.3102 37.5194 36.0736 37.756 36.0736 38.0485V38.5777H33.957C33.8167 38.5777 33.6823 38.6336 33.5824 38.7323C33.4219 38.8928 29.6715 42.7015 30.8023 46.66C30.8487 46.8217 30.9688 46.9513 31.1258 47.0108C31.165 47.025 34.8667 48.4151 37.9536 50.3307C38.0166 51.2404 38.1997 52.131 38.5136 52.9919C35.1711 54.7946 31.4147 55.7435 27.606 55.7435C23.7974 55.7435 20.2039 54.8112 17.0374 53.1655C16.8899 53.6947 16.8019 54.2488 16.771 54.8124C20.0422 56.4236 23.7201 57.3309 27.6072 57.3309C31.4944 57.3309 35.6241 56.3202 39.176 54.4248C40.8942 57.501 44.1583 59.4475 47.7149 59.4475C53.1134 59.4475 57.5047 55.0562 57.5047 49.6577C57.5047 46.4186 55.9303 43.4423 53.2715 41.6087V20.9779C52.7435 20.9113 52.2144 20.8602 51.6841 20.8257V42.0368L51.6817 42.0356ZM37.9417 49.0834C35.3637 47.5637 32.6074 46.4483 31.7548 46.1166C31.1174 43.2425 33.5539 40.3292 34.1841 39.6336H36.6004C36.8929 39.6336 37.1295 39.397 37.1295 39.1045V38.5753H39.2461C39.4471 38.5753 39.6302 38.4623 39.7194 38.2828L40.1023 37.517H42.1558V41.6075C39.654 43.3317 38.1141 46.0678 37.9405 49.0834H37.9417Z" fill="#00FF7F"/>
<path d="M57.2384 40.661H61.4716C61.7641 40.661 62.0007 40.4244 62.0007 40.1319C62.0007 39.8394 61.7641 39.6027 61.4716 39.6027H57.2384C56.9459 39.6027 56.7093 39.8394 56.7093 40.1319C56.7093 40.4244 56.9459 40.661 57.2384 40.661Z" fill="#00FF7F"/>
<path d="M57.2384 33.2532H59.355C59.6475 33.2532 59.8841 33.0166 59.8841 32.7241C59.8841 32.4316 59.6475 32.1949 59.355 32.1949H57.2384C56.9459 32.1949 56.7093 32.4316 56.7093 32.7241C56.7093 33.0166 56.9459 33.2532 57.2384 33.2532Z" fill="#00FF7F"/>
<path d="M47.7133 53.8899C50.0475 53.8899 51.9465 51.9909 51.9465 49.6567C51.9465 47.5021 50.327 45.722 48.2425 45.4604V30.0782C48.2425 29.7857 48.0059 29.5491 47.7133 29.5491C47.4208 29.5491 47.1842 29.7857 47.1842 30.0782V45.4604C45.0997 45.722 43.4802 47.5021 43.4802 49.6567C43.4802 51.9909 45.3791 53.8899 47.7133 53.8899ZM47.7133 46.4818C49.4637 46.4818 50.8882 47.9064 50.8882 49.6567C50.8882 51.4071 49.4637 52.8316 47.7133 52.8316C45.963 52.8316 44.5385 51.4071 44.5385 49.6567C44.5385 47.9064 45.963 46.4818 47.7133 46.4818Z" fill="#00FF7F"/>
</svg>