<svg xmlns="http://www.w3.org/2000/svg" width="65" height="65" viewBox="0 0 65 65" fill="none">
  <path d="M16.5154 25.9126L30.3977 43.3942V44.1992C30.9275 44.4207 31.4743 44.6189 32.031 44.795V43.9264H51.6487C52.5467 43.875 53.4484 43.8689 54.3525 43.9203V43.1104C54.3525 43.1018 54.3501 43.0945 54.3501 43.0871C54.3501 43.059 54.3452 43.0296 54.3403 43.0015C54.3366 42.9758 54.3354 42.9513 54.3281 42.9256C54.3232 42.9012 54.3134 42.8767 54.3061 42.8522C54.2963 42.8253 54.2877 42.7996 54.2767 42.7739C54.2669 42.7531 54.2547 42.7323 54.2424 42.7115C54.2278 42.6846 54.2131 42.6589 54.1947 42.6332C54.191 42.6271 54.1874 42.6198 54.1825 42.6137L42.4179 27.229L45.4215 24.2254C45.6344 24.0126 45.6344 23.6688 45.4215 23.4559C45.2086 23.243 44.8648 23.243 44.6519 23.4559L41.75 26.3567L40.0273 24.1031C39.8732 23.9012 39.6334 23.7826 39.379 23.7826H16.513C16.3221 23.7826 16.1496 23.8511 16.0101 23.96C16.0053 23.9636 16.0003 23.9673 15.9967 23.971C15.96 24.0003 15.9282 24.0321 15.8976 24.0676C15.8902 24.0762 15.8804 24.0823 15.8731 24.0909L15.2333 24.8971C15.5024 25.4342 15.7691 25.975 16.0346 26.5157L16.5142 25.9126H16.5154ZM22.7463 31.133H28.992L33.1553 36.5772H27.0687L22.7463 31.133ZM30.3622 31.133H36.6152L40.7786 36.5772H34.5268L30.3622 31.133ZM31.6089 42.2943L27.9337 37.6661H33.9873L37.5254 42.2943H31.6077H31.6089ZM38.8969 42.2943L35.3587 37.6661H41.6105L45.1487 42.2943H38.8969ZM51.8837 42.2943H46.5189L42.9807 37.6661H48.3455L51.8849 42.2943H51.8837ZM47.5123 36.5772H42.1476L37.983 31.133H43.3478L47.5123 36.5772ZM38.9764 25.4158L42.5158 30.0441H37.1511L33.6129 25.4158H38.9777H38.9764ZM32.2427 25.4158L35.7808 30.0441H29.5279L25.9897 25.4158H32.2427ZM24.6207 25.4158L28.1588 30.0441H21.8802L18.205 25.4158H24.6207Z" fill="#00FF7F"/>
  <path d="M50.8142 23.5107C53.8165 23.5107 56.2585 21.0687 56.2585 18.0664C56.2585 15.0641 53.8165 12.6221 50.8142 12.6221C47.8119 12.6221 45.3699 15.0641 45.3699 18.0664C45.3699 21.0687 47.8119 23.5107 50.8142 23.5107ZM50.8142 13.711C53.2146 13.711 55.1696 15.6648 55.1696 18.0664C55.1696 20.468 53.2146 22.4218 50.8142 22.4218C48.4138 22.4218 46.4588 20.468 46.4588 18.0664C46.4588 15.6648 48.4126 13.711 50.8142 13.711Z" fill="#00FF7F"/>
  <path d="M58.4368 18.0665C58.4368 18.3675 58.6803 18.6109 58.9813 18.6109H63.3367C63.6377 18.6109 63.8811 18.3675 63.8811 18.0665C63.8811 17.7655 63.6377 17.5221 63.3367 17.5221H58.9813C58.6803 17.5221 58.4368 17.7655 58.4368 18.0665Z" fill="#00FF7F"/>
  <path d="M56.2037 23.4559C55.9909 23.6688 55.9909 24.0138 56.2037 24.2254L59.2831 27.3048C59.3896 27.4113 59.529 27.4639 59.6685 27.4639C59.808 27.4639 59.9475 27.4113 60.0539 27.3048C60.2668 27.092 60.2668 26.7469 60.0539 26.5353L56.9745 23.4559C56.7616 23.243 56.4178 23.243 56.205 23.4559H56.2037Z" fill="#00FF7F"/>
  <path d="M38.2923 18.6094H42.6478C42.9487 18.6094 43.1922 18.3659 43.1922 18.0649C43.1922 17.764 42.9487 17.5205 42.6478 17.5205H38.2923C37.9914 17.5205 37.7479 17.764 37.7479 18.0649C37.7479 18.3659 37.9914 18.6094 38.2923 18.6094Z" fill="#00FF7F"/>
  <path d="M56.5887 12.8366C56.7282 12.8366 56.8676 12.784 56.9741 12.6775L60.0547 9.59814C60.2676 9.38527 60.2676 9.04148 60.0547 8.8286C59.8418 8.61573 59.498 8.61573 59.2852 8.8286L56.2045 11.908C55.9917 12.1209 55.9917 12.4646 56.2045 12.6775C56.311 12.784 56.4505 12.8366 56.5899 12.8366H56.5887Z" fill="#00FF7F"/>
  <path d="M44.6554 12.6775C44.7618 12.784 44.9013 12.8366 45.0407 12.8366C45.1802 12.8366 45.3197 12.784 45.4261 12.6775C45.639 12.4646 45.639 12.1209 45.4261 11.908L42.3468 8.8286C42.1339 8.61573 41.7901 8.61573 41.5772 8.8286C41.3644 9.04148 41.3644 9.38527 41.5772 9.59814L44.6566 12.6775H44.6554Z" fill="#00FF7F"/>
  <path d="M50.2699 26.2318V30.5873C50.2699 30.8882 50.5134 31.1317 50.8144 31.1317C51.1153 31.1317 51.3588 30.8882 51.3588 30.5873V26.2318C51.3588 25.9309 51.1153 25.6874 50.8144 25.6874C50.5134 25.6874 50.2699 25.9309 50.2699 26.2318Z" fill="#00FF7F"/>
  <path d="M50.8144 10.4444C51.1153 10.4444 51.3588 10.2009 51.3588 9.89993V5.5445C51.3588 5.24354 51.1153 5.00008 50.8144 5.00008C50.5134 5.00008 50.2699 5.24354 50.2699 5.5445V9.89993C50.2699 10.2009 50.5134 10.4444 50.8144 10.4444Z" fill="#00FF7F"/>
  <path d="M1 43.1098V57.2649C1 58.3158 1.85519 59.1698 2.90612 59.1698H9.43924C9.89069 59.1698 10.2565 58.804 10.2565 58.3537C10.2565 57.9035 9.89069 57.5365 9.43924 57.5365H2.90612C2.75564 57.5365 2.6333 57.4141 2.6333 57.2649V43.3948L16.0372 26.5163C15.7718 25.9756 15.505 25.4348 15.2359 24.8977L1.1762 42.602C1.06119 42.7464 1 42.925 1 43.1098Z" fill="#00FF7F"/>
  <path d="M13.2485 59.4433C13.2485 59.6733 13.3929 59.8788 13.6107 59.9559C13.6706 59.9767 13.7318 59.9877 13.7942 59.9877C13.9532 59.9877 14.1098 59.9167 14.215 59.7883L24.914 46.722C25.0473 46.5593 25.0742 46.3342 24.9837 46.1433C24.8944 45.9537 24.7035 45.8326 24.4931 45.8326H18.5448L19.778 35.0052C19.8061 34.7605 19.6667 34.5268 19.4367 34.4363C19.2091 34.3458 18.9448 34.4216 18.7992 34.6198L7.55467 49.8638C7.43355 50.0289 7.41399 50.2492 7.50697 50.4327C7.59995 50.6162 7.78713 50.7312 7.99267 50.7312H13.2485V59.442V59.4433ZM9.07049 49.6436L18.4652 36.9076L17.3935 46.3158C17.3752 46.47 17.4241 46.6241 17.5281 46.7404C17.6309 46.8566 17.7789 46.9227 17.9343 46.9227H23.3431L14.3374 57.9201V50.1892C14.3374 49.8883 14.0939 49.6448 13.793 49.6448H9.07049V49.6436Z" fill="#00FF7F"/>
  <path d="M51.6499 43.9258H52.7204V57.2649C52.7204 57.4154 52.5981 57.5365 52.4488 57.5365H32.0322V44.7944C31.4755 44.6183 30.9286 44.4201 30.3989 44.1986V57.5365H21.9608C21.5094 57.5365 21.1448 57.9023 21.1448 58.3538C21.1448 58.8052 21.5106 59.1698 21.9608 59.1698H52.4488C53.4997 59.1698 54.3537 58.3146 54.3537 57.2649V43.9197C53.4496 43.8683 52.5491 43.8744 51.6499 43.9258Z" fill="#00FF7F"/>
</svg>