<svg xmlns="http://www.w3.org/2000/svg" width="65" height="65" viewBox="0 0 65 65" fill="none">
  <path d="M19.6083 43.2451L20.2444 36.7539H28.0679C28.5071 36.4223 28.9855 36.059 29.4956 35.6651H20.3521L21.1448 27.5786C21.1473 27.5516 21.1485 27.5259 21.1485 27.499C21.1485 27.3486 21.2709 27.2262 21.4213 27.2262H33.6465L33.0226 32.8745C33.4153 32.5565 33.8166 32.2274 34.2276 31.8885L34.7427 27.2262H39.6533C40.2466 26.6953 40.8461 26.1509 41.4517 25.593H21.4225C20.3863 25.593 19.5422 26.4237 19.5178 27.4525L17.7879 45.0973C18.3604 44.4563 18.9721 43.8384 19.6107 43.2451H19.6083Z" fill="#00FF7F"/>
  <path d="M10.0314 8.26193C9.81856 8.04906 9.47478 8.04906 9.26192 8.26193C9.04905 8.4748 9.04905 8.81856 9.26192 9.03143L12.3412 12.1107C12.4476 12.2171 12.5871 12.2697 12.7265 12.2697C12.866 12.2697 13.0054 12.2171 13.1119 12.1107C13.3247 11.8978 13.3247 11.554 13.1119 11.3412L10.0326 8.26193H10.0314Z" fill="#00FF7F"/>
  <path d="M33.8982 8.26193L30.8178 11.3412C30.6049 11.554 30.6049 11.8978 30.8178 12.1107C30.9242 12.2171 31.0637 12.2697 31.2031 12.2697C31.3426 12.2697 31.4821 12.2171 31.5885 12.1107L34.669 9.03143C34.8818 8.81856 34.8818 8.4748 34.669 8.26193C34.4561 8.04906 34.1123 8.04906 33.8995 8.26193H33.8982Z" fill="#00FF7F"/>
  <path d="M9.64606 33.8286C9.78552 33.8286 9.92499 33.776 10.0314 33.6696L13.1107 30.5904C13.3235 30.3775 13.3235 30.0337 13.1107 29.8208C12.8978 29.608 12.554 29.608 12.3412 29.8208L9.26192 32.9001C9.04905 33.113 9.04905 33.4567 9.26192 33.6696C9.36835 33.776 9.50782 33.8286 9.64728 33.8286H9.64606Z" fill="#00FF7F"/>
  <path d="M12.1663 20.9655C12.1663 23.2875 12.9933 25.5397 14.4943 27.3063C14.602 27.4335 14.7549 27.4983 14.9091 27.4983C15.0339 27.4983 15.1586 27.4555 15.2614 27.3687C15.4902 27.1741 15.5183 26.8304 15.3238 26.6016C13.9891 25.0308 13.2551 23.0293 13.2551 20.9655C13.2551 16.1625 17.1625 12.2551 21.9655 12.2551C26.7685 12.2551 30.676 16.1625 30.676 20.9655C30.676 21.2665 30.9194 21.5099 31.2204 21.5099C31.5213 21.5099 31.7648 21.2665 31.7648 20.9655C31.7648 15.5618 27.3692 11.1663 21.9655 11.1663C16.5619 11.1663 12.1663 15.5618 12.1663 20.9655Z" fill="#00FF7F"/>
  <path d="M34.485 20.9654C34.485 21.2663 34.7285 21.5098 35.0294 21.5098H39.3847C39.6856 21.5098 39.9291 21.2663 39.9291 20.9654C39.9291 20.6644 39.6856 20.421 39.3847 20.421H35.0294C34.7285 20.421 34.485 20.6644 34.485 20.9654Z" fill="#00FF7F"/>
  <path d="M4.54441 20.421C4.24346 20.421 4 20.6644 4 20.9654C4 21.2663 4.24346 21.5098 4.54441 21.5098H8.89963C9.20058 21.5098 9.44403 21.2663 9.44403 20.9654C9.44403 20.6644 9.20058 20.421 8.89963 20.421H4.54441Z" fill="#00FF7F"/>
  <path d="M22.5098 7.89962V3.5444C22.5098 3.24345 22.2664 3 21.9654 3C21.6645 3 21.421 3.24345 21.421 3.5444V7.89962C21.421 8.20057 21.6645 8.44403 21.9654 8.44403C22.2664 8.44403 22.5098 8.20057 22.5098 7.89962Z" fill="#00FF7F"/>
  <path d="M16.7929 55.2623C16.7929 56.3132 17.648 57.1684 18.6989 57.1684H35.847V60.9792H29.0425C28.5911 60.9792 28.2265 61.345 28.2265 61.7952C28.2265 62.2454 28.5923 62.6124 29.0425 62.6124H49.7298C50.1813 62.6124 50.5458 62.2466 50.5458 61.7952C50.5458 61.3437 50.18 60.9792 49.7298 60.9792H42.9254V57.1684H60.0735C61.1244 57.1684 61.9795 56.3132 61.9795 55.2623C61.9795 55.2354 61.9783 55.2097 61.9758 55.1828L59.2575 27.4525C59.233 26.4225 58.3877 25.593 57.3527 25.593H41.4512C40.8469 26.1509 40.2462 26.6953 39.6529 27.2262H44.1048L45.0272 35.6651H33.81L34.2272 31.8885C33.8162 32.2274 33.4149 32.5565 33.0222 32.8745L32.7139 35.6651H29.4964C28.9863 36.059 28.5091 36.4223 28.0687 36.7539H32.594L31.5713 46.0087H19.3387L19.6091 43.2451C18.9717 43.8384 18.36 44.4563 17.7863 45.0973L16.7978 55.1828C16.7953 55.2097 16.7941 55.2354 16.7941 55.2623H16.7929ZM41.291 60.9792H37.4802V57.1684H41.291V60.9792ZM60.3439 55.2893C60.3304 55.4275 60.2142 55.5351 60.0735 55.5351H48.296L47.3736 47.0963H59.5413L60.3451 55.2893H60.3439ZM59.4337 46.0075H47.2525L46.2408 36.7527H58.5271L59.4349 46.0075H59.4337ZM57.3503 27.2262C57.5007 27.2262 57.6231 27.3486 57.6231 27.499C57.6231 27.5259 57.6243 27.5516 57.6267 27.5786L58.4195 35.6651H46.1221L45.1997 27.2262H57.3515H57.3503ZM33.6877 36.7539H45.1446L46.1564 46.0087H32.665L33.6877 36.7539ZM32.5451 47.0975H46.2763L47.1987 55.5364H31.6129L32.5451 47.0975ZM19.2298 47.0975H31.4489L30.5167 55.5364H18.6964C18.5558 55.5364 18.4383 55.4287 18.4261 55.2905L19.2298 47.0975Z" fill="#00FF7F"/>
</svg>