<svg xmlns="http://www.w3.org/2000/svg" width="65" height="65" viewBox="0 0 65 65" fill="none">
<g clip-path="url(#clip0_1088_371)">
<path d="M58 56.9375C58 57.524 57.524 58 56.9375 58H16.5625C11.2904 58 7 53.7096 7 48.4375V8.0625C7 7.476 7.476 7 8.0625 7C8.649 7 9.125 7.476 9.125 8.0625V48.4375C9.125 52.5387 12.4613 55.875 16.5625 55.875H56.9375C57.524 55.875 58 56.351 58 56.9375ZM46.3125 49.5C46.899 49.5 47.375 49.024 47.375 48.4375V20.8125C47.375 20.226 46.899 19.75 46.3125 19.75C45.726 19.75 45.25 20.226 45.25 20.8125V48.4375C45.25 49.024 45.726 49.5 46.3125 49.5ZM37.8125 49.5C38.399 49.5 38.875 49.024 38.875 48.4375V31.4375C38.875 30.851 38.399 30.375 37.8125 30.375C37.226 30.375 36.75 30.851 36.75 31.4375V48.4375C36.75 49.024 37.226 49.5 37.8125 49.5ZM29.3125 49.5C29.899 49.5 30.375 49.024 30.375 48.4375V20.8125C30.375 20.226 29.899 19.75 29.3125 19.75C28.726 19.75 28.25 20.226 28.25 20.8125V48.4375C28.25 49.024 28.726 49.5 29.3125 49.5ZM20.8125 49.5C21.399 49.5 21.875 49.024 21.875 48.4375V31.4375C21.875 30.851 21.399 30.375 20.8125 30.375C20.226 30.375 19.75 30.851 19.75 31.4375V48.4375C19.75 49.024 20.226 49.5 20.8125 49.5Z" fill="#00FF7F"/>
</g>
<defs>
<clipPath id="clip0_1088_371">
<rect width="51" height="51" fill="white" transform="translate(7 7)"/>
</clipPath>
</defs>
</svg>