<svg xmlns="http://www.w3.org/2000/svg" width="65" height="65" viewBox="0 0 65 65" fill="none">
<path d="M17.077 35.241C17.3928 35.2416 17.6486 34.9886 17.6504 34.6725L17.6642 31.8185L20.5181 31.8323C20.833 31.8344 21.0898 31.5799 21.0916 31.2638C21.0924 30.9492 20.8392 30.6922 20.523 30.6904L17.6691 30.6766L17.6816 27.823C17.6837 27.5081 17.4304 27.251 17.113 27.2496C16.7985 27.2487 16.5414 27.5019 16.5396 27.8181L16.5271 30.6717L13.6732 30.658C13.3582 30.6558 13.1015 30.9103 13.0997 31.2265C13.0992 31.5423 13.3521 31.7981 13.6683 31.7999L16.5222 31.8137L16.5085 34.6676C16.5076 34.9822 16.7609 35.2393 17.077 35.241Z" fill="#00FF7F"/>
<path d="M51.8197 51.6755L43.8291 51.6379C43.3561 51.6349 42.9712 52.0172 42.9682 52.4902C42.9652 52.9632 43.3475 53.3481 43.8202 53.3499L51.8124 53.3884C55.2385 53.4043 58.0712 50.7789 58.3786 47.4273C57.8059 47.4134 57.2357 47.3736 56.6699 47.3101C56.4246 49.7673 54.3389 51.6871 51.8197 51.6755Z" fill="#00FF7F"/>
<path d="M11.3443 22.9409L5.71761 22.9146C5.2462 22.9125 4.86347 22.5263 4.86523 22.0537L4.89276 16.3457C4.89609 15.874 5.28105 15.4916 5.75369 15.4934L8.68078 15.5078C8.66364 14.938 8.67789 14.3666 8.72016 13.7958L5.76134 13.7817C4.34555 13.7746 3.1867 14.9214 3.18109 16.3381L3.15356 22.046C3.14671 23.463 4.292 24.621 5.71026 24.6275L6.56691 24.6318L6.46296 46.609C6.44507 50.2294 9.37657 53.1871 12.9957 53.2054L20.9875 53.2427C21.4589 53.2447 21.8454 52.8633 21.8472 52.3906C21.8502 51.9177 21.4678 51.5327 20.9952 51.531L13.0042 51.4921C10.3283 51.4793 8.16182 49.2926 8.17463 46.6166L8.27858 24.6394L13.2746 24.6631C12.9799 24.4554 12.6913 24.2355 12.4118 23.9999C12.0223 23.6686 11.6668 23.3151 11.3434 22.9425L11.3443 22.9409Z" fill="#00FF7F"/>
<path d="M51.3491 30.8368L44.4992 30.8044C44.1846 30.8035 43.9263 31.0571 43.9257 31.373C43.9249 31.6875 44.1781 31.9446 44.4943 31.9464L51.3441 31.9788C51.659 31.9809 51.9158 31.7264 51.9176 31.4102C51.9181 31.0944 51.6649 30.8374 51.3491 30.8368Z" fill="#00FF7F"/>
<path d="M58.5118 24.8772L59.3684 24.8815C60.7842 24.8887 61.943 23.7418 61.9499 22.3248L61.9774 16.6169C61.9846 15.2011 60.8377 14.0422 59.421 14.0366L53.4278 14.0085L53.4373 12.0111C53.4429 10.5944 52.2975 9.43653 50.8796 9.43125L44.0298 9.39882C42.614 9.39164 41.4551 10.5385 41.4483 11.9556L41.4388 13.9529L23.7431 13.8694L23.7526 11.8721C23.7594 10.4551 22.6129 9.29747 21.1959 9.29062L14.346 9.25821C12.9302 9.25103 11.7714 10.3979 11.7645 11.8149L11.755 13.8123L8.72063 13.7982C8.67837 14.369 8.66444 14.9417 8.68126 15.5102L59.4116 15.7514C59.883 15.7535 60.2669 16.1394 60.2635 16.6111L60.236 22.319C60.2327 22.7908 59.8478 23.1731 59.3751 23.1714L47.3886 23.1151C46.9156 23.1121 46.5307 23.4945 46.5277 23.9674C46.5247 24.4404 46.9071 24.8254 47.3797 24.8271L56.7979 24.8715L56.694 46.8487C56.6928 47.0055 56.6841 47.159 56.6685 47.3117C57.2343 47.3751 57.8044 47.4149 58.3771 47.4289C58.3938 47.2401 58.4046 47.0489 58.4057 46.8563L58.5096 24.8791L58.5118 24.8772ZM22.04 11.8607L22.0305 13.858L13.4686 13.8168L13.4777 11.8182C13.4798 11.3468 13.866 10.9641 14.3374 10.9662L21.1873 10.9986C21.6587 11.0007 22.0426 11.3865 22.0393 11.8583L22.04 11.8607ZM51.7236 12.0014L51.7142 13.9987L43.1523 13.9574L43.1618 11.9601C43.1636 11.4874 43.55 11.106 44.0215 11.108L50.8713 11.1405C51.3427 11.1425 51.7254 11.5287 51.7236 12.0014Z" fill="#00FF7F"/>
<path d="M18.5575 23.8313C18.5605 23.3584 18.1781 22.9734 17.7055 22.9717L11.3441 22.9408C11.6675 23.3134 12.0222 23.6685 12.4126 23.9983C12.6911 24.2354 12.9807 24.4538 13.2753 24.6615L17.6975 24.6821C18.1705 24.6851 18.5554 24.3027 18.5584 23.8298L18.5575 23.8313Z" fill="#00FF7F"/>
<path fill-rule="evenodd" clip-rule="evenodd" d="M34.6935 37.2954L36.6281 25.602L29.6134 34.3053C29.2714 34.1495 28.9273 34.0006 28.5812 33.8585L37.079 23.3151C37.2339 23.1232 37.4994 23.0597 37.7226 23.161C37.947 23.2621 38.0767 23.5014 38.0359 23.744L35.6741 38.0204C35.3498 37.7743 35.0229 37.5326 34.6935 37.2954ZM30.5002 44.3033L28.6416 57.6104L41.2696 42.6077C41.5473 42.8396 41.8258 43.07 42.1052 43.299L28.2584 59.7503C28.1517 59.8766 27.9968 59.9439 27.8404 59.9434C27.7671 59.9425 27.6939 59.9277 27.6226 59.896C27.4018 59.7991 27.2725 59.566 27.3065 59.3265L29.3407 44.7669L20.954 44.7275C20.7459 44.7267 20.5568 44.6064 20.467 44.4183C20.3784 44.2299 20.4044 44.0076 20.5355 43.8447L28.5827 33.8594C28.9287 34.0016 29.2728 34.1505 29.6149 34.3063L22.0863 43.6474L29.9661 43.6853C30.1224 43.6857 30.2717 43.7549 30.3745 43.8727C30.4761 43.9909 30.5223 44.1476 30.5002 44.3033ZM34.4854 39.7182C34.3844 39.5975 34.3396 39.4368 34.3652 39.2802L34.364 39.2805L34.6921 37.2956C35.0213 37.5326 35.348 37.7741 35.672 38.0201L35.5385 38.8295L36.7235 38.8353C36.9173 38.989 37.1103 39.1438 37.3028 39.2994C37.1113 39.1444 36.9192 38.9901 36.7262 38.8371L44.669 38.8747C44.8797 38.876 45.0706 38.9985 45.1587 39.1895C45.2467 39.3806 45.2163 39.6053 45.0811 39.7668L42.1078 43.3002C41.8283 43.0713 41.5498 42.8408 41.2721 42.6089L43.5062 39.954L38.0727 39.9283L37.8664 39.7589C37.934 39.8144 38.0015 39.87 38.069 39.9257L34.8974 39.9109C34.7384 39.9098 34.5879 39.8399 34.4854 39.7182Z" fill="#00FF7F"/>
<path d="M36.6281 25.602L36.8436 25.6377L36.9792 24.8182L36.4579 25.4649L36.6281 25.602ZM34.6935 37.2954L34.4779 37.2598L34.4558 37.3935L34.5658 37.4727L34.6935 37.2954ZM29.6134 34.3053L29.5229 34.5042L29.6772 34.5744L29.7836 34.4424L29.6134 34.3053ZM28.5812 33.8585L28.4111 33.7214L28.2274 33.9493L28.4982 34.0606L28.5812 33.8585ZM37.079 23.3151L36.909 23.1779L36.9089 23.178L37.079 23.3151ZM37.7226 23.161L37.6323 23.36L37.6329 23.3603L37.7226 23.161ZM38.0359 23.744L37.8204 23.7077L37.8203 23.7083L38.0359 23.744ZM35.6741 38.0204L35.542 38.1945L35.8305 38.4135L35.8896 38.0561L35.6741 38.0204ZM28.6416 57.6104L28.4252 57.5802L28.3203 58.3315L28.8087 57.7511L28.6416 57.6104ZM30.5002 44.3033L30.2839 44.2727L30.2839 44.2731L30.5002 44.3033ZM41.2696 42.6077L41.4096 42.44L41.2426 42.3004L41.1024 42.467L41.2696 42.6077ZM42.1052 43.299L42.2724 43.4397L42.415 43.2703L42.2437 43.13L42.1052 43.299ZM28.2584 59.7503L28.4253 59.8913L28.4255 59.891L28.2584 59.7503ZM27.8404 59.9434L27.8378 60.1619L27.8397 60.1619L27.8404 59.9434ZM27.6226 59.896L27.7112 59.6963L27.7104 59.696L27.6226 59.896ZM27.3065 59.3265L27.5229 59.3572L27.5229 59.3567L27.3065 59.3265ZM29.3407 44.7669L29.5571 44.7971L29.5917 44.5496L29.3417 44.5484L29.3407 44.7669ZM20.954 44.7275L20.955 44.509H20.9548L20.954 44.7275ZM20.467 44.4183L20.2693 44.5113L20.2698 44.5124L20.467 44.4183ZM20.5355 43.8447L20.3654 43.7076L20.3652 43.7077L20.5355 43.8447ZM28.5827 33.8594L28.6657 33.6573L28.5149 33.5954L28.4126 33.7223L28.5827 33.8594ZM29.6149 34.3063L29.785 34.4434L29.9617 34.2242L29.7055 34.1075L29.6149 34.3063ZM22.0863 43.6474L21.9162 43.5103L21.6313 43.8637L22.0853 43.8659L22.0863 43.6474ZM29.9661 43.6853L29.965 43.9037H29.9654L29.9661 43.6853ZM30.3745 43.8727L30.5401 43.7303L30.5391 43.7291L30.3745 43.8727ZM34.3652 39.2802L34.5808 39.3154L34.635 38.9836L34.3098 39.0689L34.3652 39.2802ZM34.4854 39.7182L34.3178 39.8584L34.3183 39.859L34.4854 39.7182ZM34.364 39.2805L34.1484 39.2449L34.0935 39.5773L34.4194 39.4919L34.364 39.2805ZM34.6921 37.2956L34.8198 37.1183L34.534 36.9125L34.4765 37.26L34.6921 37.2956ZM35.672 38.0201L35.8876 38.0556L35.909 37.9257L35.8041 37.8461L35.672 38.0201ZM35.5385 38.8295L35.3229 38.794L35.2812 39.0468L35.5374 39.048L35.5385 38.8295ZM36.7235 38.8353L36.8593 38.6641L36.8001 38.6172L36.7246 38.6168L36.7235 38.8353ZM37.3028 39.2994L37.1654 39.4693L37.4403 39.1296L37.3028 39.2994ZM36.7262 38.8371L36.7272 38.6186L36.0955 38.6156L36.5904 39.0082L36.7262 38.8371ZM44.669 38.8747L44.6703 38.6562L44.67 38.6562L44.669 38.8747ZM45.1587 39.1895L44.9602 39.2809L45.1587 39.1895ZM45.0811 39.7668L45.2482 39.9075L45.2486 39.907L45.0811 39.7668ZM42.1078 43.3002L41.9693 43.4692L42.1361 43.6059L42.2749 43.4409L42.1078 43.3002ZM41.2721 42.6089L41.1049 42.4682L40.9637 42.636L41.1321 42.7766L41.2721 42.6089ZM43.5062 39.954L43.6734 40.0947L43.9738 39.7377L43.5072 39.7355L43.5062 39.954ZM38.0727 39.9283L37.934 40.0972L37.994 40.1464L38.0716 40.1468L38.0727 39.9283ZM37.8664 39.7589L38.005 39.59L37.7277 39.9277L37.8664 39.7589ZM38.069 39.9257L38.068 40.1442L38.6804 40.1471L38.2081 39.7572L38.069 39.9257ZM34.8974 39.9109L34.8959 40.1294L34.8963 40.1294L34.8974 39.9109ZM36.4125 25.5664L34.4779 37.2598L34.909 37.3311L36.8436 25.6377L36.4125 25.5664ZM29.7836 34.4424L36.7982 25.7392L36.4579 25.4649L29.4433 34.1682L29.7836 34.4424ZM28.4982 34.0606C28.8417 34.2017 29.1833 34.3495 29.5229 34.5042L29.704 34.1065C29.3594 33.9496 29.0128 33.7995 28.6642 33.6564L28.4982 34.0606ZM36.9089 23.178L28.4111 33.7214L28.7514 33.9956L37.2491 23.4522L36.9089 23.178ZM37.813 22.9621C37.4983 22.8192 37.126 22.909 36.909 23.1779L37.249 23.4523C37.3419 23.3373 37.5005 23.3001 37.6323 23.36L37.813 22.9621ZM38.2513 23.7802C38.3089 23.4384 38.1261 23.1031 37.8123 22.9618L37.6329 23.3603C37.7679 23.4211 37.8445 23.5644 37.8204 23.7077L38.2513 23.7802ZM35.8896 38.0561L38.2514 23.7796L37.8203 23.7083L35.4585 37.9848L35.8896 38.0561ZM34.5658 37.4727C34.8938 37.7089 35.2192 37.9495 35.542 38.1945L35.8062 37.8464C35.4805 37.5992 35.1521 37.3564 34.8211 37.1181L34.5658 37.4727ZM28.858 57.6407L30.7166 44.3336L30.2839 44.2731L28.4252 57.5802L28.858 57.6407ZM41.1024 42.467L28.4744 57.4697L28.8087 57.7511L41.4367 42.7484L41.1024 42.467ZM42.2437 43.13C41.9648 42.9015 41.6868 42.6715 41.4096 42.44L41.1295 42.7754C41.4077 43.0077 41.6868 43.2386 41.9667 43.468L42.2437 43.13ZM28.4255 59.891L42.2724 43.4397L41.9381 43.1583L28.0912 59.6096L28.4255 59.891ZM27.8397 60.1619C28.0585 60.1625 28.2756 60.0686 28.4253 59.8913L28.0914 59.6094C28.0278 59.6847 27.9351 59.7252 27.8411 59.7249L27.8397 60.1619ZM27.534 60.0958C27.6336 60.14 27.7362 60.1606 27.8378 60.1618L27.843 59.7249C27.798 59.7243 27.7542 59.7154 27.7112 59.6963L27.534 60.0958ZM27.0902 59.2957C27.0424 59.6318 27.2238 59.9595 27.5348 60.0961L27.7104 59.696C27.5799 59.6386 27.5025 59.5002 27.5229 59.3572L27.0902 59.2957ZM29.1243 44.7367L27.0902 59.2962L27.5229 59.3567L29.5571 44.7971L29.1243 44.7367ZM20.953 44.946L29.3397 44.9854L29.3417 44.5484L20.955 44.509L20.953 44.946ZM20.2698 44.5124C20.3955 44.7758 20.6607 44.9449 20.9532 44.946L20.9548 44.509C20.8311 44.5086 20.718 44.437 20.6642 44.3242L20.2698 44.5124ZM20.3652 43.7077C20.1817 43.936 20.1453 44.2475 20.2693 44.5113L20.6648 44.3253C20.6116 44.2123 20.6272 44.0792 20.7057 43.9816L20.3652 43.7077ZM28.4126 33.7223L20.3654 43.7076L20.7056 43.9818L28.7528 33.9965L28.4126 33.7223ZM29.7055 34.1075C29.3609 33.9506 29.0143 33.8005 28.6657 33.6573L28.4997 34.0616C28.8432 34.2026 29.1847 34.3505 29.5244 34.5052L29.7055 34.1075ZM22.2564 43.7845L29.785 34.4434L29.4448 34.1692L21.9162 43.5103L22.2564 43.7845ZM29.9671 43.4668L22.0874 43.4289L22.0853 43.8659L29.965 43.9037L29.9671 43.4668ZM30.5391 43.7291C30.3956 43.5646 30.187 43.4674 29.9667 43.4668L29.9654 43.9037C30.0579 43.904 30.1477 43.9452 30.2098 44.0164L30.5391 43.7291ZM30.7166 44.334C30.7475 44.1159 30.6828 43.8962 30.5401 43.7303L30.2088 44.0152C30.2694 44.0857 30.2971 44.1793 30.2839 44.2727L30.7166 44.334ZM34.1496 39.245C34.1137 39.4647 34.1764 39.6893 34.3178 39.8584L34.653 39.5781C34.5924 39.5056 34.5656 39.4088 34.5808 39.3154L34.1496 39.245ZM34.4194 39.4919L34.4206 39.4916L34.3098 39.0689L34.3086 39.0692L34.4194 39.4919ZM34.4765 37.26L34.1484 39.2449L34.5796 39.3161L34.9077 37.3312L34.4765 37.26ZM35.8041 37.8461C35.4786 37.599 35.1505 37.3564 34.8198 37.1183L34.5644 37.4729C34.8922 37.7089 35.2173 37.9493 35.5399 38.1941L35.8041 37.8461ZM35.7541 38.8651L35.8876 38.0556L35.4564 37.9846L35.3229 38.794L35.7541 38.8651ZM36.7246 38.6168L35.5396 38.611L35.5374 39.048L36.7225 39.0538L36.7246 38.6168ZM37.4402 39.1296C37.2472 38.9735 37.0536 38.8183 36.8593 38.6641L36.5877 39.0065C36.7809 39.1597 36.9734 39.3141 37.1654 39.4693L37.4402 39.1296ZM36.5904 39.0082C36.7827 39.1608 36.9742 39.3146 37.1654 39.4693L37.4403 39.1296C37.2483 38.9742 37.0556 38.8195 36.862 38.6659L36.5904 39.0082ZM44.67 38.6562L36.7272 38.6186L36.7252 39.0556L44.6679 39.0932L44.67 38.6562ZM45.3571 39.0981C45.2334 38.8295 44.9653 38.6581 44.6703 38.6562L44.6676 39.0932C44.7941 39.094 44.9079 39.1674 44.9602 39.2809L45.3571 39.0981ZM45.2486 39.907C45.4377 39.6811 45.4807 39.3663 45.3571 39.0981L44.9602 39.2809C45.0127 39.3949 44.9948 39.5295 44.9135 39.6266L45.2486 39.907ZM42.2749 43.4409L45.2482 39.9075L44.9139 39.6261L41.9406 43.1595L42.2749 43.4409ZM41.1321 42.7766C41.4103 43.009 41.6893 43.2398 41.9693 43.4692L42.2462 43.1312C41.9674 42.9027 41.6893 42.6727 41.4122 42.4412L41.1321 42.7766ZM43.339 39.8133L41.1049 42.4682L41.4393 42.7496L43.6734 40.0947L43.339 39.8133ZM38.0716 40.1468L43.5052 40.1725L43.5072 39.7355L38.0737 39.7098L38.0716 40.1468ZM37.7277 39.9277L37.934 40.0972L38.2114 39.7595L38.005 39.59L37.7277 39.9277ZM38.2081 39.7572C38.1405 39.7014 38.0728 39.6457 38.005 39.59L37.7277 39.9277C37.7951 39.9831 37.8626 40.0386 37.9299 40.0942L38.2081 39.7572ZM34.8963 40.1294L38.068 40.1442L38.07 39.7072L34.8984 39.6924L34.8963 40.1294ZM34.3183 39.859C34.4623 40.03 34.6737 40.1279 34.8959 40.1294L34.8988 39.6924C34.8032 39.6918 34.7134 39.6497 34.6525 39.5774L34.3183 39.859Z" fill="#00FF7F"/>
</svg>