<svg xmlns="http://www.w3.org/2000/svg" width="94" height="94" viewBox="0 0 94 94" fill="none">
  <g clip-path="url(#clip0_6882_1605)">
    <path d="M61.5353 14.9558V63.6557C61.5353 70.6273 55.8835 76.279 48.9119 76.279H14.6696C7.69804 76.279 2.04629 70.6273 2.04629 63.6557V14.9558C2.04629 7.98415 7.69804 2.3324 14.6696 2.3324H48.9119C55.8835 2.3324 61.5353 7.98415 61.5353 14.9558Z" fill="url(#paint0_linear_6882_1605)"/>
    <path d="M75.0966 41.8132V49.0868C75.0966 53.7419 78.8702 57.5154 83.5252 57.5154C88.1802 57.5154 91.9538 53.7419 91.9538 49.0868V41.8132C91.9538 40.7377 91.0819 39.8658 90.0064 39.8658H77.044C75.9685 39.8658 75.0966 40.7377 75.0966 41.8132Z" fill="url(#paint1_linear_6882_1605)"/>
    <path d="M77.9677 32.9433V39.8659H89.0829V32.9433C89.0829 31.422 87.8497 30.1888 86.3284 30.1888H80.7224C79.2011 30.1888 77.9677 31.422 77.9677 32.9433Z" fill="url(#paint2_linear_6882_1605)"/>
    <path d="M18.3032 17.2083C18.3032 18.9928 16.8574 20.4386 15.0727 20.4386C13.2768 20.4386 11.831 18.9928 11.831 17.2083C11.831 15.4236 13.2768 13.9666 15.0727 13.9666C16.8574 13.9666 18.3032 15.4237 18.3032 17.2083Z" fill="url(#paint3_linear_6882_1605)"/>
    <path d="M30.8669 17.2083C30.8669 18.9928 29.4211 20.4386 27.6364 20.4386C25.8405 20.4386 24.3947 18.9928 24.3947 17.2083C24.3947 15.4236 25.8405 13.9666 27.6364 13.9666C29.4211 13.9666 30.8669 15.4237 30.8669 17.2083Z" fill="url(#paint4_linear_6882_1605)"/>
    <path d="M48.9116 77.7195C56.6671 77.7195 62.9761 71.4105 62.9761 63.6564V14.9567C62.9761 7.20111 56.6671 0.89209 48.9116 0.89209H14.669C6.91487 0.89209 0.605858 7.20111 0.605858 14.9567V63.6564C0.605858 71.4105 6.91487 77.7195 14.669 77.7195H48.9116ZM3.48736 63.6564V14.9567C3.48736 8.78974 8.50333 3.77359 14.669 3.77359H48.9116C55.0785 3.77359 60.0946 8.78956 60.0946 14.9567V63.6564C60.0946 69.822 55.0787 74.838 48.9116 74.838H14.669C8.50351 74.8378 3.48736 69.8218 3.48736 63.6564Z" fill="url(#paint5_linear_6882_1605)"/>
    <path d="M90.5243 38.478V32.944C90.5243 30.6309 88.6418 28.7483 86.3287 28.7483H80.7232C78.4101 28.7483 76.5275 30.6309 76.5275 32.944V38.478C74.9051 38.729 73.6557 40.1223 73.6557 41.8139V49.0868C73.6557 54.0365 77.3223 58.1352 82.0796 58.8388V76.2802C82.0796 83.9694 75.8297 90.2265 68.1472 90.2265H64.3721C58.6372 90.2265 53.5577 86.7878 51.4317 81.465C51.1363 80.7235 50.2962 80.3675 49.5591 80.6616C48.8205 80.957 48.4602 81.7957 48.7556 82.5343C51.3221 88.9573 57.451 93.108 64.3721 93.108H68.1472C77.4179 93.108 84.9611 85.5594 84.9611 76.28V58.8402C89.7237 58.1415 93.3948 54.0402 93.3948 49.0864V41.8136C93.3946 40.1227 92.146 38.7294 90.5243 38.478ZM79.4088 32.944C79.4088 32.2193 79.9983 31.6298 80.723 31.6298H82.0851V32.8863C82.0851 33.6827 82.7295 34.3272 83.5259 34.3272C84.3223 34.3272 84.9668 33.6827 84.9668 32.8863V31.6298H86.3288C87.0535 31.6298 87.643 32.2193 87.643 32.944V38.4257H79.4092V32.944H79.4088ZM90.5129 49.0866C90.5129 52.9404 87.3781 56.0753 83.5257 56.0753C79.6719 56.0753 76.5371 52.9404 76.5371 49.0866V41.8137C76.5371 41.5338 76.7636 41.3072 77.0436 41.3072H90.0064C90.2864 41.3072 90.5129 41.5338 90.5129 41.8137V49.0866Z" fill="url(#paint6_linear_6882_1605)"/>
    <path d="M19.7441 17.2078C19.7441 14.6259 17.6491 12.5253 15.0728 12.5253C12.4909 12.5253 10.3902 14.6259 10.3902 17.2078C10.3902 19.784 12.4909 21.8792 15.0728 21.8792C17.649 21.879 19.7441 19.784 19.7441 17.2078ZM13.2717 17.2078C13.2717 16.2144 14.0793 15.4068 15.0728 15.4068C16.059 15.4068 16.8624 16.2144 16.8624 17.2078C16.8624 18.1941 16.059 18.9975 15.0728 18.9975C14.0793 18.9975 13.2717 18.1941 13.2717 17.2078Z" fill="url(#paint7_linear_6882_1605)"/>
    <path d="M27.6364 21.8791C30.2126 21.8791 32.3078 19.7841 32.3078 17.2077C32.3078 14.6258 30.2128 12.5251 27.6364 12.5251C25.0545 12.5251 22.9539 14.6258 22.9539 17.2077C22.9539 19.7841 25.0545 21.8791 27.6364 21.8791ZM27.6364 15.4068C28.6227 15.4068 29.4261 16.2145 29.4261 17.2079C29.4261 18.1942 28.6227 18.9976 27.6364 18.9976C26.643 18.9976 25.8354 18.1942 25.8354 17.2079C25.8354 16.2145 26.643 15.4068 27.6364 15.4068Z" fill="url(#paint8_linear_6882_1605)"/>
    <path d="M26.1318 56.9763L32.8852 42.8429L24.147 42.708L34.8682 25.7978L29.8436 40.5363L38.9626 40.677L26.1318 56.9763Z" fill="url(#paint9_linear_6882_1605)"/>
  </g>
  <defs>
    <linearGradient id="paint0_linear_6882_1605" x1="-30.1282" y1="39.7692" x2="92.1923" y2="39.7692" gradientUnits="userSpaceOnUse">
      <stop stop-color="#871FFF"/>
      <stop offset="1" stop-color="#200242"/>
    </linearGradient>
    <linearGradient id="paint1_linear_6882_1605" x1="85.5641" y1="57.8461" x2="84.9615" y2="13.2564" gradientUnits="userSpaceOnUse">
      <stop stop-color="#871FFF"/>
      <stop offset="1" stop-color="white"/>
    </linearGradient>
    <linearGradient id="paint2_linear_6882_1605" x1="84.8697" y1="40.0472" x2="84.5949" y2="15.5978" gradientUnits="userSpaceOnUse">
      <stop stop-color="#871FFF"/>
      <stop offset="1" stop-color="white"/>
    </linearGradient>
    <linearGradient id="paint3_linear_6882_1605" x1="15.0949" y1="23.3748" x2="15.0949" y2="13.9425" gradientUnits="userSpaceOnUse">
      <stop stop-color="#871FFF"/>
      <stop offset="1" stop-color="white"/>
    </linearGradient>
    <linearGradient id="paint4_linear_6882_1605" x1="27.6585" y1="23.3748" x2="27.6585" y2="13.9425" gradientUnits="userSpaceOnUse">
      <stop stop-color="#871FFF"/>
      <stop offset="1" stop-color="white"/>
    </linearGradient>
    <linearGradient id="paint5_linear_6882_1605" x1="0.605858" y1="39.3058" x2="62.9761" y2="39.3058" gradientUnits="userSpaceOnUse">
      <stop stop-color="#871FFF"/>
      <stop offset="1" stop-color="#200242"/>
    </linearGradient>
    <linearGradient id="paint6_linear_6882_1605" x1="48.6524" y1="60.9281" x2="112.68" y2="62.6666" gradientUnits="userSpaceOnUse">
      <stop stop-color="#871FFF"/>
      <stop offset="1" stop-color="#200242"/>
    </linearGradient>
    <linearGradient id="paint7_linear_6882_1605" x1="10.3902" y1="17.2022" x2="19.7441" y2="17.2022" gradientUnits="userSpaceOnUse">
      <stop stop-color="#871FFF"/>
      <stop offset="1" stop-color="#200242"/>
    </linearGradient>
    <linearGradient id="paint8_linear_6882_1605" x1="22.9539" y1="17.2021" x2="32.3078" y2="17.2021" gradientUnits="userSpaceOnUse">
      <stop stop-color="#871FFF"/>
      <stop offset="1" stop-color="#200242"/>
    </linearGradient>
    <linearGradient id="paint9_linear_6882_1605" x1="31.1618" y1="71.2602" x2="31.8661" y2="25.6348" gradientUnits="userSpaceOnUse">
      <stop stop-color="#871FFF"/>
      <stop offset="1" stop-color="white"/>
    </linearGradient>
    <clipPath id="clip0_6882_1605">
      <rect width="94" height="94" fill="white"/>
    </clipPath>
  </defs>
</svg>
