<svg xmlns="http://www.w3.org/2000/svg" width="79" height="18" viewBox="0 0 79 18" fill="none">
  <g opacity="0.7" clip-path="url(#clip0_4385_18324)">
    <path fill-rule="evenodd" clip-rule="evenodd" d="M33.7893 8.55319C34.2667 8.36848 34.6763 8.04236 34.9632 7.61848C35.2501 7.1946 35.4008 6.69319 35.3949 6.18137C35.3949 4.04672 33.8806 2.98853 31.8007 2.98853H26.3455V14.5959H32.275C34.0995 14.5959 35.8875 13.3187 35.8875 11.3665C35.8875 9.0458 33.7893 8.57508 33.7893 8.55319ZM29.1916 5.39684H31.308C31.4436 5.38844 31.5794 5.40685 31.7078 5.45101C31.8362 5.49517 31.9546 5.56422 32.0563 5.65421C32.158 5.7442 32.2409 5.85335 32.3004 5.97543C32.3598 6.0975 32.3946 6.2301 32.4027 6.36564C32.4027 6.40699 32.4027 6.44896 32.4027 6.49153C32.397 6.77688 32.2787 7.0484 32.0737 7.24695C31.8686 7.4455 31.5934 7.55498 31.308 7.55155H29.1734L29.1916 5.39684ZM31.3263 12.1657H29.2099V9.88506H31.2716C32.3115 9.88506 32.8041 10.3412 32.8041 11.0162C32.8041 11.8591 32.1838 12.1657 31.3263 12.1657Z" fill="#ED0007"/>
    <path fill-rule="evenodd" clip-rule="evenodd" d="M42.1638 2.69653C38.8067 2.69653 36.8363 5.37852 36.8363 8.77205C36.8363 12.1656 38.8067 14.8476 42.1638 14.8476C45.5208 14.8476 47.4913 12.1838 47.4913 8.77205C47.4913 5.36028 45.5391 2.69653 42.1638 2.69653ZM42.1638 12.0744C40.5218 12.0744 39.7007 10.5965 39.7007 8.77205C39.7007 6.94757 40.5218 5.48799 42.1638 5.48799C43.8058 5.48799 44.6451 6.96582 44.6451 8.77205C44.6451 10.6148 43.8058 12.0744 42.1638 12.0744Z" fill="#ED0007"/>
    <path fill-rule="evenodd" clip-rule="evenodd" d="M53.6761 7.54971L53.2747 7.45848C52.2895 7.25779 51.505 7.00236 51.505 6.29082C51.505 5.52453 52.253 5.21437 52.9098 5.21437C53.3579 5.22105 53.7998 5.32009 54.2079 5.5053C54.6161 5.69052 54.9816 5.95793 55.2816 6.29082L57.0879 4.50283C56.2668 3.57234 54.935 2.67834 52.8551 2.67834C50.4103 2.67834 48.5493 4.04671 48.5493 6.32731C48.5493 8.40721 50.0454 9.42892 51.8698 9.81206L52.2712 9.90329C53.7856 10.2134 54.3511 10.4506 54.3511 11.1804C54.3511 11.8737 53.7308 12.3298 52.7821 12.3298C51.6509 12.3298 50.6292 11.8372 49.8447 10.8338L48.002 12.6583C49.0237 13.8807 50.319 14.8294 52.8186 14.8294C54.9897 14.8294 57.3068 13.5887 57.3068 11.0527C57.3433 8.40721 55.3364 7.89636 53.6761 7.54971Z" fill="#ED0007"/>
    <path fill-rule="evenodd" clip-rule="evenodd" d="M63.802 12.0744C62.5249 12.0744 61.193 11.0162 61.193 8.69914C61.193 6.63748 62.4337 5.48805 63.7291 5.48805C64.7508 5.48805 65.3529 5.96242 65.8272 6.78343L68.1626 5.23263C66.9949 3.46288 65.6083 2.71484 63.6926 2.71484C60.1896 2.71484 58.2921 5.43332 58.2921 8.71738C58.2921 12.1657 60.3903 14.8659 63.6561 14.8659C65.9549 14.8659 67.0496 14.0631 68.2355 12.3481L65.882 10.7645C65.4076 11.5271 64.8967 12.0744 63.802 12.0744Z" fill="#ED0007"/>
    <path fill-rule="evenodd" clip-rule="evenodd" d="M75.9531 2.98853V7.25781H72.4319V2.98853H69.385V14.5922H72.4319V10.0128H75.9531V14.5922H79V2.98853H75.9531Z" fill="#ED0007"/>
    <path d="M8.794 0.0328369C7.05471 0.0328369 5.35448 0.548596 3.90832 1.51489C2.46215 2.48119 1.335 3.85462 0.669407 5.46152C0.0038103 7.06841 -0.17034 8.83659 0.168978 10.5425C0.508296 12.2483 1.34584 13.8153 2.57571 15.0451C3.80557 16.275 5.37251 17.1125 7.07838 17.4519C8.78424 17.7912 10.5524 17.617 12.1593 16.9514C13.7662 16.2858 15.1396 15.1587 16.1059 13.7125C17.0722 12.2663 17.588 10.5661 17.588 8.82683C17.588 6.49452 16.6615 4.25773 15.0123 2.60854C13.3631 0.959344 11.1263 0.0328369 8.794 0.0328369ZM8.794 16.7998C7.21709 16.7998 5.6756 16.3322 4.36445 15.4561C3.0533 14.58 2.03138 13.3348 1.42793 11.878C0.824471 10.4211 0.666579 8.81799 0.974219 7.27138C1.28186 5.72477 2.04121 4.30413 3.15625 3.18908C4.27129 2.07404 5.69194 1.31469 7.23855 1.00705C8.78516 0.699413 10.3883 0.857304 11.8451 1.46076C13.302 2.06422 14.5472 3.08613 15.4233 4.39728C16.2994 5.70843 16.767 7.24993 16.767 8.82683C16.7665 10.9412 15.9263 12.9689 14.4312 14.464C12.9361 15.9592 10.9084 16.7993 8.794 16.7998Z" fill="white"/>
    <path d="M12.4247 3.33521H11.8227V6.3456H5.78362V3.33521H5.1633C4.25472 3.9346 3.50906 4.75006 2.99314 5.7085C2.47722 6.66694 2.20715 7.73841 2.20715 8.82689C2.20715 9.91537 2.47722 10.9868 2.99314 11.9453C3.50906 12.9037 4.25472 13.7192 5.1633 14.3186H5.78362V11.3118H11.8227V14.3222H12.4247C13.3337 13.7231 14.0797 12.9078 14.5959 11.9493C15.1121 10.9908 15.3824 9.91918 15.3824 8.83054C15.3824 7.7419 15.1121 6.67027 14.5959 5.7118C14.0797 4.75332 13.3337 3.93796 12.4247 3.33885V3.33521ZM4.94436 13.1363C4.37852 12.6335 3.91726 12.0243 3.58691 11.3432C3.25656 10.6622 3.0636 9.92273 3.01904 9.16711C2.97449 8.41149 3.07921 7.65449 3.32722 6.93935C3.57524 6.2242 3.96169 5.56491 4.46452 4.99913C4.61523 4.83078 4.77544 4.67119 4.94436 4.52112V13.1363ZM11.8227 10.4726H5.78362V7.16661H11.8227V10.4726ZM12.6437 13.1181V11.2936V6.3456V4.52112C13.2081 5.02797 13.6672 5.64107 13.9946 6.3254C14.322 7.00972 14.5114 7.75186 14.5519 8.50939C14.5924 9.26693 14.4832 10.025 14.2306 10.7404C13.978 11.4557 13.5869 12.1142 13.0797 12.6784C12.9418 12.8309 12.7962 12.9765 12.6437 13.1144V13.1181Z" fill="white"/>
  </g>
  <defs>
    <clipPath id="clip0_4385_18324">
      <rect width="79" height="17.6975" fill="white"/>
    </clipPath>
  </defs>
</svg>