<svg xmlns="http://www.w3.org/2000/svg" width="83" height="15" viewBox="0 0 83 15" fill="none">
<g opacity="0.7">
<path d="M0.396729 0.399048V1.80886H82.6033V0.399048H0.396729ZM0.396729 12.2136V13.6234H82.6033V12.2136H0.396729Z" fill="#BA0C2F"/>
<path d="M70.7443 3.10736C70.2364 3.0982 69.7319 3.19198 69.2612 3.38306C68.7906 3.57414 68.3635 3.85856 68.0057 4.21917C67.6479 4.57978 67.3669 5.0091 67.1795 5.48126C66.9922 5.95342 66.9024 6.45863 66.9156 6.96644C66.9156 9.15471 68.5532 10.8733 70.697 10.8733H70.7443C71.2526 10.8741 71.7559 10.7735 72.2249 10.5773C72.6938 10.3811 73.1189 10.0934 73.4752 9.73083C73.8315 9.36831 74.1118 8.93832 74.2999 8.46606C74.4879 7.99381 74.5798 7.48878 74.5702 6.98055C74.5798 6.47325 74.4878 5.96915 74.2995 5.49798C74.1113 5.0268 73.8306 4.59809 73.474 4.23711C73.1175 3.87613 72.6922 3.5902 72.2234 3.39617C71.7546 3.20214 71.2516 3.10394 70.7443 3.10736ZM3.20775 3.15461C1.56446 3.15461 0.42722 3.94445 0.42722 5.27911C0.398542 5.78256 0.55933 6.27851 0.877944 6.66937C1.09145 6.88451 1.33164 7.0714 1.59265 7.22548C1.98179 7.4331 2.38716 7.60873 2.80477 7.75063L3.30821 7.91735C3.86432 8.10087 4.03104 8.24298 4.17007 8.43762C4.24382 8.55353 4.27882 8.6899 4.27 8.827C4.27 9.23296 3.84213 9.48303 3.09695 9.48303C2.61937 9.48662 2.14615 9.39197 1.70668 9.20498C1.27046 9.02147 0.853964 8.79421 0.463589 8.52668V10.1727C0.674195 10.3102 0.902347 10.4187 1.1419 10.4953C1.77729 10.7651 2.45939 10.9077 3.14964 10.9151C4.92918 10.9151 6.11916 10.0058 6.11916 8.64887C6.11916 8.60438 6.1111 8.55182 6.1111 8.49899C6.10756 8.16777 6.0163 7.8434 5.84661 7.55893C5.55188 7.00282 4.94314 6.59669 4.03112 6.26859L3.45547 6.06874C2.5935 5.79068 2.22378 5.48448 2.22378 5.15638C2.22378 4.75042 2.72994 4.57844 3.37781 4.53673C3.97999 4.50177 4.58325 4.58384 5.15421 4.7784V3.38813C4.5197 3.21874 3.86432 3.14012 3.20775 3.15461ZM5.94101 3.21869V4.62254H7.85699V10.7956H9.66976V4.62254H11.5857V3.21869H5.94101ZM12.5366 3.21869L12.5197 10.7956H14.3493V3.21869H12.5366ZM16.0204 3.21869V10.7956H20.7142V9.38854H17.8305V7.59531H20.4248V6.18821H17.8305V4.62254H20.617V3.21869H16.0204ZM29.2144 3.21869V10.7956H33.9104V9.38854H31.0272V7.59531H33.6214V6.18821H31.0272V4.62254H33.8131V3.21869H29.2144ZM35.4869 3.21869V10.7956H39.9526V9.38854H37.3002V3.21869H35.4869ZM43.5504 3.21869V10.7956H48.2469V9.38854H45.3638V7.59531H47.958V6.18821H45.3638V4.62254H48.1497V3.21869H43.5504ZM49.7654 3.21869V10.7956H54.2278V9.38854H51.5781V3.21869H49.7654ZM53.4409 3.21869V4.62254H55.3568V10.7956H57.1696V4.62254H59.0856V3.21869H53.4409ZM60.1782 3.21869V10.7956H61.9829V7.67297H62.2609C62.4473 7.65746 62.635 7.67157 62.817 7.71479C63.1701 7.82323 63.5314 8.28165 63.8233 8.93507L64.1182 9.57481L64.3382 10.0641L64.4772 10.4144L64.6162 10.7261L64.6662 10.7984H66.7516L66.6956 10.6762L66.4871 10.2531L66.2623 9.74697L66.0537 9.31903L65.7561 8.67657C65.4002 7.88968 65.0694 7.45616 64.6662 7.25318C64.904 7.15811 65.1247 7.02474 65.3195 6.85836C65.5239 6.67531 65.6873 6.45111 65.7989 6.20047C65.9106 5.94982 65.968 5.6784 65.9674 5.40402C65.9639 5.04546 65.8725 4.69322 65.7014 4.37814C65.5302 4.06306 65.2844 3.79474 64.9855 3.59667C64.4961 3.29915 64.0987 3.21869 62.9865 3.21869H60.1782ZM75.8605 3.22147V10.7984H77.6092V6.18827V6.11332H77.6234L77.6625 6.18827L81.0295 10.7984H82.517V3.22146H80.8015V7.63121V7.67574H80.7906L80.7711 7.63121L77.4622 3.22146L75.8605 3.22147ZM22.0486 3.2269V10.7957L24.9964 10.8343H25.2272C25.5607 10.8357 25.8937 10.8088 26.2226 10.7539C26.5343 10.7068 26.831 10.5888 27.0899 10.409C27.3672 10.1998 27.5898 9.9267 27.7389 9.61299C27.888 9.29928 27.9592 8.95421 27.9463 8.6071C27.9463 7.63114 27.4569 6.96657 26.4643 6.63847H26.4615C26.7468 6.50121 26.9878 6.28674 27.1573 6.0194C27.3269 5.75206 27.4181 5.44256 27.4206 5.12601C27.4098 4.72772 27.2709 4.34351 27.0245 4.03044C26.778 3.71737 26.4372 3.49213 26.0526 3.38818C25.7101 3.2836 25.3543 3.22927 24.9963 3.22688L22.0486 3.2269ZM23.87 4.58675H24.532C24.6885 4.57971 24.8452 4.59083 24.9991 4.61987C25.1878 4.64022 25.361 4.73372 25.4817 4.88032C25.6023 5.02692 25.6606 5.21494 25.6442 5.40406C25.6577 5.593 25.598 5.77987 25.4773 5.92589C25.3567 6.07192 25.1844 6.16588 24.9964 6.18826C24.8296 6.21283 24.6614 6.2268 24.4929 6.23008H23.8673L23.87 4.58675ZM61.9964 4.62531H62.9506C63.6402 4.62531 64.0433 4.89254 64.0433 5.49314C64.0436 5.6078 64.0202 5.72128 63.9747 5.82651C63.9291 5.93174 63.8624 6.02645 63.7786 6.10473C63.6948 6.18301 63.5958 6.24317 63.4877 6.28147C63.3796 6.31976 63.2648 6.33536 63.1505 6.3273H62.9256H61.9964V4.62531ZM70.7443 4.68938C71.8926 4.68938 72.6906 5.60431 72.6906 7.0474C72.6906 8.3765 71.8565 9.33319 70.7443 9.33319C69.5848 9.33319 68.7979 8.41531 68.7979 7.00558C68.7979 5.59586 69.5542 4.68938 70.7443 4.68938ZM23.8673 7.59536H24.9964C25.8055 7.63985 26.1308 7.92885 26.1308 8.52945C26.1308 9.13004 25.7805 9.41368 24.9964 9.45538H23.8673V7.59536Z" fill="white"/>
</g>
</svg>