<svg width="24" height="25" viewBox="0 0 24 25" fill="none" xmlns="http://www.w3.org/2000/svg">
<g clip-path="url(#clip0_4595_18305)">
<path d="M20.0001 11.5C19.7555 9.74038 18.9391 8.10996 17.6768 6.85989C16.4144 5.60982 14.7761 4.80944 13.0141 4.58203C11.4406 4.37727 9.8416 4.63948 8.41589 5.33607C6.99017 6.03266 5.80063 7.1329 4.99512 8.50003" stroke="#FFC240" stroke-width="2" stroke-linecap="round" stroke-linejoin="round"/>
<path d="M4 13.5C4.23134 15.1651 4.97504 16.717 6.12797 17.9404C7.2809 19.1639 8.78594 19.9983 10.4344 20.328C12.0829 20.6577 13.793 20.4663 15.3279 19.7804C16.8627 19.0945 18.146 17.948 19 16.5" stroke="#FFC240" stroke-width="2" stroke-linecap="round" stroke-linejoin="round"/>
<path d="M18 16.5C18 16.7652 18.1054 17.0196 18.2929 17.2071C18.4804 17.3946 18.7348 17.5 19 17.5C19.2652 17.5 19.5196 17.3946 19.7071 17.2071C19.8946 17.0196 20 16.7652 20 16.5C20 16.2348 19.8946 15.9804 19.7071 15.7929C19.5196 15.6054 19.2652 15.5 19 15.5C18.7348 15.5 18.4804 15.6054 18.2929 15.7929C18.1054 15.9804 18 16.2348 18 16.5Z" stroke="#FFC240" stroke-width="2" stroke-linecap="round" stroke-linejoin="round"/>
<path d="M4 8.5C4 8.76522 4.10536 9.01957 4.29289 9.20711C4.48043 9.39464 4.73478 9.5 5 9.5C5.26522 9.5 5.51957 9.39464 5.70711 9.20711C5.89464 9.01957 6 8.76522 6 8.5C6 8.23478 5.89464 7.98043 5.70711 7.79289C5.51957 7.60536 5.26522 7.5 5 7.5C4.73478 7.5 4.48043 7.60536 4.29289 7.79289C4.10536 7.98043 4 8.23478 4 8.5Z" stroke="#FFC240" stroke-width="2" stroke-linecap="round" stroke-linejoin="round"/>
<path d="M10 15.5V11.5C10 10.9696 10.2107 10.4609 10.5858 10.0858C10.9609 9.71071 11.4696 9.5 12 9.5C12.5304 9.5 13.0391 9.71071 13.4142 10.0858C13.7893 10.4609 14 10.9696 14 11.5V15.5" stroke="#FFC240" stroke-width="2" stroke-linecap="round" stroke-linejoin="round"/>
<path d="M10 13.5H14" stroke="#FFC240" stroke-width="2" stroke-linecap="round" stroke-linejoin="round"/>
</g>
<defs>
<clipPath id="clip0_4595_18305">
<rect width="24" height="24" fill="white" transform="translate(0 0.5)"/>
</clipPath>
</defs>
</svg>
