<svg width="24" height="25" viewBox="0 0 24 25" fill="none" xmlns="http://www.w3.org/2000/svg">
<g clip-path="url(#clip0_1277_897)">
<path d="M10 13.9326C9.23743 14.3729 8.64145 15.0525 8.30448 15.866C7.96752 16.6795 7.9084 17.5815 8.1363 18.432C8.3642 19.2825 8.86638 20.0341 9.56496 20.5701C10.2635 21.1062 11.1195 21.3967 12 21.3967C12.8805 21.3967 13.7365 21.1062 14.435 20.5701C15.1336 20.0341 15.6358 19.2825 15.8637 18.432C16.0916 17.5815 16.0325 16.6795 15.6955 15.866C15.3586 15.0525 14.7626 14.3729 14 13.9326V5.43262C14 4.90218 13.7893 4.39348 13.4142 4.0184C13.0391 3.64333 12.5304 3.43262 12 3.43262C11.4696 3.43262 10.9609 3.64333 10.5858 4.0184C10.2107 4.39348 10 4.90218 10 5.43262V13.9326Z" stroke="#00FF7F" stroke-width="2" stroke-linecap="round" stroke-linejoin="round"/>
<path d="M10 9.43262H14" stroke="#00FF7F" stroke-width="2" stroke-linecap="round" stroke-linejoin="round"/>
</g>
<defs>
<clipPath id="clip0_1277_897">
<rect width="24" height="24" fill="white" transform="translate(0 0.432617)"/>
</clipPath>
</defs>
</svg>
