<svg width="25" height="24" viewBox="0 0 25 24" fill="none" xmlns="http://www.w3.org/2000/svg">
<g clip-path="url(#clip0_1277_880)">
<path d="M3.5 18.9998C3.5 19.5302 3.71071 20.0389 4.08579 20.414C4.46086 20.789 4.96957 20.9998 5.5 20.9998C6.03043 20.9998 6.53914 20.789 6.91421 20.414C7.28929 20.0389 7.5 19.5302 7.5 18.9998C7.5 18.4693 7.28929 17.9606 6.91421 17.5855C6.53914 17.2105 6.03043 16.9998 5.5 16.9998C4.96957 16.9998 4.46086 17.2105 4.08579 17.5855C3.71071 17.9606 3.5 18.4693 3.5 18.9998Z" stroke="#00FF7F" stroke-width="2" stroke-linecap="round" stroke-linejoin="round"/>
<path d="M19.5 6.99976C20.0304 6.99976 20.5391 6.78904 20.9142 6.41397C21.2893 6.0389 21.5 5.53019 21.5 4.99976C21.5 4.46932 21.2893 3.96061 20.9142 3.58554C20.5391 3.21047 20.0304 2.99976 19.5 2.99976C18.9696 2.99976 18.4609 3.21047 18.0858 3.58554C17.7107 3.96061 17.5 4.46932 17.5 4.99976C17.5 5.53019 17.7107 6.0389 18.0858 6.41397C18.4609 6.78904 18.9696 6.99976 19.5 6.99976Z" stroke="#00FF7F" stroke-width="2" stroke-linecap="round" stroke-linejoin="round"/>
<path d="M11.5 18.9998H17C17.9283 18.9998 18.8185 18.631 19.4749 17.9746C20.1313 17.3183 20.5 16.428 20.5 15.4998C20.5 14.5715 20.1313 13.6813 19.4749 13.0249C18.8185 12.3685 17.9283 11.9998 17 11.9998H9C8.07174 11.9998 7.1815 11.631 6.52513 10.9746C5.86875 10.3183 5.5 9.42801 5.5 8.49976C5.5 7.5715 5.86875 6.68126 6.52513 6.02488C7.1815 5.36851 8.07174 4.99976 9 4.99976H13.5" stroke="#00FF7F" stroke-width="2" stroke-linecap="round" stroke-linejoin="round"/>
</g>
<defs>
<clipPath id="clip0_1277_880">
<rect width="24" height="24" fill="white" transform="translate(0.5 -0.000244141)"/>
</clipPath>
</defs>
</svg>
