<svg xmlns="http://www.w3.org/2000/svg" width="24" height="24" viewBox="0 0 24 24" fill="none">
  <g clip-path="url(#clip0_614_10584)">
    <path d="M20 11.4323C19.7554 9.67254 18.9391 8.04198 17.6766 6.79182C16.4142 5.54166 14.7758 4.74124 13.0137 4.51388C11.2516 4.28651 9.46362 4.64481 7.9252 5.53357C6.38678 6.42233 5.18325 7.79226 4.5 9.43232M4 5.43232V9.43232H8" stroke="white" stroke-width="1.5" stroke-linecap="round" stroke-linejoin="round"/>
    <path d="M4 13.4326C4.24456 15.1924 5.06093 16.823 6.32336 18.0731C7.58579 19.3233 9.22424 20.1237 10.9863 20.3511C12.7484 20.5784 14.5364 20.2201 16.0748 19.3314C17.6132 18.4426 18.8168 17.0727 19.5 15.4326M20 19.4326V15.4326H16" stroke="white" stroke-width="1.5" stroke-linecap="round" stroke-linejoin="round"/>
  </g>
  <defs>
    <clipPath id="clip0_614_10584">
      <rect width="24" height="24" fill="white" transform="translate(0 0.432617)"/>
    </clipPath>
  </defs>
</svg>