<svg width="67" height="20" viewBox="0 0 67 20" fill="none" xmlns="http://www.w3.org/2000/svg">
<g id="eon 1" opacity="0.7" clip-path="url(#clip0_3505_11017)">
<path id="Vector" fill-rule="evenodd" clip-rule="evenodd" d="M66.8983 7.28659C66.8983 9.49768 64.2679 17.0683 63.8365 18.2043C63.5525 18.951 63.0093 19.0564 62.305 19.0564C61.0308 19.0564 60.0696 18.7531 59.601 18.3781C59.5041 18.3007 59.3838 18.1349 59.4654 17.892C59.9443 16.4644 61.7626 11.3231 61.7626 10.2125C61.7626 9.60415 61.5827 9.14726 60.9757 9.14726C57.2954 9.14726 50.5336 17.0002 49.2782 18.404C48.8674 18.863 48.2654 18.9597 47.5621 18.9597C46.6918 18.9597 45.7648 18.4978 45.6766 18.4522C45.4016 18.31 45.3884 18.1529 45.47 17.8211L45.7009 16.881C46.1239 15.1621 48.3149 8.80002 49.8339 5.35254C49.8982 5.20687 49.9613 5.08582 50.291 5.03444C50.4441 5.01034 50.9468 4.89353 51.6466 4.89353C52.1599 4.89353 53.1574 4.92982 53.6575 5.19813C53.6575 5.19813 53.6614 5.19045 53.6614 6.0298C53.6614 6.39214 53.7012 7.62455 54.861 7.62455C56.8186 7.62455 60.3718 4.26527 63.5133 4.26527C66.2754 4.26527 66.8983 5.96941 66.8983 7.28659ZM27.8159 10.0661C27.8159 10.5248 27.2812 11.7882 27.2057 11.975C26.725 13.1605 25.4645 13.3528 24.5772 13.3528C23.246 13.3528 22.7885 12.8747 22.7885 12.1201C22.7885 11.5363 23.2799 10.5283 23.3448 10.3799C23.9439 9.00662 25.0166 8.85723 26.0755 8.85723C26.9734 8.85723 27.8159 9.23069 27.8159 10.0661ZM16.4326 7.16528C16.4326 6.29122 16.3913 5.03841 15.7074 5.03841C13.4825 5.03841 9.57391 8.44113 9.18191 8.83287C8.89189 9.12316 9.10881 9.09879 9.49604 9.09879H14.4993C16.2718 9.09879 16.4326 8.80055 16.4326 7.16528ZM21.7738 7.62455C21.7738 11.9085 19.1384 12.7968 16.2149 12.7968H14.1606C12.1079 12.7968 7.97334 12.6761 7.97334 12.6761C7.64146 12.6694 7.39328 12.6032 7.39328 12.7968C7.39328 14.1937 8.97373 16.3013 11.3811 16.3013C13.277 16.3013 14.4991 15.117 14.7647 14.8366C14.7647 14.8366 16.9432 14.5855 18.3417 14.5855C19.6997 14.5855 21.7013 14.8027 21.7013 15.5761C21.7013 17.0847 16.7989 19.4675 12.6861 19.4675C6.49407 19.4675 0.916016 16.1037 0.916016 12.0475C0.916016 5.2511 14.0326 0.132324 17.8584 0.132324C21.3037 0.132324 21.7738 5.61926 21.7738 7.62455ZM38.2087 7.47941C37.7425 7.47941 37.0486 7.55225 36.7342 7.98689C35.5569 9.61713 34.7766 13.6931 34.7766 14.827C34.7766 15.6012 35.3145 15.552 36.0334 15.552C36.4516 15.552 37.1265 15.5623 37.5076 15.1653C38.5419 14.0878 39.4345 9.20527 39.4345 8.3238C39.4345 7.69686 39.3895 7.47941 38.2087 7.47941ZM45.9907 7.26222C45.9907 9.12289 44.1536 13.2084 43.5632 14.3436C41.0952 19.0887 37.7979 19.0566 34.0755 19.0566C32.2567 19.0566 28.2026 19.0778 28.2026 15.673C28.2026 14.15 29.5299 11.3589 30.6195 8.71235C31.083 7.58694 33.0573 3.806 39.7796 3.806C42.5525 3.806 45.9907 4.24117 45.9907 7.26195" fill="#EA1C0A"/>
</g>
<defs>
<clipPath id="clip0_3505_11017">
<rect width="66.2162" height="19.6" fill="white" transform="translate(0.783691)"/>
</clipPath>
</defs>
</svg>
