<svg width="143" height="21" viewBox="0 0 143 21" fill="none" xmlns="http://www.w3.org/2000/svg">
<g id="octopus 1" opacity="0.7">
<g id="Group">
<path id="Vector" d="M12.3806 8.57412C12.3806 11.7845 10.0223 14.387 6.36894 14.387C3.04881 14.387 0.479248 11.8632 0.479248 8.65284C0.479248 5.27623 3.10991 2.91846 6.43001 2.91846C9.75011 2.91846 12.3806 5.36376 12.3806 8.57412ZM6.42989 12.2232C8.40104 12.2232 9.80559 10.6246 9.80559 8.65272C9.80559 6.6808 8.54654 5.08229 6.42989 5.08229C4.35492 5.08229 3.05419 6.68084 3.05419 8.65275C3.05419 10.6247 4.44501 12.2232 6.42989 12.2232Z" fill="white"/>
<path id="Vector_2" d="M41.2297 8.57412C41.2297 11.7845 38.8714 14.387 35.2181 14.387C31.8979 14.387 29.3284 11.8632 29.3284 8.65284C29.3284 5.27623 31.959 2.91846 35.2791 2.91846C38.5993 2.91846 41.2297 5.36376 41.2297 8.57412ZM35.279 12.2232C37.2502 12.2232 38.6547 10.6246 38.6547 8.65272C38.6547 6.6808 37.3957 5.08226 35.279 5.08226C33.2041 5.08226 31.9033 6.6808 31.9033 8.65272C31.9033 10.6246 33.2941 12.2232 35.279 12.2232Z" fill="white"/>
<path id="Vector_3" d="M54.3567 9.71676C54.3567 9.71676 54.3573 5.32319 54.3568 4.18694C54.5652 2.59712 56.8055 3.44999 56.8055 3.44999V9.37727V9.37511C56.8055 11.2245 58.0712 12.1283 59.6326 12.1283C61.194 12.1283 62.4597 11.2557 62.4597 9.37511C62.4597 9.37511 62.4668 5.32662 62.4664 4.19041C62.6748 2.60058 64.915 3.45345 64.915 3.45345V7.26429C65.2337 11.9615 69.7259 12.3122 69.7259 12.3122C74.1988 12.9315 73.8054 11.0949 73.8054 11.0949C73.6896 10.1706 73.0003 9.961 71.8102 9.80842C71.0712 9.71369 70.4297 9.64901 70.4297 9.64901C65.6352 9.34567 66.1068 6.18307 66.1068 6.18307C66.1675 3.50744 69.0303 3.10028 69.0303 3.10028C71.5594 2.64996 73.3457 3.09193 73.3457 3.09193C77.2819 3.91089 75.3437 5.77634 75.0185 5.88243C75.0185 5.88243 73.9702 4.92241 71.5181 4.78447C68.4976 4.59191 68.551 6.01773 68.551 6.01773C68.4526 7.0576 69.7845 7.24791 69.7845 7.24791L73.0216 7.70101C76.8455 8.23413 76.3795 10.947 76.3795 10.947C76.1284 14.3397 72.0856 14.3645 72.0856 14.3645C66.5568 14.6855 64.4754 11.8145 64.4754 11.8145C63.7005 13.3562 62.1535 14.3865 59.5826 14.3865C56.5179 14.3865 54.3567 12.6681 54.3567 9.58517" fill="white"/>
<path id="Vector_4" d="M18.4258 3.10035C14.0038 3.416 12.9948 7.52558 13.1025 8.72025C13.0411 10.5253 14.3038 14.3867 19.1883 14.3888C19.8317 14.377 20.4211 14.3191 20.9592 14.2197L20.959 12.0293C20.4908 12.1117 19.9257 12.1637 19.2438 12.1817C16.9643 12.2388 15.6687 10.3682 15.6775 8.71974C15.6775 6.80774 17.2415 5.23785 19.2438 5.25778L23.1946 5.2569L23.2043 10.6662C23.2043 10.6662 22.9191 15.2492 28.7123 14.287V12.1046C25.5 12.7966 25.6734 10.7753 25.6734 10.7753V5.26079H28.7123V3.09698H25.6734V0.543945H23.2043V3.09701L18.4258 3.10035Z" fill="white"/>
<path id="Vector_5" d="M44.4078 17.6743C44.1994 19.2641 41.9592 18.4112 41.9592 18.4112V8.65253C42.1009 5.53918 43.9634 3.00343 47.7985 2.91815C51.1844 2.84286 53.6162 5.36351 53.6374 8.57378C53.66 11.9755 51.2748 14.5043 47.7503 14.355C46.4937 14.2855 45.2664 13.7907 44.4183 12.7014C44.4183 12.7014 44.4074 16.538 44.4078 17.6743ZM47.7348 12.2337C49.6862 12.2337 51.0765 10.6351 51.0765 8.66322C51.0765 6.69131 49.8302 5.09277 47.7348 5.09277C45.6808 5.09277 44.3931 6.69131 44.3931 8.66322C44.3931 10.6351 45.7699 12.2337 47.7348 12.2337Z" fill="white"/>
</g>
<g id="Group_2">
<path id="Vector_6" d="M88.7975 11.9443C87.8439 13.0532 86.5243 13.6393 84.9816 13.6393C83.5563 13.6393 82.3514 13.1335 81.497 12.1766C80.6942 11.2775 80.2521 10.0153 80.2521 8.62243V8.41823H89.7366L89.7338 8.33233C89.6856 6.88683 89.1729 5.56252 88.2901 4.60341C87.3585 3.59122 86.1068 3.05615 84.6703 3.05615C81.7364 3.05615 79.6069 5.39712 79.6069 8.62243C79.6069 11.9279 81.8171 14.2365 84.9816 14.2365C86.7155 14.2365 88.1943 13.5976 89.2581 12.3885L89.3097 12.33L88.8559 11.8763L88.7975 11.9443ZM80.3115 7.82103C80.6584 5.28592 82.3608 3.6535 84.6703 3.6535C85.8582 3.6535 86.9077 4.08672 87.7055 4.90635C88.4377 5.65859 88.8988 6.69077 89.009 7.82103H80.3115Z" fill="white"/>
<path id="Vector_7" d="M99.7894 4.44639C98.951 3.56287 97.7338 3.056 96.4498 3.05566H96.4487C95.1647 3.056 93.9474 3.56287 93.1088 4.44678C92.3094 5.29944 91.937 6.40551 91.937 7.92758V13.9966H92.5821V7.92761C92.5821 6.58188 92.9098 5.6032 93.6132 4.8478C94.304 4.111 95.3906 3.65316 96.4492 3.65301C97.5077 3.65316 98.5944 4.111 99.285 4.84765C99.9885 5.6032 100.316 6.58188 100.316 7.92761V13.9966H100.961V7.92761C100.961 6.40551 100.589 5.29947 99.7894 4.44639Z" fill="white"/>
<path id="Vector_8" d="M119.991 3.05566C118.706 3.05566 117.489 3.56253 116.65 4.44678C115.85 5.29944 115.478 6.40551 115.478 7.92758V13.9966H116.123V7.92761C116.123 6.58188 116.451 5.6032 117.154 4.8478C117.845 4.11085 118.932 3.65301 119.991 3.65301H120.074V3.05566H119.991Z" fill="white"/>
<path id="Vector_9" d="M112.317 11.9438C111.364 13.0527 110.044 13.6388 108.502 13.6388C107.076 13.6388 105.871 13.133 105.017 12.1761C104.214 11.277 103.772 10.0148 103.772 8.62194V8.41774H113.257L113.254 8.33185C113.206 6.88634 112.693 5.56203 111.81 4.60292C110.879 3.59073 109.627 3.05566 108.19 3.05566C105.256 3.05566 103.127 5.39663 103.127 8.62194C103.127 11.9275 105.337 14.236 108.502 14.236C110.236 14.236 111.714 13.5971 112.778 12.3881L112.83 12.3295L112.376 11.8758L112.317 11.9438ZM103.832 7.82054C104.178 5.28543 105.881 3.65301 108.19 3.65301C109.378 3.65301 110.428 4.08624 111.226 4.90586C111.958 5.6581 112.419 6.69028 112.529 7.82054H103.832Z" fill="white"/>
<path id="Vector_10" d="M141.747 3.29492L137.629 12.0038L133.014 3.29492H132.324L137.277 12.7421L133.958 19.7909H134.669L142.457 3.29492H141.747Z" fill="white"/>
<path id="Vector_11" d="M126.188 3.05518C124.662 3.05518 123.261 3.63715 122.242 4.69394C121.241 5.7322 120.69 7.13566 120.69 8.64573C120.69 10.1558 121.241 11.5592 122.242 12.5975C123.261 13.6544 124.662 14.2363 126.188 14.2363C128.19 14.2363 129.803 13.251 130.67 11.5177V13.8176C130.67 15.1097 130.627 16.5655 130.107 17.4875C129.411 18.711 128.102 19.3847 126.42 19.3847C124.179 19.3847 122.633 18.1933 121.989 17.173L121.941 17.0963L121.421 17.4861L121.467 17.5522C121.859 18.1224 123.374 19.9828 126.42 19.9828C128.339 19.9828 129.805 19.2403 130.658 17.8349C131.265 16.8145 131.316 15.2138 131.316 13.7937V8.7153L131.317 8.68574C131.317 8.67243 131.318 8.65909 131.318 8.64573C131.318 5.35409 129.208 3.05518 126.188 3.05518ZM130.667 8.64573C130.667 11.5853 128.825 13.6383 126.188 13.6383C123.47 13.6383 121.34 11.4453 121.34 8.64573C121.34 5.8462 123.47 3.65322 126.188 3.65322C128.825 3.65322 130.667 5.70623 130.667 8.64573Z" fill="white"/>
</g>
</g>
</svg>
