<svg width="81" height="19" viewBox="0 0 81 19" fill="none" xmlns="http://www.w3.org/2000/svg">
<g id="ostrom 1" opacity="0.7" clip-path="url(#clip0_3505_10994)">
<path id="Vector" fill-rule="evenodd" clip-rule="evenodd" d="M7.83589 0L6.67988 5.77379L6.65752 5.98468C6.6458 6.95872 7.90915 7.77725 9.5108 7.77725L17.8067 7.7769C18.743 7.77686 19.584 8.47031 19.584 9.40668C19.584 14.2164 15.9749 18.1998 11.2665 18.8968L12.3417 13.3454L12.3641 13.1345C12.3754 12.19 11.1891 11.6334 9.65685 11.6005L2.31296 11.5044C1.10593 11.4886 0 10.6138 0 9.40668C0 4.76233 3.36521 0.888441 7.83589 0Z" fill="#21C0B0"/>
<path id="Vector_2" fill-rule="evenodd" clip-rule="evenodd" d="M51.6817 14.895C51.4698 14.9737 51.082 15.0827 50.5068 15.0888C49.0775 15.1191 47.7872 14.3015 47.7933 12.6117V7.11841H46.4306V5.66485H47.7933V3.43604H49.6043V5.66485H51.5121V7.11841H49.6043V12.2362C49.6043 13.284 50.1312 13.4778 50.7186 13.4778C50.976 13.4778 51.1813 13.435 51.3089 13.4084L51.3372 13.4026L51.3544 13.399L51.6817 14.895ZM37.2171 10.3587C37.2171 13.2355 35.5032 15.1554 32.8807 15.1554C30.2582 15.1554 28.5442 13.2355 28.5442 10.3587C28.5442 7.46362 30.2582 5.54367 32.8807 5.54367C35.5032 5.54367 37.2171 7.46362 37.2171 10.3587ZM30.3733 10.3526C30.3733 12.1393 31.1728 13.6353 32.8868 13.6353C34.5887 13.6353 35.3882 12.1393 35.3882 10.3526C35.3882 8.572 34.5887 7.05784 32.8868 7.05784C31.1728 7.05784 30.3733 8.572 30.3733 10.3526ZM41.9814 15.1554C44.2282 15.1554 45.7848 13.9623 45.7848 12.2786C45.7848 10.9643 44.949 10.1527 43.2412 9.75904L41.7635 9.41988C40.7399 9.1776 40.2976 8.83238 40.3037 8.20252C40.2976 7.48785 41.0728 6.97909 42.1025 6.97909C43.229 6.97909 43.7498 7.6029 43.9619 8.22674L45.6031 7.93604C45.2278 6.48851 44.0953 5.54367 42.0842 5.54367C39.9829 5.54367 38.493 6.65205 38.493 8.29943C38.493 9.61973 39.2922 10.4979 41.0366 10.8856L42.6115 11.2308C43.5078 11.4307 43.9254 11.8304 43.9254 12.4118C43.9254 13.1325 43.1562 13.6958 41.9692 13.6958C40.885 13.6958 40.1886 13.2294 39.9707 12.3149L38.2202 12.5814C38.5231 14.2288 39.8919 15.1554 41.9814 15.1554ZM54.7195 14.9677V9.28663C54.7195 8.06926 55.6585 7.19106 56.9424 7.19106C57.318 7.19106 57.742 7.25768 57.8871 7.30008V5.56794C57.7054 5.54371 57.3481 5.52554 57.118 5.52554C56.0281 5.52554 55.0951 6.14329 54.7561 7.14264H54.6589V5.66481H52.9088V14.9677H54.7195ZM66.776 10.3587C66.776 13.2355 65.0617 15.1554 62.4392 15.1554C59.8168 15.1554 58.1029 13.2355 58.1029 10.3587C58.1029 7.46362 59.8168 5.54367 62.4392 5.54367C65.0617 5.54367 66.776 7.46362 66.776 10.3587ZM62.4453 13.6353C60.7314 13.6353 59.9318 12.1393 59.9318 10.3526C59.9318 8.572 60.7314 7.05784 62.4453 7.05784C64.1474 7.05784 64.9467 8.572 64.9467 10.3526C64.9467 12.1393 64.1474 13.6353 62.4453 13.6353ZM70.0016 9.23211V14.9677H68.191V5.66481H69.9289V7.17894H70.0439C70.4317 6.1554 71.3464 5.54367 72.5757 5.54367C73.8172 5.54367 74.6713 6.16146 75.077 7.17894H75.1742C75.6222 6.18569 76.6275 5.54367 77.9662 5.54367C79.65 5.54367 80.837 6.60359 80.837 8.72945V14.9677H79.026V8.89901C79.026 7.63924 78.2385 7.10629 77.2816 7.10629C76.1007 7.10629 75.4161 7.91787 75.4161 9.03832V14.9677H73.6115V8.78392C73.6115 7.7725 72.9148 7.10629 71.9094 7.10629C70.8797 7.10629 70.0016 7.9784 70.0016 9.23211Z" fill="white"/>
</g>
<defs>
<clipPath id="clip0_3505_10994">
<rect width="81" height="18.9956" fill="white"/>
</clipPath>
</defs>
</svg>
