<svg width="81" height="26" viewBox="0 0 81 26" fill="none" xmlns="http://www.w3.org/2000/svg">
<g id="Tibber_logo 1">
<path id="path30" d="M37.0046 6.18506C36.8045 6.18506 36.6424 6.34713 36.6424 6.54722V20.6306C36.6424 20.8307 36.8045 20.9928 37.0046 20.9928H37.5296C37.7296 20.9928 37.8917 20.8307 37.8917 20.6306V18.7791L38.1079 19.0781C39.1277 20.4835 40.6856 21.289 42.378 21.289C45.3215 21.289 47.7177 18.8061 47.7177 15.7541C47.7177 12.7021 45.3215 10.2193 42.378 10.2193C40.6832 10.2193 39.1277 11.0247 38.1079 12.4302L37.8917 12.7292V6.54722C37.8917 6.34713 37.7296 6.18506 37.5296 6.18506H37.0046ZM49.9482 6.18506C49.7481 6.18506 49.586 6.34673 49.586 6.54441V20.6306C49.586 20.8307 49.7481 20.99 49.9482 20.99H50.4732C50.6733 20.99 50.8353 20.8279 50.8353 20.6278V18.7777L51.0515 19.0753C52.0713 20.4808 53.6293 21.2862 55.3216 21.2862C58.2651 21.2862 60.6613 18.8034 60.6613 15.7513C60.6613 12.7018 58.2651 10.2193 55.3216 10.2193C53.6268 10.2193 52.0713 11.0247 51.0515 12.4302L50.8353 12.7292V6.54722C50.8353 6.34713 50.6733 6.18506 50.4732 6.18506H49.9482ZM33.07 6.41948C32.5517 6.41948 32.1323 6.84126 32.1323 7.35716C32.1323 7.87305 32.5541 8.29484 33.07 8.29484C33.5883 8.29484 34.0077 7.87305 34.0077 7.35716C34.0077 6.84126 33.5883 6.41948 33.07 6.41948ZM25.8914 7.97478C25.6913 7.97478 25.5292 8.13545 25.5292 8.33554V10.4748H24.315C24.1149 10.4748 23.9529 10.6355 23.9529 10.8355V11.3619C23.9529 11.562 24.1149 11.7227 24.315 11.7227H25.5292V18.4689C25.5292 19.9298 26.7082 21.1205 28.157 21.1205H28.1696C28.7458 21.1205 29.19 21.0847 29.4961 21.0461C29.677 21.0244 29.8092 20.87 29.8092 20.6868V20.2643C29.8092 20.0497 29.6213 19.8808 29.4091 19.9049C29.0644 19.9459 28.6543 19.9751 28.324 19.9751C27.473 19.9751 26.7786 19.2807 26.7786 18.4296V11.7227H29.447C29.6471 11.7227 29.8092 11.5621 29.8092 11.362V10.8356C29.8092 10.6355 29.6471 10.4748 29.447 10.4748H26.7786V8.33557C26.7786 8.13548 26.6165 7.97481 26.4164 7.97481L25.8914 7.97478ZM67.5577 10.2277C64.4624 10.2277 62.2152 12.5539 62.2152 15.7626C62.2152 18.9689 64.4624 21.2988 67.5577 21.2988C69.9347 21.2988 71.3836 20.0837 72.0875 19.2424C72.2105 19.0953 72.1761 18.8758 72.0145 18.7721L71.5232 18.4633C71.393 18.3813 71.2216 18.4056 71.1203 18.5237C70.6526 19.0733 69.4956 20.1309 67.5549 20.1309C65.4696 20.1309 63.6497 18.5547 63.3677 16.3465H72.576C72.7423 16.3465 72.8808 16.2171 72.8904 16.0531C72.8955 15.9471 72.9003 15.8522 72.9003 15.7654C72.9003 12.6579 70.5543 10.2277 67.5577 10.2277ZM79.8374 10.3035C77.1257 10.3035 76.3492 12.5425 76.3492 12.5425V10.764C76.3492 10.5904 76.2093 10.4495 76.0361 10.4495H75.4143C75.2411 10.4495 75.0999 10.5904 75.0999 10.764V20.6756C75.0999 20.8491 75.2411 20.99 75.4143 20.99H76.0361C76.2093 20.99 76.3492 20.8491 76.3492 20.6756V14.8754C76.3492 14.7188 76.412 11.5374 79.8374 11.5374H79.9974C80.1706 11.5374 80.3104 11.3979 80.3104 11.2244V10.6208C80.3104 10.452 80.1768 10.3146 80.0086 10.3049C79.9504 10.3049 79.8956 10.3035 79.8374 10.3035ZM31.9147 10.4748C31.7146 10.4748 31.554 10.6355 31.554 10.8355V11.3605C31.554 11.5606 31.7146 11.7227 31.9147 11.7227H32.4453V20.6334C32.4453 20.8335 32.6074 20.9942 32.8075 20.9942H33.3325C33.5326 20.9942 33.6946 20.8335 33.6946 20.6334V10.8384C33.6946 10.6358 33.5326 10.4748 33.3325 10.4748H31.9147ZM42.2081 11.383C44.6043 11.383 46.5526 13.3452 46.5526 15.7584C46.5526 18.1715 44.6043 20.1393 42.2081 20.1393C40.1614 20.1393 38.3733 18.676 37.9563 16.6581C37.896 16.364 37.865 16.0625 37.865 15.7612C37.865 15.4598 37.896 15.1584 37.9563 14.8642C38.3733 12.8488 40.1614 11.383 42.2081 11.383ZM55.1574 11.383C57.5512 11.383 59.4962 13.3452 59.4962 15.7584C59.4962 18.1715 57.5512 20.1393 55.1574 20.1393C53.1131 20.1393 51.3244 18.676 50.9097 16.6581C50.8495 16.364 50.8185 16.0625 50.8185 15.7612C50.8185 15.4598 50.8495 15.1584 50.9097 14.8642C51.3268 12.8488 53.1131 11.383 55.1574 11.383ZM67.5577 11.3942C69.7612 11.3942 71.3733 12.8346 71.665 15.0621L71.6818 15.1969H63.3676C63.669 12.9259 65.4652 11.3942 67.5577 11.3942Z" fill="#23B8CC"/>
<path id="path44" d="M12.7883 1.50049C12.4251 1.50265 12.0733 1.66118 11.8141 1.95951L1.8843 13.3576C1.54198 13.7505 1.46239 14.2897 1.67935 14.767C1.89392 15.2419 2.355 15.539 2.87812 15.539H12.123C12.4438 15.539 12.7097 15.2788 12.7097 14.9579C12.7097 14.637 12.4438 14.3767 12.123 14.3767H2.87812C2.79375 14.3767 2.75423 14.3265 2.73494 14.2855C2.71568 14.2445 2.70339 14.1812 2.75881 14.1184L12.6886 2.72172C12.7103 2.70002 12.7715 2.62636 12.8824 2.68665C12.9908 2.74695 12.9664 2.83881 12.9568 2.86773L11.4534 7.97162C11.3624 8.28068 11.5409 8.60561 11.8506 8.69453C12.1574 8.78271 12.4778 8.60626 12.5679 8.30009L14.0727 3.18918C14.2487 2.58168 13.9937 1.9689 13.4368 1.66756C13.2289 1.55365 13.0062 1.49906 12.7883 1.50049ZM8.59122 10.4604C8.27035 10.4604 8.00448 10.7206 8.00448 11.0415C8.00448 11.3623 8.27035 11.6226 8.59122 11.6226H17.8375C17.9218 11.6226 17.96 11.6729 17.9792 11.7139C17.9985 11.7549 18.0109 11.8182 17.9554 11.8809L8.02553 23.2776C8.00382 23.2994 7.94271 23.373 7.83182 23.3127C7.72334 23.2524 7.74778 23.1605 7.75742 23.1316L9.26079 18.0278C9.35178 17.7186 9.17323 17.3937 8.86355 17.3048C8.5568 17.2167 8.23641 17.393 8.14625 17.6993L6.64147 22.8102C6.46549 23.4177 6.72048 24.0305 7.27735 24.3318C7.83182 24.6356 8.48538 24.5171 8.90004 24.0398L18.8299 12.6417C19.1722 12.2488 19.2518 11.7097 19.0348 11.2324C18.8202 10.7575 18.3606 10.4604 17.8375 10.4604L8.59122 10.4604Z" fill="#23B8CC"/>
</g>
</svg>
