<svg width="34" height="12" viewBox="0 0 34 12" fill="none" xmlns="http://www.w3.org/2000/svg">
<path fill-rule="evenodd" clip-rule="evenodd" d="M20.2932 11.1432C21.5158 11.1596 22.703 10.7334 23.6361 9.94321C24.3 10.4828 25.0835 10.8555 25.9211 11.0302C26.7586 11.2048 27.6258 11.1763 28.4501 10.9471C29.2743 10.7179 30.0317 10.2946 30.6588 9.71259C31.286 9.13061 31.7646 8.4069 32.0546 7.60201C32.3447 6.79713 32.4377 5.93448 32.326 5.08625C32.2143 4.23803 31.901 3.4289 31.4124 2.72657C30.9239 2.02424 30.2742 1.44914 29.5177 1.0494C28.7613 0.649659 27.9202 0.4369 27.0646 0.428925C25.8421 0.412775 24.6549 0.838944 23.7218 1.62893C22.7724 0.838076 21.5716 0.412493 20.3361 0.428925C19.1135 0.41262 17.9263 0.838808 16.9932 1.62893C16.0564 0.845298 14.8717 0.420003 13.6504 0.428925C12.4278 0.41262 11.2406 0.838808 10.3075 1.62893C9.64217 1.08814 8.85675 0.714952 8.01725 0.540715C7.17775 0.366477 6.3087 0.396282 5.48311 0.627626C4.65752 0.85897 3.89951 1.28509 3.27279 1.87019C2.64607 2.45529 2.16893 3.18226 1.88149 3.99003C1.59404 4.7978 1.50467 5.66277 1.62089 6.51224C1.73711 7.36172 2.05552 8.17089 2.54938 8.87177C3.04323 9.57265 3.6981 10.1447 4.45895 10.54C5.2198 10.9353 6.0644 11.1421 6.92179 11.1432C8.14432 11.1594 9.33152 10.7332 10.2646 9.94321C11.2115 10.7091 12.3897 11.1321 13.6075 11.1432C14.8301 11.1596 16.0173 10.7334 16.9504 9.94321C17.8972 10.7091 19.0754 11.1321 20.2932 11.1432ZM25.7431 5.87168C25.7431 7.06406 25.3515 8.22345 24.6286 9.17168C25.2412 9.64379 25.9742 9.93417 26.7439 10.0097C27.5137 10.0852 28.2891 9.94272 28.9818 9.59863C29.6744 9.25453 30.2564 8.72262 30.6613 8.06363C31.0661 7.40463 31.2776 6.64508 31.2714 5.87168C31.2757 5.32818 31.1725 4.7892 30.9677 4.28571C30.763 3.78223 30.4608 3.32417 30.0784 2.93786C29.6961 2.55155 29.2412 2.2446 28.7399 2.03466C28.2385 1.82472 27.7007 1.71593 27.1571 1.71453C26.2411 1.7028 25.3487 2.00532 24.6286 2.57168C25.3515 3.5199 25.7431 4.67929 25.7431 5.87168ZM19.0574 5.87168C19.0574 7.06406 18.6658 8.22345 17.9429 9.17168C18.6692 9.72633 19.5575 10.0274 20.4714 10.0288C21.3875 10.0407 22.28 9.73816 23 9.17168C22.2771 8.22345 21.8855 7.06406 21.8855 5.87168C21.8855 4.67929 22.2771 3.5199 23 2.57168C22.2765 2.01159 21.3864 1.70984 20.4714 1.71453C19.5554 1.70291 18.663 2.00541 17.9429 2.57168C18.6658 3.5199 19.0574 4.67929 19.0574 5.87168ZM11.2143 9.17168C11.9372 8.22345 12.3288 7.06406 12.3288 5.87168C12.3288 4.67929 11.9372 3.5199 11.2143 2.57168C11.9344 2.00538 12.8268 1.70287 13.7429 1.71453C14.6578 1.70987 15.5479 2.01162 16.2714 2.57168C15.5485 3.5199 15.1569 4.67929 15.1569 5.87168C15.1569 7.06406 15.5485 8.22345 16.2714 9.17168C15.5514 9.7381 14.6589 10.0406 13.7429 10.0288C12.8289 10.0274 11.9407 9.72633 11.2143 9.17168ZM4.05818 2.94583C3.28755 3.72449 2.85585 4.77615 2.85714 5.87168C2.85585 6.96721 3.28755 8.01886 4.05818 8.79752C4.82882 9.57619 5.87594 10.0188 6.97143 10.0288C7.88751 10.0407 8.77997 9.73816 9.5 9.17168C8.77706 8.22345 8.3855 7.06406 8.3855 5.87168C8.3855 4.67929 8.77706 3.5199 9.5 2.57168C8.77652 2.01159 7.88636 1.70984 6.97143 1.71453C5.87594 1.7246 4.82882 2.16717 4.05818 2.94583ZM23.0429 5.87168C23.049 5.01169 23.3182 4.1742 23.8143 3.47168C24.3105 4.17412 24.5797 5.01167 24.5857 5.87168C24.5796 6.73168 24.3104 7.56921 23.8143 8.27168C23.3183 7.56913 23.0491 6.73165 23.0429 5.87168ZM17.0857 3.47168C16.5897 4.1742 16.3205 5.01169 16.3143 5.87168C16.3205 6.73165 16.5897 7.56913 17.0857 8.27168C17.5817 7.56913 17.8509 6.73165 17.8571 5.87168C17.851 5.01169 17.5818 4.1742 17.0857 3.47168ZM9.58572 5.87168C9.59173 5.01167 9.86094 4.17412 10.3571 3.47168C10.8532 4.1742 11.1224 5.01169 11.1286 5.87168C11.1223 6.73165 10.8532 7.56913 10.3571 8.27168C9.86099 7.56921 9.59178 6.73168 9.58572 5.87168Z" fill="white"/>
</svg>
