<svg width="24" height="24" viewBox="0 0 24 24" fill="none" xmlns="http://www.w3.org/2000/svg">
<g id="BMW_logo_(gray) 1" clip-path="url(#clip0_572_8122)">
<g id="BMW-logo-grey-fallback-53px">
<g id="BMW-logo">
<g id="BMW-logo-fallback">
<g id="BMW_Grey-Colour_RGB-2">
<g id="BMW_Grey-Colour_RGB">
<g id="g3375">
<g id="g3381">
<g id="g3355">
<path id="path21" d="M19.1112 12C19.1112 15.93 15.93 19.1111 12.0001 19.1111V12H19.1112ZM12.0001 4.88892V12H4.88895C4.88895 8.07009 8.07012 4.88892 12.0001 4.88892Z" fill="#0166B1"/>
</g>
<path id="path21-3" d="M12 4.88892C15.93 4.88892 19.1111 8.07009 19.1111 12H12V4.88892ZM4.88892 12H12V19.1111C8.07009 19.1111 4.88892 15.93 4.88892 12Z" fill="white" fill-opacity="0.7"/>
</g>
</g>
<g id="g3393">
<path id="path14" d="M12 4.88889V5.27878C15.7057 5.27878 18.7212 8.29356 18.7212 12H19.1111C19.1111 8.07288 15.9271 4.88889 12 4.88889ZM12 18.7212C8.29427 18.7212 5.27878 15.7064 5.27878 12H4.88889C4.88889 15.9271 8.07288 19.1111 12 19.1111M12 0C5.37277 0 0 5.37277 0 12C0 18.6272 5.37277 24 12 24C18.6272 24 24 18.6272 24 12C24 5.37277 18.6272 0 12 0ZM23.2197 12C23.2197 18.1961 18.1968 23.2197 12 23.2197C5.80315 23.2197 0.780339 18.1961 0.780339 12C0.780339 5.80386 5.80386 0.780339 12 0.780339C18.1961 0.780339 23.2197 5.80386 23.2197 12Z" fill="#6F6F6F"/>
</g>
<g id="g3386">
<g id="Group">
<path id="B_x5F_22d_61_" d="M6.87186 6.21092C7.25533 5.8098 7.47244 5.34637 7.08897 4.90394C6.88032 4.66383 6.52999 4.61133 6.23957 4.72963L6.21067 4.74084L6.21983 4.71563C6.26283 4.60153 6.29032 4.23751 5.97805 3.98619C5.82579 3.86368 5.63477 3.81818 5.44162 3.83778C5.08142 3.87418 4.8044 4.1185 4.05015 4.95365C3.82247 5.20566 3.49117 5.60329 3.29239 5.8609L5.36409 7.81261C6.05066 7.05797 6.3305 6.77725 6.87186 6.21092ZM4.16858 5.73349C4.58588 5.22666 5.02926 4.76674 5.23015 4.58473C5.2936 4.52732 5.36268 4.46992 5.44656 4.44752C5.5826 4.41042 5.72288 4.50632 5.7546 4.64493C5.78632 4.78424 5.69821 4.91655 5.60023 5.02575C5.37959 5.27287 4.57037 6.11362 4.57037 6.11362L4.16858 5.73349ZM4.97992 6.49794C4.97992 6.49794 5.76799 5.67049 6.02528 5.40587C6.12749 5.30087 6.19305 5.23716 6.26354 5.20286C6.35447 5.15876 6.45386 5.14966 6.54268 5.20846C6.63008 5.26657 6.67026 5.36667 6.64841 5.46608C6.62233 5.58438 6.52505 5.69709 6.4447 5.7832C6.33614 5.8987 5.40145 6.89206 5.40004 6.89346L4.97992 6.49794ZM12.2368 3.88329L12.9002 2.4076L12.9425 2.27669L12.9305 2.4132L13.0003 4.38521C13.2329 4.40692 13.4732 4.43912 13.7101 4.47832L13.6022 1.55775C13.2709 1.52135 12.941 1.49545 12.6111 1.48145L11.9577 3.09224L11.9344 3.21195L11.9112 3.09224L11.2584 1.48145C10.9286 1.49545 10.5987 1.52135 10.2674 1.55775L10.1595 4.47832C10.3964 4.43912 10.6367 4.40762 10.8693 4.38521L10.9391 2.4132L10.9271 2.27669L10.9694 2.4076L11.6328 3.88329H12.2368ZM17.7456 6.93616C17.9085 7.10977 18.1432 7.38979 18.275 7.5599L20.7027 6.02961C20.5814 5.8721 20.3883 5.63269 20.2438 5.46398L18.7064 6.47344L18.6014 6.56304L18.6796 6.44964L19.3584 5.10416L18.8784 4.62743L17.5229 5.30157L17.4087 5.37927L17.4996 5.27497L18.5168 3.74888C18.3377 3.59767 18.1657 3.45906 17.9465 3.29105L16.4056 5.69989C16.6009 5.849 16.8582 6.06811 17.0224 6.21722L18.4731 5.46958L18.5661 5.40167L18.4978 5.49408L17.7456 6.93616Z" fill="#6F6F6F"/>
</g>
</g>
</g>
</g>
</g>
</g>
</g>
</g>
<defs>
<clipPath id="clip0_572_8122">
<rect width="24" height="24" fill="white"/>
</clipPath>
</defs>
</svg>
