<svg width="64" height="29" viewBox="0 0 64 29" fill="none" xmlns="http://www.w3.org/2000/svg">
<g id="MINI_logo 1" opacity="0.7" clip-path="url(#clip0_4201_479)">
<g id="g5">
<path id="path5" d="M40.238 10.8879V17.1755H41.6495V10.8879H40.238Z" fill="white"/>
<path id="path4" d="M33.2374 10.8879V17.1755H34.5488V13.0754L37.3673 17.1755H38.7837V10.8879H37.4722V15.0867L34.611 10.8879H33.2374Z" fill="white"/>
<path id="path3" d="M30.4716 10.8879V17.1755H31.8832V10.8879H30.4716Z" fill="white"/>
<path id="path2" d="M22.3505 10.8879V17.1755H23.6617V12.2262L25.0448 17.1755H26.4039L27.7916 12.2262V17.1755H29.1031V10.8879H26.9856L25.7315 15.1768L24.463 10.8879H22.3505Z" fill="white"/>
</g>
<path id="path1" d="M32 0C29.6428 0.000390021 27.3238 0.594584 25.2568 1.72773C23.1899 2.86088 21.4418 4.49646 20.1737 6.4835H0L2.00825 8.49175H19.1257C18.8008 9.24765 18.543 10.0307 18.3552 10.8318H4.348L6.332 12.8155H18.0305C17.9922 13.2199 17.9714 13.6258 17.9683 14.032C17.9719 14.4071 17.9906 14.7819 18.0243 15.1555H8.672L10.6558 17.1393H18.3295C18.5074 17.9393 18.755 18.7222 19.0695 19.479H12.9955L15.0038 21.4875H20.1325C21.3932 23.4976 23.1431 25.1552 25.2186 26.3053C27.294 27.4554 29.6272 28.0604 32 28.0637C34.3728 28.0604 36.706 27.4554 38.7814 26.3053C40.8569 25.1552 42.6068 23.4976 43.8675 21.4875H48.996L51.0045 19.479H44.9305C45.245 18.7222 45.4926 17.9393 45.6705 17.1393H53.3443L55.328 15.1555H45.9757C46.0094 14.7819 46.0281 14.4071 46.0317 14.032C46.0287 13.6258 46.008 13.2199 45.9698 12.8155H57.668L59.652 10.8318H45.6448C45.457 10.0307 45.1992 9.24765 44.8743 8.49175H61.9917L64 6.4835H43.8263C42.5582 4.49646 40.8101 2.86088 38.7432 1.72773C36.6762 0.594584 34.3572 0.000390021 32 0ZM32 1.902C35.217 1.90205 38.3023 3.18005 40.5771 5.45486C42.8518 7.72968 44.1298 10.815 44.1298 14.032C44.1298 17.249 42.8518 20.3343 40.5771 22.6091C38.3023 24.8839 35.217 26.1619 32 26.162C30.4071 26.162 28.8297 25.8483 27.358 25.2387C25.8864 24.6291 24.5492 23.7356 23.4228 22.6092C22.2964 21.4828 21.4029 20.1456 20.7933 18.674C20.1837 17.2023 19.87 15.6249 19.87 14.032C19.87 12.4391 20.1837 10.8617 20.7933 9.39004C21.4029 7.91836 22.2964 6.58115 23.4228 5.45478C24.5492 4.3284 25.8864 3.43491 27.358 2.82533C28.8297 2.21574 30.4071 1.90199 32 1.902Z" fill="white"/>
</g>
<defs>
<clipPath id="clip0_4201_479">
<rect width="64" height="28.0733" fill="white"/>
</clipPath>
</defs>
</svg>
