<svg width="19" height="18" viewBox="0 0 19 18" fill="none" xmlns="http://www.w3.org/2000/svg">
<g id="Group">
<path id="Vector" d="M9.50086 17.5944L11.9158 4.01257C14.2177 4.01257 14.9438 4.26498 15.0486 5.29526C15.0486 5.29526 16.5928 4.7195 17.3716 3.55015C14.3324 2.14186 11.2787 2.07834 11.2787 2.07834L9.49685 4.24864L9.50086 4.24837L7.71899 2.078C7.71899 2.078 4.66524 2.14158 1.62646 3.54987C2.40461 4.71923 3.94938 5.29499 3.94938 5.29499C4.05483 4.26464 4.78001 4.01223 7.06644 4.01059L9.50086 17.5944Z" fill="#E82127"/>
<path id="Vector_2" d="M9.49999 1.45136C11.9567 1.43257 14.7688 1.83141 17.6474 3.08606C18.0322 2.39356 18.1311 2.0875 18.1311 2.0875C14.9843 0.842517 12.0373 0.416449 9.49965 0.405762C6.9621 0.416449 4.01529 0.842585 0.868896 2.0875C0.868896 2.0875 1.00926 2.46449 1.35221 3.08606C4.23033 1.83141 7.04283 1.43257 9.49965 1.45136H9.49999Z" fill="#E82127"/>
</g>
</svg>
