<svg width="25" height="24" viewBox="0 0 25 24" fill="none" xmlns="http://www.w3.org/2000/svg">
<g id="Volkswagen_logo_2019 1" clip-path="url(#clip0_572_8143)">
<g id="Group">
<g id="Group_2">
<g id="Group_3">
<path id="Vector" d="M12.5141 22.8255C6.56822 22.8255 1.6969 17.9303 1.6969 11.9844C1.6969 10.6472 1.93569 9.38162 2.38939 8.18767L8.71733 20.9152C8.78897 21.0823 8.90837 21.2256 9.0994 21.2256C9.29043 21.2256 9.40983 21.0823 9.48146 20.9152L12.3947 14.3962C12.4186 14.3246 12.4663 14.2529 12.538 14.2529C12.6096 14.2529 12.6335 14.3246 12.6813 14.3962L15.5945 20.9152C15.6661 21.0823 15.7855 21.2256 15.9766 21.2256C16.1676 21.2256 16.287 21.0823 16.3586 20.9152L22.6866 8.18767C23.1403 9.38162 23.3791 10.6472 23.3791 11.9844C23.3313 17.9303 18.46 22.8255 12.5141 22.8255ZM12.5141 9.5249C12.4425 9.5249 12.4186 9.45326 12.3708 9.38162L8.98001 1.74033C10.0784 1.33439 11.2724 1.11948 12.5141 1.11948C13.7558 1.11948 14.9498 1.33439 16.0482 1.74033L12.6574 9.38162C12.6096 9.47714 12.5857 9.5249 12.5141 9.5249ZM9.05164 17.3811C8.98 17.3811 8.95613 17.3095 8.90837 17.2378L3.41619 6.15795C4.39523 4.65357 5.70858 3.38799 7.30847 2.50446L11.2724 11.3158C11.3202 11.4591 11.4395 11.5069 11.5589 11.5069H13.4693C13.6125 11.5069 13.7081 11.483 13.7797 11.3158L17.7436 2.50446C19.3196 3.38799 20.6569 4.65357 21.6359 6.15795L16.096 17.2378C16.0721 17.3095 16.0243 17.3811 15.9527 17.3811C15.881 17.3811 15.8572 17.3095 15.8094 17.2378L13.7319 12.5098C13.6603 12.3426 13.5648 12.3187 13.4215 12.3187H11.5112C11.3679 12.3187 11.2724 12.3426 11.2008 12.5098L9.19492 17.2378C9.17104 17.3095 9.12328 17.3811 9.05164 17.3811ZM12.5141 23.924C19.1286 23.924 24.4536 18.5989 24.4536 11.9844C24.4536 5.36995 19.1286 0.0449219 12.5141 0.0449219C5.89961 0.0449219 0.574585 5.36995 0.574585 11.9844C0.574585 18.5989 5.89961 23.924 12.5141 23.924Z" fill="white"/>
</g>
</g>
</g>
</g>
<defs>
<clipPath id="clip0_572_8143">
<rect width="24" height="24" fill="white" transform="translate(0.5)"/>
</clipPath>
</defs>
</svg>
