<svg width="126" height="107" viewBox="0 0 126 107" fill="none" xmlns="http://www.w3.org/2000/svg">
<path d="M34 86C46.1503 86 56 82.4183 56 78C56 73.5817 46.1503 70 34 70C21.8497 70 12 73.5817 12 78C12 82.4183 21.8497 86 34 86Z" fill="url(#paint0_radial_6793_821)" fill-opacity="0.6"/>
<path d="M34 86C46.1503 86 56 82.4183 56 78C56 73.5817 46.1503 70 34 70C21.8497 70 12 73.5817 12 78C12 82.4183 21.8497 86 34 86Z" fill="url(#paint1_radial_6793_821)" fill-opacity="0.6"/>
<path d="M34 86C46.1503 86 56 82.4183 56 78C56 73.5817 46.1503 70 34 70C21.8497 70 12 73.5817 12 78C12 82.4183 21.8497 86 34 86Z" fill="url(#paint2_radial_6793_821)" fill-opacity="0.6"/>
<path d="M34 86C46.1503 86 56 82.4183 56 78C56 73.5817 46.1503 70 34 70C21.8497 70 12 73.5817 12 78C12 82.4183 21.8497 86 34 86Z" fill="url(#paint3_radial_6793_821)" fill-opacity="0.6"/>
<path d="M15.344 72.8159C18.5008 70.3605 25.3414 68.6538 33.2989 68.6538C41.2563 68.6538 48.0824 70.3605 51.2391 72.8159H53.1105V75.8549C53.1105 79.8301 44.237 83.0559 33.2989 83.0559C22.3608 83.0559 13.4727 79.8301 13.4727 75.8549V72.8159H15.344Z" fill="url(#paint4_linear_6793_821)"/>
<path d="M13.4726 72.8158C13.4726 76.7911 22.3455 80.0169 33.2988 80.0169C44.2521 80.0169 53.1104 76.7911 53.1104 72.8158C53.1104 68.8406 44.2369 65.6147 33.2988 65.6147C22.3607 65.6147 13.4726 68.8406 13.4726 72.8158Z" fill="url(#paint5_linear_6793_821)"/>
<path d="M27.715 67.5099C28.6957 66.7472 30.8211 67.5099 33.2937 67.5099C35.7662 67.5099 37.8872 66.7472 38.8679 67.5099H39.4495V69.7474C39.4495 70.9828 36.6924 71.985 33.2943 71.985C29.8962 71.985 27.1341 70.9828 27.1341 69.7474V67.5099H27.7156H27.715Z" fill="url(#paint6_linear_6793_821)"/>
<path d="M27.1342 67.51C27.1342 68.7453 29.8912 69.7475 33.2944 69.7475C36.6976 69.7475 39.4496 68.7453 39.4496 67.51C39.4496 66.2747 36.6925 65.2725 33.2944 65.2725C29.8963 65.2725 27.1342 66.2747 27.1342 67.51Z" fill="url(#paint7_linear_6793_821)"/>
<path d="M14 29.7471V72.1578C14 75.2132 19.2556 77.8251 26.6619 78.8704C28.8836 79.1884 31.2909 79.3588 33.8262 79.3588C37.0736 79.3588 40.1359 79.075 42.8416 78.5638C45.0494 78.1666 47.0145 77.6097 48.6382 76.9395C50.1194 76.3377 51.3154 75.6332 52.1706 74.8724C53.1247 74.0317 53.6378 73.1118 53.6378 72.1578V29.7471C53.6378 30.7011 53.1247 31.621 52.1706 32.4616C51.316 33.2225 50.12 33.9269 48.6382 34.5288C47.0145 35.199 45.0488 35.7552 42.8416 36.1531C40.1359 36.6643 37.0736 36.9481 33.8262 36.9481C31.2909 36.9481 28.8836 36.7777 26.6619 36.4597C19.2556 35.415 14 32.8025 14 29.7471Z" fill="url(#paint8_linear_6793_821)"/>
<path d="M27.9169 70.252L33.7895 57.9622L26.191 57.8449L35.5138 43.1404L31.1446 55.9564L39.0741 56.0788L27.9169 70.252Z" fill="url(#paint9_linear_6793_821)"/>
<path d="M15.344 27.544C18.5007 25.0885 25.3413 23.3818 33.2988 23.3818C41.2563 23.3818 48.0823 25.0885 51.2391 27.544H53.1104V30.5829C53.1104 34.5581 44.2369 37.784 33.2988 37.784C22.3607 37.784 13.4726 34.5581 13.4726 30.5829V27.544H15.344Z" fill="url(#paint10_linear_6793_821)"/>
<path d="M13.4725 27.5438C13.4725 31.5191 22.3454 34.7449 33.2987 34.7449C44.2521 34.7449 53.1104 31.5191 53.1104 27.5438C53.1104 23.5686 44.2369 20.3428 33.2987 20.3428C22.3606 20.3428 13.4725 23.5686 13.4725 27.5438Z" fill="url(#paint11_linear_6793_821)"/>
<path d="M26.8773 22.5665C28.0021 21.6917 30.4398 22.5665 33.2758 22.5665C36.1117 22.5665 38.5443 21.6917 39.6691 22.5665H40.3361V25.1329C40.3361 26.5498 37.174 27.6992 33.2765 27.6992C29.379 27.6992 26.211 26.5498 26.211 25.1329V22.5665H26.8781H26.8773Z" fill="url(#paint12_linear_6793_821)"/>
<path d="M26.2111 22.5663C26.2111 23.9832 29.3733 25.1327 33.2765 25.1327C37.1798 25.1327 40.3362 23.9832 40.3362 22.5663C40.3362 21.1495 37.174 20 33.2765 20C29.3791 20 26.2111 21.1495 26.2111 22.5663Z" fill="url(#paint13_linear_6793_821)"/>
<g clip-path="url(#clip0_6793_821)">
<path d="M75.2817 68.1255L68.7192 68.1255L68.7192 77.9694L75.2817 77.9694L75.2817 68.1255Z" fill="url(#paint14_angular_6793_821)"/>
<path d="M80.7506 82.3442L63.2505 82.3442C62.6465 82.3442 62.1567 81.8545 62.1567 81.2505L62.1567 79.063C62.1567 78.459 62.6465 77.9692 63.2505 77.9692L80.7506 77.9692C81.3546 77.9692 81.8443 78.459 81.8443 79.063L81.8443 81.2505C81.8443 81.8546 81.3547 82.3442 80.7506 82.3442Z" fill="url(#paint15_angular_6793_821)"/>
<path d="M106.94 64.1251L101.471 31.3124C101.12 29.1943 99.3051 27.6563 97.1561 27.6563L46.8442 27.6563C44.6973 27.6563 42.8825 29.1932 42.529 31.3124L37.0602 64.1251C36.8487 65.3962 37.2045 66.6886 38.0375 67.6722C38.8707 68.655 40.0872 69.2189 41.3753 69.2189L102.625 69.2189C103.914 69.2189 105.132 68.655 105.964 67.6713C106.797 66.6876 107.153 65.3952 106.94 64.1251Z" fill="url(#paint16_angular_6793_821)"/>
<path d="M42.6364 49.5313L53.7852 49.5313C54.4256 49.5313 54.929 50.0789 54.8751 50.7171L54.4128 56.1859C54.3649 56.7522 53.8912 57.1875 53.3228 57.1875L41.7249 57.1875C41.0489 57.1875 40.5349 56.5806 40.646 55.914L41.5575 50.4452C41.6454 49.9179 42.1018 49.5313 42.6364 49.5313Z" fill="url(#paint17_linear_6793_821)"/>
<path d="M44.277 39.6875L54.6176 39.6875C55.258 39.6875 55.7613 40.2352 55.7075 40.8734L55.2451 46.3421C55.1972 46.9084 54.7235 47.3437 54.1552 47.3437L43.3655 47.3437C42.6896 47.3437 42.1755 46.7368 42.2866 46.0702L43.1981 40.6015C43.2861 40.0741 43.7424 39.6875 44.277 39.6875Z" fill="url(#paint18_linear_6793_821)"/>
<path d="M100.634 47.3437L89.8451 47.3437C89.2768 47.3437 88.8032 46.9084 88.7552 46.3421L88.293 40.8734C88.239 40.2353 88.7424 39.6875 89.3829 39.6875L99.7228 39.6875C100.257 39.6875 100.714 40.074 100.802 40.6015L101.713 46.0702C101.824 46.7368 101.31 47.3437 100.634 47.3437Z" fill="url(#paint19_linear_6793_821)"/>
<path d="M85.4556 47.3437L74.188 47.3437C73.584 47.3437 73.0942 46.854 73.0942 46.25L73.0942 40.7812C73.0942 40.1772 73.584 39.6875 74.188 39.6875L84.9934 39.6875C85.5617 39.6875 86.0353 40.1228 86.0833 40.6891L86.5456 46.1578C86.5996 46.796 86.096 47.3437 85.4556 47.3437Z" fill="url(#paint20_linear_6793_821)"/>
<path d="M73.0942 36.4062L73.0942 30.9375C73.0942 30.3335 73.584 29.8438 74.188 29.8438L84.1613 29.8438C84.7297 29.8438 85.2033 30.2791 85.2512 30.8453L85.7135 36.3141C85.7675 36.9522 85.2641 37.5 84.6236 37.5L74.188 37.5C73.584 37.5 73.0942 37.0104 73.0942 36.4062Z" fill="url(#paint21_linear_6793_821)"/>
<path d="M69.8126 37.5L59.3769 37.5C58.7365 37.5 58.2331 36.9523 58.287 36.3141L58.7494 30.8453C58.7972 30.2791 59.2709 29.8438 59.8393 29.8438L69.8126 29.8438C70.4166 29.8438 70.9064 30.3335 70.9064 30.9375L70.9064 36.4062C70.9064 37.0104 70.4168 37.5 69.8126 37.5Z" fill="url(#paint22_linear_6793_821)"/>
<path d="M70.9063 40.7812L70.9063 46.25C70.9063 46.854 70.4166 47.3437 69.8126 47.3437L58.5445 47.3437C57.9041 47.3437 57.4007 46.7959 57.4546 46.1578L57.917 40.6891C57.9648 40.1228 58.4385 39.6875 59.0069 39.6875L69.8126 39.6875C70.4167 39.6875 70.9063 40.1772 70.9063 40.7812Z" fill="url(#paint23_linear_6793_821)"/>
<path d="M58.1747 49.5313L69.8127 49.5313C70.4167 49.5313 70.9064 50.021 70.9064 50.625L70.9064 56.0937C70.9064 56.6978 70.4167 57.1875 69.8127 57.1875L57.7123 57.1875C57.0719 57.1875 56.5685 56.6397 56.6224 56.0016L57.0847 50.5329C57.1327 49.9666 57.6063 49.5313 58.1747 49.5313Z" fill="url(#paint24_linear_6793_821)"/>
<path d="M70.9064 60.4687L70.9064 65.9375C70.9064 66.5415 70.4167 67.0312 69.8126 67.0312L56.8799 67.0312C56.2395 67.0312 55.7361 66.4834 55.79 65.8453L56.2523 60.3766C56.3002 59.8103 56.7739 59.375 57.3423 59.375L69.8126 59.375C70.4168 59.375 70.9064 59.8647 70.9064 60.4687Z" fill="url(#paint25_linear_6793_821)"/>
<path d="M74.188 59.375L86.6575 59.375C87.2259 59.375 87.6995 59.8103 87.7475 60.3766L88.2097 65.8453C88.2637 66.4834 87.7603 67.0312 87.1198 67.0312L74.188 67.0312C73.584 67.0312 73.0942 66.5415 73.0942 65.9375L73.0942 60.4687C73.0942 59.8647 73.584 59.375 74.188 59.375Z" fill="url(#paint26_linear_6793_821)"/>
<path d="M73.0942 56.0937L73.0942 50.625C73.0942 50.021 73.584 49.5313 74.188 49.5313L85.8255 49.5313C86.3938 49.5313 86.8674 49.9666 86.9154 50.5329L87.3776 56.0016C87.4316 56.6397 86.9282 57.1875 86.2877 57.1875L74.188 57.1875C73.584 57.1875 73.0942 56.6979 73.0942 56.0937Z" fill="url(#paint27_linear_6793_821)"/>
<path d="M90.2149 49.5313L101.363 49.5313C101.898 49.5313 102.354 49.9178 102.442 50.4452L103.353 55.914C103.465 56.5806 102.95 57.1875 102.275 57.1875L90.677 57.1875C90.1087 57.1875 89.6351 56.7522 89.5871 56.1859L89.1248 50.7171C89.0711 50.0791 89.5745 49.5313 90.2149 49.5313Z" fill="url(#paint28_linear_6793_821)"/>
<path d="M99.161 30.7577L100.072 36.2265C100.184 36.8931 99.6694 37.5 98.9936 37.5L89.0132 37.5C88.4448 37.5 87.9712 37.0647 87.9232 36.4984L87.461 31.0296C87.407 30.3916 87.9104 29.8438 88.5509 29.8438L98.0823 29.8438C98.6168 29.8438 99.0731 30.2304 99.161 30.7577Z" fill="url(#paint29_linear_6793_821)"/>
<path d="M44.8388 30.7577C44.9267 30.2303 45.3829 29.8438 45.9176 29.8438L55.4499 29.8438C56.0903 29.8438 56.5937 30.3914 56.5398 31.0296L56.0774 36.4984C56.0296 37.0647 55.5559 37.5 54.9875 37.5L45.0061 37.5C44.3302 37.5 43.8161 36.8931 43.9273 36.2265L44.8388 30.7577Z" fill="url(#paint30_linear_6793_821)"/>
<path d="M39.7065 66.2584C39.2899 65.766 39.1115 65.1199 39.2174 64.4842L39.9165 60.2895C40.0044 59.762 40.4607 59.3755 40.9954 59.3755L52.9525 59.3755C53.5929 59.3755 54.0963 59.9233 54.0424 60.5614L53.58 66.0301C53.5322 66.5964 53.0585 67.0317 52.4901 67.0317L41.3749 67.0317C40.731 67.0317 40.1231 66.7498 39.7065 66.2584Z" fill="url(#paint31_linear_6793_821)"/>
<path d="M104.294 66.2573C103.878 66.7498 103.27 67.0317 102.625 67.0317L91.5095 67.0317C90.9412 67.0317 90.4676 66.5964 90.4196 66.0301L89.9573 60.5614C89.9033 59.9233 90.4067 59.3755 91.0473 59.3755L103.004 59.3755C103.539 59.3755 103.995 59.762 104.083 60.2895L104.782 64.4853C104.888 65.1199 104.711 65.7661 104.294 66.2573Z" fill="url(#paint32_linear_6793_821)"/>
</g>
<path d="M126 66.5019C126 55.7317 117.272 47 106.502 47C95.7317 47 87 55.7317 87 66.5019C87 77.272 95.7317 86 106.502 86C117.272 86 126 77.272 126 66.5019Z" fill="url(#paint33_radial_6793_821)" style="mix-blend-mode:overlay"/>
<path d="M103.266 66.5018C103.266 64.7191 104.719 63.27 106.506 63.27C108.292 63.27 109.741 64.7191 109.741 66.5018C109.741 68.2845 108.292 69.7336 106.506 69.7336C104.719 69.7336 103.266 68.2882 103.266 66.5018Z" stroke="#2B2B2B" stroke-width="0.022237" stroke-miterlimit="10"/>
<path d="M89.157 66.5019C89.157 56.9177 96.9177 49.1533 106.502 49.1533C116.086 49.1533 123.85 56.914 123.85 66.5019C123.85 76.0897 116.09 83.8505 106.502 83.8505C96.914 83.8505 89.157 76.0897 89.157 66.5019Z" fill="url(#paint34_linear_6793_821)"/>
<g style="mix-blend-mode:multiply">
<path d="M107.643 66.5023C107.643 67.1324 107.132 67.6475 106.502 67.6475C105.872 67.6475 105.357 67.1324 105.357 66.5023C105.357 65.8723 105.872 65.3608 106.502 65.3608C107.132 65.3608 107.643 65.8723 107.643 66.5023Z" fill="#A0A0A0"/>
</g>
<path d="M106.824 66.5023C106.824 66.6802 106.676 66.8211 106.506 66.8211C106.335 66.8211 106.187 66.6802 106.187 66.5023C106.187 66.3244 106.328 66.1836 106.506 66.1836C106.683 66.1836 106.824 66.3244 106.824 66.5023Z" fill="#CEC4B6"/>
<path d="M106.576 66.5023C106.576 66.5468 106.543 66.5728 106.502 66.5728C106.457 66.5728 106.424 66.5468 106.424 66.5023C106.424 66.4616 106.457 66.4282 106.502 66.4282C106.539 66.4282 106.576 66.4616 106.576 66.5023Z" fill="#ED9F58"/>
<g style="mix-blend-mode:multiply">
<path d="M118.321 65.1159L121.89 64.9232C121.708 63.1294 121.226 61.432 120.489 59.8828L117.335 61.5654C117.835 62.6661 118.176 63.8595 118.321 65.1159Z" fill="#695D76"/>
<path d="M94.7051 67.8618L91.1361 68.0545C91.3103 69.8446 91.7995 71.542 92.5333 73.0949L95.6873 71.4123C95.1832 70.3116 94.8497 69.1182 94.7051 67.8618Z" fill="#78668D"/>
<path d="M116.642 60.2496L119.796 58.567C118.892 57.0511 117.735 55.7095 116.39 54.5977L114.24 57.4514C115.178 58.2519 115.99 59.1933 116.642 60.2533V60.2496Z" fill="#887A98"/>
<path d="M114.415 75.3747L116.616 78.1951C117.943 77.0461 119.069 75.6786 119.944 74.1516L116.753 72.5283C116.127 73.5957 115.33 74.5556 114.411 75.3709L114.415 75.3747Z" fill="#67527E"/>
<path d="M118.402 66.5985C118.388 68.2255 118.047 69.7858 117.431 71.2052L120.615 72.8248C121.501 70.8643 121.986 68.6925 121.971 66.4058L118.402 66.5985Z" fill="#695A7A" style="mix-blend-mode:darken"/>
<path d="M113.054 56.5586L115.204 53.7011C113.762 52.7227 112.154 51.9852 110.438 51.5293L109.697 55.0279C110.901 55.3652 112.031 55.8803 113.054 56.5549V56.5586Z" fill="#796D86"/>
<path d="M96.384 72.728L93.23 74.4069C94.1381 75.9227 95.2907 77.2644 96.636 78.3836L98.7819 75.5262C97.8479 74.7256 97.0326 73.7843 96.3803 72.7317L96.384 72.728Z" fill="#86709F"/>
<path d="M98.6114 57.6036L96.41 54.7832C95.0831 55.9321 93.9565 57.296 93.0818 58.8229L96.2691 60.4462C96.8992 59.3789 97.6923 58.419 98.6114 57.5999V57.6036Z" fill="#796491"/>
<path d="M95.5983 61.7727L92.411 60.1494C91.5289 62.1174 91.0434 64.2892 91.0583 66.5685L94.631 66.3795C94.6384 64.7525 94.9868 63.1922 95.5983 61.7764V61.7727Z" fill="#7A6A8D"/>
<path d="M103.107 55.0937L102.303 51.6099C100.583 52.0954 98.9932 52.8663 97.5811 53.8743L99.7826 56.6873C100.791 55.998 101.91 55.4569 103.111 55.0974L103.107 55.0937Z" fill="#765C96" style="mix-blend-mode:darken"/>
<path d="M105.879 54.6129C106.683 54.5721 107.477 54.6091 108.244 54.724L108.981 51.2254C107.918 51.0512 106.813 50.9919 105.69 51.0475C105.027 51.0846 104.382 51.1624 103.744 51.2736L104.556 54.7574C104.99 54.6833 105.431 54.6351 105.876 54.6129H105.879Z" fill="#6D607D"/>
</g>
<path d="M117.013 66.621V66.4654H117.005C117.005 65.8798 116.946 65.309 116.849 64.7531H116.864L116.846 64.6419H116.831C116.731 64.0749 116.579 63.5227 116.39 62.989L116.405 62.9816L116.364 62.8704L116.345 62.8778C116.149 62.3404 115.912 61.8178 115.626 61.3249L115.641 61.3175L115.586 61.2211L115.567 61.2322C115.278 60.7393 114.963 60.2612 114.596 59.8276L114.604 59.8202L114.529 59.7312L114.518 59.7424C114.151 59.3013 113.747 58.8974 113.31 58.5267L113.317 58.5156L113.24 58.4452L113.229 58.4563C112.787 58.0894 112.317 57.7707 111.824 57.4742L111.835 57.4557L111.739 57.3964L111.728 57.4112C111.235 57.1295 110.712 56.8886 110.171 56.6811L110.178 56.6625L110.075 56.6292L110.067 56.6477C109.533 56.4513 108.981 56.2993 108.414 56.1919V56.1844L108.303 56.1622V56.1807C107.747 56.0807 107.18 56.0251 106.594 56.0214V56.0103H106.487V56.0177C105.898 56.0177 105.327 56.077 104.771 56.1733V56.1548L104.664 56.177V56.1881C104.097 56.2919 103.541 56.4402 103.011 56.6329L103.003 56.6144L102.899 56.6551L102.907 56.67C102.366 56.8701 101.839 57.1073 101.347 57.3889L101.335 57.3778L101.239 57.4334L101.25 57.452C100.754 57.7373 100.279 58.0561 99.8419 58.4193L99.8344 58.4118L99.7455 58.4897L99.7566 58.5008C99.3156 58.8714 98.9116 59.2791 98.541 59.7127L98.5299 59.7016L98.4595 59.7868L98.4706 59.798C98.1074 60.2353 97.7812 60.7134 97.4847 61.2026L97.4736 61.1915L97.4106 61.2915L97.4254 61.3027C97.1438 61.7956 96.9029 62.3144 96.6953 62.8518H96.6805L96.6397 62.9519L96.6583 62.9593C96.4655 63.4893 96.3099 64.0378 96.2098 64.6086H96.195L96.1765 64.7272H96.1913C96.0949 65.2831 96.0356 65.8501 96.0282 66.4283H96.0171V66.5432H96.0245C96.0245 67.1288 96.0838 67.6958 96.1765 68.2517H96.1616L96.1802 68.3666H96.1987C96.2951 68.9337 96.447 69.4859 96.636 70.0159L96.6175 70.0233L96.6583 70.1307L96.6731 70.1233C96.8732 70.6644 97.1067 71.1833 97.3921 71.6836L97.381 71.691L97.4328 71.7874L97.4477 71.7763C97.733 72.2729 98.0555 72.7473 98.4187 73.1883L98.4113 73.1958L98.4817 73.281L98.4928 73.2736C98.8634 73.7072 99.2674 74.1149 99.701 74.4892L99.6936 74.4966L99.7789 74.5707V74.5633C100.224 74.9265 100.698 75.2527 101.187 75.5455L101.18 75.564L101.28 75.6196V75.6048C101.776 75.8901 102.295 76.131 102.833 76.3349L102.825 76.3534L102.94 76.3942L102.948 76.3793C103.481 76.5721 104.03 76.7277 104.597 76.8315V76.8463L104.701 76.8686V76.85C105.26 76.9464 105.831 77.0094 106.413 77.0131V77.0205H106.52C107.106 77.0205 107.677 76.9575 108.233 76.8686V76.8797L108.344 76.8649V76.8463C108.911 76.7463 109.467 76.598 109.993 76.4053L110 76.4275L110.112 76.3905L110.101 76.3719C110.642 76.1718 111.168 75.9346 111.661 75.6566L111.668 75.6715L111.768 75.6122L111.757 75.6011C112.25 75.312 112.728 74.9895 113.162 74.63L113.169 74.6412L113.262 74.5633L113.251 74.5522C113.692 74.1816 114.096 73.7813 114.463 73.3477L114.474 73.3588L114.552 73.2699L114.541 73.2588C114.904 72.8251 115.23 72.3545 115.53 71.8615L115.541 71.8727L115.6 71.7726L115.586 71.7615C115.871 71.2685 116.116 70.7497 116.319 70.216H116.331L116.375 70.1085L116.357 70.1011C116.553 69.5711 116.709 69.0226 116.812 68.4556H116.824L116.846 68.3444H116.827C116.927 67.7847 116.987 67.214 116.99 66.6358H117.001L117.013 66.621ZM116.709 68.2999L115.341 68.0627L115.323 68.1591L116.69 68.4148C116.586 68.9744 116.431 69.5155 116.242 70.0418L114.933 69.5711L114.9 69.6601L116.197 70.153C115.997 70.6867 115.76 71.1981 115.474 71.6836L114.27 70.9906L114.225 71.0758L115.415 71.7837C115.13 72.2692 114.807 72.7362 114.444 73.1661L113.384 72.2692L113.317 72.3433L114.366 73.2513C114.003 73.6776 113.603 74.0815 113.173 74.441L112.28 73.3736L112.206 73.4366L113.084 74.5189C112.65 74.8784 112.183 75.1934 111.698 75.475L111.657 75.4046L110.164 72.8325L110.104 72.8659L111.55 75.4639H111.561L111.598 75.5343C111.109 75.8123 110.597 76.0458 110.063 76.2385L109.593 74.9414L109.496 74.971L109.956 76.283C109.433 76.4683 108.885 76.6165 108.325 76.7129L108.081 75.349L107.984 75.3639L108.214 76.7314C107.666 76.8241 107.106 76.8834 106.524 76.8834L106.513 75.4825H106.428L106.413 76.876C105.838 76.8686 105.275 76.813 104.727 76.7166L104.967 75.3527L104.871 75.3342L104.615 76.7018C104.056 76.598 103.515 76.4461 102.992 76.2533L103.459 74.9525L103.37 74.9191L102.877 76.2163C102.347 76.0161 101.839 75.7752 101.354 75.4973L101.432 75.3639L102.873 72.8474L102.814 72.814L101.284 75.3602H101.295L101.258 75.438C100.768 75.1452 100.301 74.8228 99.8678 74.4633L100.768 73.3959L100.691 73.3292L99.7863 74.3891C99.3601 74.0185 98.9598 73.622 98.5929 73.1883L99.6603 72.2914L99.5972 72.2136L98.5188 73.1068C98.1593 72.6732 97.8442 72.1988 97.5626 71.7133L98.7597 71.0128L98.7115 70.9276L97.5033 71.6169C97.229 71.124 96.9918 70.6088 96.7954 70.0752L98.0962 69.6045L98.0629 69.5118L96.7583 69.9751C96.573 69.4451 96.4248 68.9003 96.3247 68.337L97.6923 68.0961L97.6737 67.9997L96.3062 68.2332C96.2172 67.681 96.1579 67.1176 96.1542 66.5432H96.2506L99.2266 66.5209V66.4542L96.2506 66.4209H96.1579C96.1653 65.8538 96.2209 65.2942 96.321 64.7457L97.6886 64.9755L97.7034 64.8828L96.3358 64.6271C96.4396 64.0675 96.5915 63.5264 96.7806 63.0001L98.0851 63.4671L98.1185 63.3744L96.8213 62.8889C97.0178 62.3589 97.255 61.8438 97.5366 61.3545L98.7448 62.0476L98.793 61.9661L97.5996 61.2582C97.8887 60.7727 98.2037 60.3057 98.5706 59.8721L99.6343 60.7727L99.701 60.6948L98.6448 59.7905C99.0117 59.3606 99.4119 58.9604 99.8456 58.5972L100.739 59.6645L100.813 59.5978L99.9308 58.5193C100.361 58.1635 100.831 57.8485 101.321 57.5594L101.365 57.6298L101.747 58.2895L102.017 58.7602L102.859 60.2019L102.929 60.1575L102.106 58.7083L102.099 58.6972L101.458 57.5705L101.421 57.5001C101.91 57.2185 102.425 56.985 102.955 56.7885L103.429 58.0894L103.522 58.0561L103.059 56.7478C103.589 56.5625 104.134 56.4142 104.697 56.3142L104.934 57.6817L105.034 57.6632L104.804 56.2919C105.357 56.1956 105.916 56.14 106.494 56.14L106.52 57.5372H106.591L106.602 56.1437C107.176 56.1474 107.732 56.2067 108.285 56.2993L108.051 57.6706L108.147 57.6817L108.399 56.3179C108.959 56.4179 109.504 56.5736 110.026 56.7626L109.559 58.0672L109.656 58.1005L110.141 56.8034C110.671 56.9998 111.183 57.237 111.668 57.5187L110.983 58.7195L110.156 60.1686L110.23 60.2168L111.509 58.0264L111.772 57.578C112.261 57.8633 112.724 58.1821 113.158 58.549L112.261 59.6126L112.339 59.6757L113.243 58.6194C113.67 58.9863 114.074 59.3866 114.437 59.8165L113.373 60.7097L113.436 60.7838L114.518 59.898C114.878 60.3316 115.189 60.8023 115.474 61.2915L114.281 61.9846L114.326 62.0735L115.534 61.3879C115.808 61.8771 116.045 62.3849 116.245 62.9185L114.944 63.4004L114.978 63.4893L116.282 63.026C116.471 63.5523 116.62 64.0971 116.723 64.6604L115.352 64.9013L115.371 65.0014L116.742 64.7716C116.831 65.3239 116.894 65.8872 116.894 66.4616L116.534 66.4728H116.271L113.825 66.4987V66.5839L115.493 66.5988L116.89 66.6099C116.883 67.1843 116.824 67.744 116.727 68.2925L116.709 68.2999Z" fill="#00FF7F"/>
<path d="M105.924 65.8307C105.89 65.853 105.868 65.8789 105.846 65.9086L95.8948 75.3778L106.087 66.8536C105.898 66.6238 105.931 66.2866 106.161 66.0939C106.391 65.9086 106.732 65.9382 106.913 66.168L107.18 65.9493C106.869 65.5787 106.317 65.5194 105.942 65.8196L105.935 65.8233C105.935 65.8233 105.927 65.8307 105.924 65.8307Z" fill="#00FF7F"/>
<path d="M106.839 66.9247C106.609 67.11 106.272 67.0804 106.087 66.8506L95.8948 75.3748L106.969 67.2694C106.998 67.2509 107.028 67.2286 107.058 67.2064V67.199L107.069 67.1916C107.44 66.8728 107.491 66.3243 107.18 65.9463L106.913 66.165C107.102 66.3947 107.069 66.732 106.839 66.9247Z" fill="#00FF7F"/>
<defs>
<radialGradient id="paint0_radial_6793_821" cx="0" cy="0" r="1" gradientUnits="userSpaceOnUse" gradientTransform="translate(34 78) rotate(90) scale(8 22)">
<stop stop-color="#47FCE4"/>
<stop offset="1" stop-color="#47FCE4" stop-opacity="0"/>
</radialGradient>
<radialGradient id="paint1_radial_6793_821" cx="0" cy="0" r="1" gradientUnits="userSpaceOnUse" gradientTransform="translate(34 78) rotate(90) scale(8 22)">
<stop stop-color="#47FCE4"/>
<stop offset="1" stop-color="#47FCE4" stop-opacity="0"/>
</radialGradient>
<radialGradient id="paint2_radial_6793_821" cx="0" cy="0" r="1" gradientUnits="userSpaceOnUse" gradientTransform="translate(34 78) rotate(90) scale(8 22)">
<stop stop-color="#47FCE4"/>
<stop offset="1" stop-color="#47FCE4" stop-opacity="0"/>
</radialGradient>
<radialGradient id="paint3_radial_6793_821" cx="0" cy="0" r="1" gradientUnits="userSpaceOnUse" gradientTransform="translate(34 78) rotate(90) scale(8 22)">
<stop stop-color="#47FCE4"/>
<stop offset="1" stop-color="#47FCE4" stop-opacity="0"/>
</radialGradient>
<linearGradient id="paint4_linear_6793_821" x1="15.6475" y1="75.8549" x2="42.4169" y2="75.8549" gradientUnits="userSpaceOnUse">
<stop stop-color="#200242"/>
<stop offset="1" stop-color="#040404"/>
</linearGradient>
<linearGradient id="paint5_linear_6793_821" x1="15.6474" y1="72.8158" x2="42.4169" y2="72.8158" gradientUnits="userSpaceOnUse">
<stop stop-color="#200242"/>
<stop offset="1" stop-color="#040404"/>
</linearGradient>
<linearGradient id="paint6_linear_6793_821" x1="27.8098" y1="69.5779" x2="36.127" y2="69.5779" gradientUnits="userSpaceOnUse">
<stop stop-color="#200242"/>
<stop offset="1" stop-color="#040404"/>
</linearGradient>
<linearGradient id="paint7_linear_6793_821" x1="27.8099" y1="67.51" x2="36.1271" y2="67.51" gradientUnits="userSpaceOnUse">
<stop stop-color="#200242"/>
<stop offset="1" stop-color="#040404"/>
</linearGradient>
<linearGradient id="paint8_linear_6793_821" x1="53.6378" y1="54.553" x2="14" y2="54.553" gradientUnits="userSpaceOnUse">
<stop stop-color="#871FFF"/>
<stop offset="1" stop-color="#200242"/>
</linearGradient>
<linearGradient id="paint9_linear_6793_821" x1="32.2909" y1="82.6727" x2="32.9033" y2="42.9987" gradientUnits="userSpaceOnUse">
<stop stop-color="#871FFF"/>
<stop offset="1" stop-color="white"/>
</linearGradient>
<linearGradient id="paint10_linear_6793_821" x1="15.6474" y1="30.5829" x2="42.4169" y2="30.5829" gradientUnits="userSpaceOnUse">
<stop stop-color="#200242"/>
<stop offset="1" stop-color="#040404"/>
</linearGradient>
<linearGradient id="paint11_linear_6793_821" x1="53.1104" y1="27.5438" x2="-0.499969" y2="23" gradientUnits="userSpaceOnUse">
<stop stop-color="#871FFF"/>
<stop offset="0.7" stop-color="#7F3ECB"/>
<stop offset="1" stop-color="#871FFF" stop-opacity="0.2"/>
</linearGradient>
<linearGradient id="paint12_linear_6793_821" x1="23.7635" y1="26.3083" x2="40.9703" y2="25.8278" gradientUnits="userSpaceOnUse">
<stop stop-color="#871FFF"/>
<stop offset="1" stop-color="white"/>
</linearGradient>
<linearGradient id="paint13_linear_6793_821" x1="40.3941" y1="22.2939" x2="24.9104" y2="22.8674" gradientUnits="userSpaceOnUse">
<stop stop-color="#871FFF"/>
<stop offset="1" stop-color="white"/>
</linearGradient>
<radialGradient id="paint14_angular_6793_821" cx="0" cy="0" r="1" gradientUnits="userSpaceOnUse" gradientTransform="translate(72.0005 73.0474) rotate(-59.8349) scale(9.1797 6.36328)">
<stop stop-color="#CCA0FF"/>
<stop offset="0.475" stop-color="#AF6AFF"/>
<stop offset="0.701326" stop-color="#871FFF"/>
<stop offset="0.74" stop-color="#871FFF"/>
</radialGradient>
<radialGradient id="paint15_angular_6793_821" cx="0" cy="0" r="1" gradientUnits="userSpaceOnUse" gradientTransform="translate(72.0005 80.1567) rotate(-14.2999) scale(14.2808 5.45372)">
<stop stop-color="#CCA0FF"/>
<stop offset="0.475" stop-color="#AF6AFF"/>
<stop offset="0.701326" stop-color="#871FFF"/>
<stop offset="0.74" stop-color="#871FFF"/>
</radialGradient>
<radialGradient id="paint16_angular_6793_821" cx="0" cy="0" r="1" gradientUnits="userSpaceOnUse" gradientTransform="translate(90.2609 34.2029) rotate(-13.8972) scale(152.06 112.881)">
<stop offset="0.02" stop-color="#47FCE4" stop-opacity="0.6"/>
<stop offset="0.14" stop-color="#200242"/>
<stop offset="0.476421" stop-color="#200242"/>
<stop offset="0.701326" stop-color="#871FFF"/>
<stop offset="0.74" stop-color="#871FFF"/>
</radialGradient>
<linearGradient id="paint17_linear_6793_821" x1="36.8393" y1="54.3976" x2="61.355" y2="52.6601" gradientUnits="userSpaceOnUse">
<stop stop-color="#871FFF"/>
<stop offset="0.335" stop-color="#AF6AFF"/>
<stop offset="0.575" stop-color="#CCA0FF"/>
<stop offset="0.735" stop-color="#DFC4FF"/>
<stop offset="0.86" stop-color="#EEE0FF"/>
<stop offset="1" stop-color="white"/>
</linearGradient>
<linearGradient id="paint18_linear_6793_821" x1="38.695" y1="44.5539" x2="61.8328" y2="43.007" gradientUnits="userSpaceOnUse">
<stop stop-color="#871FFF"/>
<stop offset="0.335" stop-color="#AF6AFF"/>
<stop offset="0.575" stop-color="#CCA0FF"/>
<stop offset="0.735" stop-color="#DFC4FF"/>
<stop offset="0.86" stop-color="#EEE0FF"/>
<stop offset="1" stop-color="white"/>
</linearGradient>
<linearGradient id="paint19_linear_6793_821" x1="84.7127" y1="44.5539" x2="107.849" y2="43.0072" gradientUnits="userSpaceOnUse">
<stop stop-color="#871FFF"/>
<stop offset="0.335" stop-color="#AF6AFF"/>
<stop offset="0.575" stop-color="#CCA0FF"/>
<stop offset="0.735" stop-color="#DFC4FF"/>
<stop offset="0.86" stop-color="#EEE0FF"/>
<stop offset="1" stop-color="white"/>
</linearGradient>
<linearGradient id="paint20_linear_6793_821" x1="69.5137" y1="44.5539" x2="92.6776" y2="43.0035" gradientUnits="userSpaceOnUse">
<stop stop-color="#871FFF"/>
<stop offset="0.335" stop-color="#AF6AFF"/>
<stop offset="0.575" stop-color="#CCA0FF"/>
<stop offset="0.735" stop-color="#DFC4FF"/>
<stop offset="0.86" stop-color="#EEE0FF"/>
<stop offset="1" stop-color="white"/>
</linearGradient>
<linearGradient id="paint21_linear_6793_821" x1="69.7351" y1="34.7101" x2="91.4782" y2="33.3449" gradientUnits="userSpaceOnUse">
<stop stop-color="#871FFF"/>
<stop offset="0.335" stop-color="#AF6AFF"/>
<stop offset="0.575" stop-color="#CCA0FF"/>
<stop offset="0.735" stop-color="#DFC4FF"/>
<stop offset="0.86" stop-color="#EEE0FF"/>
<stop offset="1" stop-color="white"/>
</linearGradient>
<linearGradient id="paint22_linear_6793_821" x1="54.9238" y1="34.7101" x2="76.6672" y2="33.3448" gradientUnits="userSpaceOnUse">
<stop stop-color="#871FFF"/>
<stop offset="0.335" stop-color="#AF6AFF"/>
<stop offset="0.575" stop-color="#CCA0FF"/>
<stop offset="0.735" stop-color="#DFC4FF"/>
<stop offset="0.86" stop-color="#EEE0FF"/>
<stop offset="1" stop-color="white"/>
</linearGradient>
<linearGradient id="paint23_linear_6793_821" x1="53.8699" y1="44.5539" x2="77.0346" y2="43.0034" gradientUnits="userSpaceOnUse">
<stop stop-color="#871FFF"/>
<stop offset="0.335" stop-color="#AF6AFF"/>
<stop offset="0.575" stop-color="#CCA0FF"/>
<stop offset="0.735" stop-color="#DFC4FF"/>
<stop offset="0.86" stop-color="#EEE0FF"/>
<stop offset="1" stop-color="white"/>
</linearGradient>
<linearGradient id="paint24_linear_6793_821" x1="52.8162" y1="54.3976" x2="77.3998" y2="52.6504" gradientUnits="userSpaceOnUse">
<stop stop-color="#871FFF"/>
<stop offset="0.335" stop-color="#AF6AFF"/>
<stop offset="0.575" stop-color="#CCA0FF"/>
<stop offset="0.735" stop-color="#DFC4FF"/>
<stop offset="0.86" stop-color="#EEE0FF"/>
<stop offset="1" stop-color="white"/>
</linearGradient>
<linearGradient id="paint25_linear_6793_821" x1="51.7623" y1="64.2414" x2="77.7623" y2="62.2859" gradientUnits="userSpaceOnUse">
<stop stop-color="#871FFF"/>
<stop offset="0.335" stop-color="#AF6AFF"/>
<stop offset="0.575" stop-color="#CCA0FF"/>
<stop offset="0.735" stop-color="#DFC4FF"/>
<stop offset="0.86" stop-color="#EEE0FF"/>
<stop offset="1" stop-color="white"/>
</linearGradient>
<linearGradient id="paint26_linear_6793_821" x1="69.0708" y1="64.2414" x2="95.0692" y2="62.2861" gradientUnits="userSpaceOnUse">
<stop stop-color="#871FFF"/>
<stop offset="0.335" stop-color="#AF6AFF"/>
<stop offset="0.575" stop-color="#CCA0FF"/>
<stop offset="0.735" stop-color="#DFC4FF"/>
<stop offset="0.86" stop-color="#EEE0FF"/>
<stop offset="1" stop-color="white"/>
</linearGradient>
<linearGradient id="paint27_linear_6793_821" x1="69.2922" y1="54.3976" x2="93.8747" y2="52.6506" gradientUnits="userSpaceOnUse">
<stop stop-color="#871FFF"/>
<stop offset="0.335" stop-color="#AF6AFF"/>
<stop offset="0.575" stop-color="#CCA0FF"/>
<stop offset="0.735" stop-color="#DFC4FF"/>
<stop offset="0.86" stop-color="#EEE0FF"/>
<stop offset="1" stop-color="white"/>
</linearGradient>
<linearGradient id="paint28_linear_6793_821" x1="85.3295" y1="54.3976" x2="109.844" y2="52.6602" gradientUnits="userSpaceOnUse">
<stop stop-color="#871FFF"/>
<stop offset="0.335" stop-color="#AF6AFF"/>
<stop offset="0.575" stop-color="#CCA0FF"/>
<stop offset="0.735" stop-color="#DFC4FF"/>
<stop offset="0.86" stop-color="#EEE0FF"/>
<stop offset="1" stop-color="white"/>
</linearGradient>
<linearGradient id="paint29_linear_6793_821" x1="84.0959" y1="34.7101" x2="105.852" y2="33.3433" gradientUnits="userSpaceOnUse">
<stop stop-color="#871FFF"/>
<stop offset="0.335" stop-color="#AF6AFF"/>
<stop offset="0.575" stop-color="#CCA0FF"/>
<stop offset="0.735" stop-color="#DFC4FF"/>
<stop offset="0.86" stop-color="#EEE0FF"/>
<stop offset="1" stop-color="white"/>
</linearGradient>
<linearGradient id="paint30_linear_6793_821" x1="40.5507" y1="34.7101" x2="62.3083" y2="33.343" gradientUnits="userSpaceOnUse">
<stop stop-color="#871FFF"/>
<stop offset="0.335" stop-color="#AF6AFF"/>
<stop offset="0.575" stop-color="#CCA0FF"/>
<stop offset="0.735" stop-color="#DFC4FF"/>
<stop offset="0.86" stop-color="#EEE0FF"/>
<stop offset="1" stop-color="white"/>
</linearGradient>
<linearGradient id="paint31_linear_6793_821" x1="35.2334" y1="64.2419" x2="60.7887" y2="62.353" gradientUnits="userSpaceOnUse">
<stop stop-color="#871FFF"/>
<stop offset="0.335" stop-color="#AF6AFF"/>
<stop offset="0.575" stop-color="#CCA0FF"/>
<stop offset="0.735" stop-color="#DFC4FF"/>
<stop offset="0.86" stop-color="#EEE0FF"/>
<stop offset="1" stop-color="white"/>
</linearGradient>
<linearGradient id="paint32_linear_6793_821" x1="85.9993" y1="64.2419" x2="111.554" y2="62.3531" gradientUnits="userSpaceOnUse">
<stop stop-color="#871FFF"/>
<stop offset="0.335" stop-color="#AF6AFF"/>
<stop offset="0.575" stop-color="#CCA0FF"/>
<stop offset="0.735" stop-color="#DFC4FF"/>
<stop offset="0.86" stop-color="#EEE0FF"/>
<stop offset="1" stop-color="white"/>
</linearGradient>
<radialGradient id="paint33_radial_6793_821" cx="0" cy="0" r="1" gradientUnits="userSpaceOnUse" gradientTransform="translate(92.9251 62.3923) rotate(51.257) scale(37.544 36.1297)">
<stop stop-color="#200242"/>
<stop offset="1" stop-color="#871FFF"/>
</radialGradient>
<linearGradient id="paint34_linear_6793_821" x1="103.908" y1="38.7983" x2="106.504" y2="83.8505" gradientUnits="userSpaceOnUse">
<stop stop-color="#871FFF"/>
<stop offset="1" stop-color="#200242"/>
</linearGradient>
<clipPath id="clip0_6793_821">
<rect width="70" height="70" fill="white" transform="translate(37 20)"/>
</clipPath>
</defs>
</svg>
