<svg xmlns="http://www.w3.org/2000/svg" width="107" height="107" viewBox="0 0 107 107" fill="none">
<g style="mix-blend-mode:lighten">
<path d="M107 53.5051C107 23.9563 83.0539 0 53.5051 0C23.9563 0 0 23.9563 0 53.5051C0 83.0539 23.9563 107 53.5051 107C83.0539 107 107 83.0539 107 53.5051Z" fill="url(#paint0_radial_6479_3068)" style="mix-blend-mode:overlay"/>
</g>
<path d="M44.6284 53.5053C44.6284 48.6144 48.6144 44.6387 53.5154 44.6387C58.4165 44.6387 62.3923 48.6144 62.3923 53.5053C62.3923 58.3963 58.4165 62.372 53.5154 62.372C48.6144 62.372 44.6284 58.4064 44.6284 53.5053Z" stroke="#2B2B2B" stroke-width="0.0598691" stroke-miterlimit="10"/>
<path d="M5.91943 53.5056C5.91943 27.2106 27.2116 5.9082 53.5066 5.9082C79.8016 5.9082 101.104 27.2004 101.104 53.5056C101.104 79.8107 79.8118 101.103 53.5066 101.103C27.2015 101.103 5.91943 79.8107 5.91943 53.5056Z" fill="url(#paint1_linear_6479_3068)"/>
<g style="mix-blend-mode:multiply">
<path d="M56.639 53.5048C56.639 55.2334 55.2358 56.6468 53.5072 56.6468C51.7786 56.6468 50.3652 55.2334 50.3652 53.5048C50.3652 51.7763 51.7786 50.373 53.5072 50.373C55.2358 50.373 56.639 51.7763 56.639 53.5048Z" fill="#A0A0A0"/>
</g>
<path d="M54.392 53.5053C54.392 53.9934 53.9853 54.3798 53.5175 54.3798C53.0498 54.3798 52.6431 53.9934 52.6431 53.5053C52.6431 53.0173 53.0295 52.6309 53.5175 52.6309C54.0056 52.6309 54.392 53.0173 54.392 53.5053Z" fill="#CEC4B6"/>
<path d="M53.7079 53.5051C53.7079 53.6271 53.6164 53.6983 53.5045 53.6983C53.3825 53.6983 53.291 53.6271 53.291 53.5051C53.291 53.3933 53.3825 53.3018 53.5045 53.3018C53.6062 53.3018 53.7079 53.3933 53.7079 53.5051Z" fill="#ED9F58"/>
<g style="mix-blend-mode:multiply">
<path d="M85.9328 49.7022L95.7247 49.1735C95.2265 44.2521 93.9046 39.595 91.8812 35.3447L83.228 39.9611C84.6007 42.981 85.5362 46.2552 85.9328 49.7022Z" fill="#695D76"/>
<path d="M21.1396 57.2363L11.3477 57.7651C11.8256 62.6763 13.1678 67.3333 15.1811 71.5938L23.8342 66.9775C22.4513 63.9575 21.5362 60.6833 21.1396 57.2363Z" fill="#78668D"/>
<path d="M81.3273 36.3512L89.9804 31.7349C87.4994 27.5761 84.3269 23.8952 80.6358 20.8447L74.7383 28.6742C77.3108 30.8706 79.5377 33.4533 81.3273 36.3614V36.3512Z" fill="#887A98"/>
<path d="M75.2133 77.8473L81.2532 85.5853C84.8934 82.4331 87.9846 78.6811 90.3843 74.4918L81.6294 70.0381C79.911 72.9665 77.7248 75.6001 75.2031 77.8371L75.2133 77.8473Z" fill="#67527E"/>
<path d="M86.1533 53.769C86.1127 58.2328 85.1772 62.5136 83.4893 66.4081L92.2237 70.8516C94.6539 65.4726 95.986 59.514 95.9453 53.2402L86.1533 53.769Z" fill="#695A7A" style="mix-blend-mode:darken"/>
<path d="M71.4844 26.2231L77.3819 18.3834C73.4265 15.699 69.0135 13.6755 64.3056 12.4248L62.272 22.0236C65.5766 22.9489 68.6779 24.3623 71.4844 26.2129V26.2231Z" fill="#796D86"/>
<path d="M25.7479 70.5869L17.0947 75.1931C19.5859 79.3519 22.7483 83.0328 26.4393 86.1036L32.3267 78.2639C29.7643 76.0676 27.5273 73.4849 25.7377 70.5971L25.7479 70.5869Z" fill="#86709F"/>
<path d="M31.8585 29.0905L25.8185 21.3525C22.1783 24.5047 19.0872 28.2466 16.6875 32.4359L25.4322 36.8896C27.1607 33.9611 29.3367 31.3275 31.8585 29.0804V29.0905Z" fill="#796491"/>
<path d="M23.5907 40.5298L14.8461 36.0762C12.4261 41.4755 11.094 47.4341 11.1347 53.6875L20.9368 53.1689C20.9572 48.7051 21.913 44.4243 23.5907 40.54V40.5298Z" fill="#7A6A8D"/>
<path d="M44.194 22.2065L41.9875 12.6484C37.2694 13.9805 32.9073 16.0955 29.0332 18.8612L35.0731 26.5789C37.8389 24.6876 40.9097 23.203 44.2042 22.2167L44.194 22.2065Z" fill="#765C96" style="mix-blend-mode:darken"/>
<path d="M51.7968 20.885C54.0033 20.7732 56.1793 20.8748 58.2841 21.1901L60.3076 11.5913C57.3893 11.1134 54.3592 10.9507 51.2782 11.1032C49.4581 11.2049 47.6889 11.4184 45.9399 11.7235L48.1668 21.2816C49.3565 21.0782 50.5665 20.946 51.7867 20.885H51.7968Z" fill="#6D607D"/>
</g>
<path d="M82.3412 53.8303V53.4032H82.3208C82.3208 51.7967 82.1581 50.2308 81.8937 48.7055H81.9344L81.8836 48.4005H81.8429C81.5684 46.8448 81.1515 45.3297 80.6329 43.8655L80.6736 43.8451L80.5617 43.5401L80.5109 43.5604C79.972 42.086 79.3212 40.6523 78.5382 39.3L78.5789 39.2796L78.4264 39.0152L78.3756 39.0457C77.5824 37.6934 76.7181 36.3817 75.7115 35.192L75.7318 35.1717L75.5285 34.9276L75.4979 34.9581C74.4913 33.7481 73.383 32.6398 72.1831 31.623L72.2035 31.5925L71.9899 31.3993L71.9594 31.4298C70.7494 30.4231 69.458 29.5486 68.1057 28.7352L68.1362 28.6844L67.8718 28.5217L67.8413 28.5623C66.4889 27.7895 65.0552 27.1286 63.5707 26.5592L63.591 26.5084L63.3063 26.4168L63.2859 26.4677C61.8217 25.9288 60.3067 25.5119 58.7509 25.217V25.1967L58.4459 25.1356V25.1865C56.9206 24.9119 55.3649 24.7594 53.7583 24.7493V24.7188H53.4635V24.7391C51.8467 24.7391 50.2808 24.9018 48.7556 25.1661V25.1153L48.4607 25.1763V25.2068C46.905 25.4915 45.3797 25.8983 43.9257 26.427L43.9053 26.3762L43.6206 26.488L43.641 26.5287C42.1564 27.0778 40.7125 27.7285 39.3602 28.5013L39.3297 28.4708L39.0653 28.6233L39.0958 28.6742C37.7332 29.4571 36.4317 30.3316 35.2319 31.3281L35.2115 31.3077L34.9675 31.5213L34.998 31.5518C33.788 32.5686 32.6796 33.6871 31.6628 34.8768L31.6323 34.8463L31.4391 35.0801L31.4696 35.1107C30.4732 36.3105 29.5783 37.6222 28.7649 38.9644L28.7344 38.9339L28.5615 39.2084L28.6022 39.2389C27.8294 40.5913 27.1685 42.0149 26.5991 43.4893H26.5584L26.4465 43.7638L26.4974 43.7841C25.9686 45.2382 25.5416 46.7431 25.267 48.309H25.2264L25.1755 48.6344H25.2162C24.9518 50.1596 24.7891 51.7153 24.7688 53.3016H24.7383V53.6168H24.7586C24.7586 55.2234 24.9213 56.7791 25.1755 58.3043H25.1348L25.1857 58.6195H25.2365C25.5009 60.1753 25.9178 61.6903 26.4364 63.1444L26.3855 63.1647L26.4974 63.4596L26.5381 63.4393C27.0871 64.9238 27.7277 66.3474 28.5107 67.7201L28.4802 67.7404L28.6225 68.0048L28.6632 67.9743C29.4462 69.3368 30.3308 70.6384 31.3273 71.8484L31.3069 71.8687L31.5001 72.1026L31.5306 72.0822C32.5475 73.2719 33.6558 74.3904 34.8455 75.4174L34.8251 75.4377L35.059 75.6411V75.6208C36.2792 76.6173 37.5807 77.5121 38.9229 78.3153L38.9026 78.3662L39.1771 78.5187V78.478C40.5397 79.261 41.9632 79.9219 43.4376 80.4812L43.4173 80.532L43.7325 80.6439L43.7528 80.6032C45.217 81.1319 46.7219 81.559 48.2777 81.8437V81.8844L48.5624 81.9454V81.8946C50.0978 82.1589 51.6637 82.3318 53.2601 82.342V82.3623H53.555C55.1615 82.3623 56.7274 82.1894 58.2527 81.9454V81.9759L58.5577 81.9352V81.8844C60.1135 81.6098 61.6387 81.2031 63.0826 80.6744L63.1029 80.7354L63.408 80.6337L63.3775 80.5829C64.862 80.0338 66.3059 79.383 67.6583 78.6204L67.6786 78.6611L67.9531 78.4984L67.9226 78.4679C69.275 77.6748 70.5867 76.7901 71.7764 75.8038L71.7967 75.8343L72.0509 75.6208L72.0204 75.5903C73.2304 74.5734 74.3388 73.4753 75.3454 72.2856L75.3759 72.3161L75.5895 72.0721L75.559 72.0416C76.5554 70.8519 77.4502 69.5605 78.2739 68.2082L78.3044 68.2387L78.4671 67.9641L78.4264 67.9336C79.2093 66.5812 79.8804 65.1577 80.4397 63.6935H80.4702L80.5922 63.3986L80.5414 63.3783C81.0803 61.9242 81.5074 60.4193 81.7921 58.8636H81.8226L81.8836 58.5585H81.8327C82.1073 57.0231 82.27 55.4572 82.2801 53.871H82.3106L82.3412 53.8303ZM81.5074 58.4365L77.7553 57.7857L77.7045 58.0501L81.4565 58.7517C81.1718 60.2871 80.7447 61.7717 80.2262 63.2156L76.6368 61.9242L76.5453 62.1682L80.1042 63.5206C79.5551 64.9848 78.9043 66.388 78.1213 67.7201L74.8167 65.8186L74.6947 66.0525L77.9587 67.9946C77.1757 69.3267 76.2911 70.6079 75.2946 71.7874L72.3865 69.3267L72.2035 69.53L75.0811 72.0212C74.0846 73.1906 72.9864 74.2989 71.8069 75.2852L69.3564 72.3568L69.153 72.5296L71.5629 75.4988C70.3732 76.4851 69.092 77.3494 67.7599 78.1222L67.6481 77.929L63.5503 70.8722L63.3876 70.9637L67.3532 78.0916H67.3837L67.4854 78.2848C66.1432 79.0475 64.74 79.6881 63.2758 80.2168L61.9844 76.6579L61.72 76.7393L62.9809 80.3388C61.5472 80.8472 60.0423 81.254 58.5069 81.5183L57.8358 77.7764L57.5714 77.8171L58.2018 81.5692C56.6969 81.8234 55.1615 81.9861 53.5651 81.9861L53.5346 78.1425H53.3008L53.2601 81.9657C51.684 81.9454 50.1385 81.7929 48.6336 81.5285L49.2945 77.7866L49.0301 77.7358L48.3285 81.4878C46.7931 81.2031 45.3086 80.7862 43.8748 80.2575L45.156 76.6884L44.912 76.5969L43.5596 80.1558C42.1056 79.6067 40.7125 78.9458 39.3805 78.1832L39.594 77.8171L43.5495 70.9129L43.3868 70.8214L39.1873 77.8069H39.2178L39.1161 78.0205C37.7739 77.2172 36.4927 76.3326 35.303 75.3462L37.7739 72.4178L37.5604 72.2348L35.0793 75.1429C33.91 74.126 32.8118 73.038 31.8052 71.8484L34.7336 69.3877L34.5608 69.1741L31.6018 71.6247C30.6155 70.435 29.7512 69.1335 28.9784 67.8014L32.2628 65.8796L32.1306 65.6458L28.8157 67.5371C28.0633 66.1847 27.4125 64.7713 26.8736 63.3071L30.4426 62.0157L30.3511 61.7615L26.7719 63.0325C26.2635 61.5785 25.8568 60.0838 25.5822 58.5382L29.3343 57.8773L29.2835 57.6129L25.5314 58.2535C25.2874 56.7384 25.1247 55.1929 25.1145 53.6168H25.3789L33.5439 53.5558V53.3727L25.3789 53.2812H25.1247C25.145 51.7255 25.2975 50.1901 25.5721 48.6852L29.3241 49.3156L29.3648 49.0614L25.6127 48.3598C25.8975 46.8244 26.3144 45.3399 26.8329 43.896L30.4121 45.1772L30.5037 44.923L26.9448 43.5909C27.4837 42.1369 28.1345 40.7235 28.9072 39.3813L32.2221 41.2828L32.3543 41.0591L29.0801 39.1169C29.8732 37.7849 30.7375 36.5037 31.7442 35.314L34.6624 37.7849L34.8455 37.5714L31.9475 35.0903C32.9542 33.9108 34.0524 32.8126 35.242 31.8162L37.6926 34.7446L37.8959 34.5616L35.4759 31.6026C36.6554 30.6265 37.9468 29.7622 39.289 28.9691L39.411 29.1623L40.4583 30.9722L41.2006 32.2636L43.5088 36.219L43.702 36.097L41.4446 32.1212L41.4243 32.0907L39.6652 28.9996L39.5635 28.8064C40.9057 28.0336 42.3191 27.393 43.7732 26.8541L45.0747 30.4231L45.3289 30.3316L44.0579 26.7422C45.5119 26.2338 47.0066 25.8271 48.5522 25.5525L49.203 29.3046L49.4775 29.2538L48.8471 25.4915C50.3622 25.2272 51.8976 25.0746 53.4838 25.0746L53.555 28.908H53.7482L53.7787 25.0848C55.3547 25.095 56.88 25.2577 58.395 25.5119L57.7544 29.2741L58.0188 29.3046L58.7103 25.5627C60.2457 25.8373 61.7404 26.2643 63.1741 26.7829L61.8929 30.3621L62.1573 30.4536L63.4893 26.8947C64.9434 27.4337 66.3466 28.0844 67.6786 28.8572L65.7975 32.1517L63.53 36.1275L63.7333 36.2597L67.2414 30.2503L67.9633 29.0199C69.3055 29.8029 70.5765 30.6773 71.7662 31.684L69.3055 34.6022L69.5191 34.7751L72.0001 31.8772C73.1694 32.8838 74.2778 33.982 75.2743 35.1615L72.356 37.612L72.5288 37.8154L75.4979 35.3852C76.4843 36.5749 77.3384 37.8662 78.1213 39.2084L74.8472 41.1099L74.9692 41.3539L78.284 39.4728C79.0365 40.815 79.6873 42.2081 80.2363 43.6723L76.6673 44.9942L76.7588 45.2382L80.338 43.9672C80.8566 45.411 81.2633 46.9058 81.548 48.4513L77.7858 49.1123L77.8366 49.3868L81.5989 48.7564C81.8429 50.2714 82.0158 51.817 82.0158 53.3931L81.0295 53.4236H80.3075L73.5965 53.4948V53.7286L78.1722 53.7693L82.0056 53.7998C81.9853 55.3759 81.8226 56.9113 81.5582 58.4162L81.5074 58.4365Z" fill="#00FF7F"/>
<path d="M51.9195 51.6648C51.8279 51.7258 51.7669 51.797 51.7059 51.8783L24.4043 77.8581L52.3668 54.4712C51.8483 53.8408 51.9398 52.9155 52.5702 52.3867C53.2006 51.8783 54.1361 51.9597 54.6344 52.5901L55.3665 51.9902C54.5123 50.9733 52.9973 50.8107 51.9703 51.6343L51.95 51.6444C51.95 51.6444 51.9296 51.6648 51.9195 51.6648Z" fill="#00FF7F"/>
<path d="M54.431 54.6639C53.8006 55.1723 52.8753 55.091 52.3669 54.4605L24.4043 77.8474L54.7869 55.6095C54.8682 55.5587 54.9496 55.4977 55.0309 55.4367V55.4163L55.0614 55.396C56.0782 54.5215 56.2206 53.0166 55.3665 51.9795L54.6344 52.5794C55.1529 53.2098 55.0614 54.1352 54.431 54.6639Z" fill="#00FF7F"/>
<defs>
<radialGradient id="paint0_radial_6479_3068" cx="0" cy="0" r="1" gradientUnits="userSpaceOnUse" gradientTransform="translate(16.2561 42.2301) rotate(51.257) scale(103.005 99.125)">
<stop stop-color="#200242"/>
<stop offset="1" stop-color="#871FFF"/>
</radialGradient>
<linearGradient id="paint1_linear_6479_3068" x1="46.3889" y1="-22.5017" x2="53.5117" y2="101.103" gradientUnits="userSpaceOnUse">
<stop stop-color="#871FFF"/>
<stop offset="1" stop-color="#200242"/>
</linearGradient>
</defs>
</svg>